%TF.GenerationSoftware,KiCad,Pcbnew,9.0.0*%
%TF.CreationDate,2025-06-14T23:29:26+05:30*%
%TF.ProjectId,keyboard,6b657962-6f61-4726-942e-6b696361645f,rev?*%
%TF.SameCoordinates,Original*%
%TF.FileFunction,Copper,L2,Bot*%
%TF.FilePolarity,Positive*%
%FSLAX46Y46*%
G04 Gerber Fmt 4.6, Leading zero omitted, Abs format (unit mm)*
G04 Created by KiCad (PCBNEW 9.0.0) date 2025-06-14 23:29:26*
%MOMM*%
%LPD*%
G01*
G04 APERTURE LIST*
G04 Aperture macros list*
%AMRoundRect*
0 Rectangle with rounded corners*
0 $1 Rounding radius*
0 $2 $3 $4 $5 $6 $7 $8 $9 X,Y pos of 4 corners*
0 Add a 4 corners polygon primitive as box body*
4,1,4,$2,$3,$4,$5,$6,$7,$8,$9,$2,$3,0*
0 Add four circle primitives for the rounded corners*
1,1,$1+$1,$2,$3*
1,1,$1+$1,$4,$5*
1,1,$1+$1,$6,$7*
1,1,$1+$1,$8,$9*
0 Add four rect primitives between the rounded corners*
20,1,$1+$1,$2,$3,$4,$5,0*
20,1,$1+$1,$4,$5,$6,$7,0*
20,1,$1+$1,$6,$7,$8,$9,0*
20,1,$1+$1,$8,$9,$2,$3,0*%
%AMFreePoly0*
4,1,37,0.603843,0.796157,0.639018,0.796157,0.711114,0.766294,0.766294,0.711114,0.796157,0.639018,0.796157,0.603843,0.800000,0.600000,0.800000,-0.600000,0.796157,-0.603843,0.796157,-0.639018,0.766294,-0.711114,0.711114,-0.766294,0.639018,-0.796157,0.603843,-0.796157,0.600000,-0.800000,0.000000,-0.800000,0.000000,-0.796148,-0.078414,-0.796148,-0.232228,-0.765552,-0.377117,-0.705537,
-0.507515,-0.618408,-0.618408,-0.507515,-0.705537,-0.377117,-0.765552,-0.232228,-0.796148,-0.078414,-0.796148,0.078414,-0.765552,0.232228,-0.705537,0.377117,-0.618408,0.507515,-0.507515,0.618408,-0.377117,0.705537,-0.232228,0.765552,-0.078414,0.796148,0.000000,0.796148,0.000000,0.800000,0.600000,0.800000,0.603843,0.796157,0.603843,0.796157,$1*%
%AMFreePoly1*
4,1,37,0.000000,0.796148,0.078414,0.796148,0.232228,0.765552,0.377117,0.705537,0.507515,0.618408,0.618408,0.507515,0.705537,0.377117,0.765552,0.232228,0.796148,0.078414,0.796148,-0.078414,0.765552,-0.232228,0.705537,-0.377117,0.618408,-0.507515,0.507515,-0.618408,0.377117,-0.705537,0.232228,-0.765552,0.078414,-0.796148,0.000000,-0.796148,0.000000,-0.800000,-0.600000,-0.800000,
-0.603843,-0.796157,-0.639018,-0.796157,-0.711114,-0.766294,-0.766294,-0.711114,-0.796157,-0.639018,-0.796157,-0.603843,-0.800000,-0.600000,-0.800000,0.600000,-0.796157,0.603843,-0.796157,0.639018,-0.766294,0.711114,-0.711114,0.766294,-0.639018,0.796157,-0.603843,0.796157,-0.600000,0.800000,0.000000,0.800000,0.000000,0.796148,0.000000,0.796148,$1*%
G04 Aperture macros list end*
%TA.AperFunction,ComponentPad*%
%ADD10R,1.600000X1.600000*%
%TD*%
%TA.AperFunction,ComponentPad*%
%ADD11O,1.600000X1.600000*%
%TD*%
%TA.AperFunction,ComponentPad*%
%ADD12C,2.200000*%
%TD*%
%TA.AperFunction,ComponentPad*%
%ADD13RoundRect,0.200000X0.600000X-0.600000X0.600000X0.600000X-0.600000X0.600000X-0.600000X-0.600000X0*%
%TD*%
%TA.AperFunction,ComponentPad*%
%ADD14C,1.600000*%
%TD*%
%TA.AperFunction,ComponentPad*%
%ADD15FreePoly0,90.000000*%
%TD*%
%TA.AperFunction,ComponentPad*%
%ADD16FreePoly1,90.000000*%
%TD*%
%TA.AperFunction,ComponentPad*%
%ADD17R,2.000000X2.000000*%
%TD*%
%TA.AperFunction,ComponentPad*%
%ADD18C,2.000000*%
%TD*%
%TA.AperFunction,ComponentPad*%
%ADD19C,3.200000*%
%TD*%
%TA.AperFunction,ViaPad*%
%ADD20C,0.600000*%
%TD*%
%TA.AperFunction,Conductor*%
%ADD21C,0.200000*%
%TD*%
G04 APERTURE END LIST*
D10*
%TO.P,D54,1,K*%
%TO.N,Net-(D54-K)*%
X14450000Y-133810000D03*
D11*
%TO.P,D54,2,A*%
%TO.N,Net-(D54-A)*%
X14450000Y-126190000D03*
%TD*%
D12*
%TO.P,SW7,1,1*%
%TO.N,Net-(U1-GPIO9)*%
X140710000Y-48710000D03*
%TO.P,SW7,2,2*%
%TO.N,Net-(D7-A)*%
X134360000Y-51250000D03*
%TD*%
D10*
%TO.P,D20,1,K*%
%TO.N,Net-(D15-K)*%
X176110000Y-76660000D03*
D11*
%TO.P,D20,2,A*%
%TO.N,Net-(D20-A)*%
X176110000Y-69040000D03*
%TD*%
D12*
%TO.P,SW45,1,1*%
%TO.N,Net-(U1-GPIO12)*%
X107420000Y-105870000D03*
%TO.P,SW45,2,2*%
%TO.N,Net-(D45-A)*%
X101070000Y-108410000D03*
%TD*%
D10*
%TO.P,D11,1,K*%
%TO.N,Net-(D1-K)*%
X90600000Y-57600000D03*
D11*
%TO.P,D11,2,A*%
%TO.N,Net-(D11-A)*%
X90600000Y-49980000D03*
%TD*%
D12*
%TO.P,SW58,1,1*%
%TO.N,Net-(U1-GPIO11)*%
X219350000Y-124920000D03*
%TO.P,SW58,2,2*%
%TO.N,Net-(D58-A)*%
X213000000Y-127460000D03*
%TD*%
%TO.P,SW30,1,1*%
%TO.N,Net-(U1-GPIO14)*%
X59760000Y-86780000D03*
%TO.P,SW30,2,2*%
%TO.N,Net-(D30-A)*%
X53410000Y-89320000D03*
%TD*%
D10*
%TO.P,D12,1,K*%
%TO.N,Net-(D1-K)*%
X71720000Y-57600000D03*
D11*
%TO.P,D12,2,A*%
%TO.N,Net-(D12-A)*%
X71720000Y-49980000D03*
%TD*%
D10*
%TO.P,D35,1,K*%
%TO.N,Net-(D29-K)*%
X143160000Y-95670000D03*
D11*
%TO.P,D35,2,A*%
%TO.N,Net-(D35-A)*%
X143160000Y-88050000D03*
%TD*%
D12*
%TO.P,SW49,1,1*%
%TO.N,Net-(U1-GPIO8)*%
X183590000Y-105850000D03*
%TO.P,SW49,2,2*%
%TO.N,Net-(D49-A)*%
X177240000Y-108390000D03*
%TD*%
%TO.P,SW43,1,1*%
%TO.N,Net-(U1-GPIO14)*%
X69270000Y-105860000D03*
%TO.P,SW43,2,2*%
%TO.N,Net-(D43-A)*%
X62920000Y-108400000D03*
%TD*%
D10*
%TO.P,D13,1,K*%
%TO.N,Net-(D1-K)*%
X52390000Y-57600000D03*
D11*
%TO.P,D13,2,A*%
%TO.N,Net-(D13-A)*%
X52390000Y-49980000D03*
%TD*%
D12*
%TO.P,SW18,1,1*%
%TO.N,Net-(U1-GPIO12)*%
X93110000Y-67770000D03*
%TO.P,SW18,2,2*%
%TO.N,Net-(D18-A)*%
X86760000Y-70310000D03*
%TD*%
D10*
%TO.P,D40,1,K*%
%TO.N,Net-(D29-K)*%
X238270000Y-95670000D03*
D11*
%TO.P,D40,2,A*%
%TO.N,Net-(D40-A)*%
X238270000Y-88050000D03*
%TD*%
D10*
%TO.P,D56,1,K*%
%TO.N,Net-(D54-K)*%
X61920000Y-133810000D03*
D11*
%TO.P,D56,2,A*%
%TO.N,Net-(D56-A)*%
X61920000Y-126190000D03*
%TD*%
D10*
%TO.P,D47,1,K*%
%TO.N,Net-(D42-K)*%
X134010000Y-114740000D03*
D11*
%TO.P,D47,2,A*%
%TO.N,Net-(D47-A)*%
X134010000Y-107120000D03*
%TD*%
D12*
%TO.P,SW22,1,1*%
%TO.N,Net-(U1-GPIO8)*%
X169330000Y-67770000D03*
%TO.P,SW22,2,2*%
%TO.N,Net-(D22-A)*%
X162980000Y-70310000D03*
%TD*%
D10*
%TO.P,D55,1,K*%
%TO.N,Net-(D54-K)*%
X37860000Y-133810000D03*
D11*
%TO.P,D55,2,A*%
%TO.N,Net-(D55-A)*%
X37860000Y-126190000D03*
%TD*%
D12*
%TO.P,SW10,1,1*%
%TO.N,Net-(U1-GPIO6)*%
X197870000Y-48710000D03*
%TO.P,SW10,2,2*%
%TO.N,Net-(D10-A)*%
X191520000Y-51250000D03*
%TD*%
%TO.P,SW59,1,1*%
%TO.N,Net-(U1-GPIO10)*%
X243170000Y-124890000D03*
%TO.P,SW59,2,2*%
%TO.N,Net-(D59-A)*%
X236820000Y-127430000D03*
%TD*%
%TO.P,SW57,1,1*%
%TO.N,Net-(U1-GPIO12)*%
X147960000Y-124920000D03*
%TO.P,SW57,2,2*%
%TO.N,Net-(D57-A)*%
X141610000Y-127460000D03*
%TD*%
D10*
%TO.P,D33,1,K*%
%TO.N,Net-(D29-K)*%
X104760000Y-95670000D03*
D11*
%TO.P,D33,2,A*%
%TO.N,Net-(D33-A)*%
X104760000Y-88050000D03*
%TD*%
D10*
%TO.P,D17,1,K*%
%TO.N,Net-(D15-K)*%
X233500000Y-76660000D03*
D11*
%TO.P,D17,2,A*%
%TO.N,Net-(D17-A)*%
X233500000Y-69040000D03*
%TD*%
D10*
%TO.P,D49,1,K*%
%TO.N,Net-(D42-K)*%
X172200000Y-114740000D03*
D11*
%TO.P,D49,2,A*%
%TO.N,Net-(D49-A)*%
X172200000Y-107120000D03*
%TD*%
D10*
%TO.P,D32,1,K*%
%TO.N,Net-(D29-K)*%
X85750000Y-95670000D03*
D11*
%TO.P,D32,2,A*%
%TO.N,Net-(D32-A)*%
X85750000Y-88050000D03*
%TD*%
D10*
%TO.P,D42,1,K*%
%TO.N,Net-(D42-K)*%
X14700000Y-114740000D03*
D11*
%TO.P,D42,2,A*%
%TO.N,Net-(D42-A)*%
X14700000Y-107120000D03*
%TD*%
D12*
%TO.P,SW25,1,1*%
%TO.N,Net-(U1-GPIO0)*%
X226470000Y-67770000D03*
%TO.P,SW25,2,2*%
%TO.N,Net-(D25-A)*%
X220120000Y-70310000D03*
%TD*%
%TO.P,SW52,1,1*%
%TO.N,Net-(U1-GPIO0)*%
X240740000Y-105850000D03*
%TO.P,SW52,2,2*%
%TO.N,Net-(D52-A)*%
X234390000Y-108390000D03*
%TD*%
D10*
%TO.P,D51,1,K*%
%TO.N,Net-(D42-K)*%
X210130000Y-114740000D03*
D11*
%TO.P,D51,2,A*%
%TO.N,Net-(D51-A)*%
X210130000Y-107120000D03*
%TD*%
D10*
%TO.P,D24,1,K*%
%TO.N,Net-(D15-K)*%
X99910000Y-76660000D03*
D11*
%TO.P,D24,2,A*%
%TO.N,Net-(D24-A)*%
X99910000Y-69040000D03*
%TD*%
D10*
%TO.P,D50,1,K*%
%TO.N,Net-(D42-K)*%
X191120000Y-114740000D03*
D11*
%TO.P,D50,2,A*%
%TO.N,Net-(D50-A)*%
X191120000Y-107120000D03*
%TD*%
D10*
%TO.P,D62,1,K*%
%TO.N,Net-(D29-K)*%
X15090000Y-39220000D03*
D11*
%TO.P,D62,2,A*%
%TO.N,Net-(D62-A)*%
X15090000Y-31600000D03*
%TD*%
D12*
%TO.P,SW51,1,1*%
%TO.N,Net-(U1-GPIO6)*%
X221670000Y-105850000D03*
%TO.P,SW51,2,2*%
%TO.N,Net-(D51-A)*%
X215320000Y-108390000D03*
%TD*%
%TO.P,SW26,1,1*%
%TO.N,Net-(U1-GPIO1)*%
X245520000Y-67770000D03*
%TO.P,SW26,2,2*%
%TO.N,Net-(D26-A)*%
X239170000Y-70310000D03*
%TD*%
%TO.P,SW16,1,1*%
%TO.N,Net-(U1-GPIO14)*%
X54980000Y-67770000D03*
%TO.P,SW16,2,2*%
%TO.N,Net-(D16-A)*%
X48630000Y-70310000D03*
%TD*%
%TO.P,SW34,1,1*%
%TO.N,Net-(U1-GPIO10)*%
X135930000Y-86780000D03*
%TO.P,SW34,2,2*%
%TO.N,Net-(D34-A)*%
X129580000Y-89320000D03*
%TD*%
%TO.P,SW28,1,1*%
%TO.N,Net-(U1-GPIO27_ADC1)*%
X288350000Y-67770000D03*
%TO.P,SW28,2,2*%
%TO.N,Net-(D28-A)*%
X282000000Y-70310000D03*
%TD*%
%TO.P,SW60,1,1*%
%TO.N,Net-(U1-GPIO9)*%
X267100000Y-124920000D03*
%TO.P,SW60,2,2*%
%TO.N,Net-(D60-A)*%
X260750000Y-127460000D03*
%TD*%
D10*
%TO.P,D8,1,K*%
%TO.N,Net-(D1-K)*%
X147950000Y-57600000D03*
D11*
%TO.P,D8,2,A*%
%TO.N,Net-(D8-A)*%
X147950000Y-49980000D03*
%TD*%
D12*
%TO.P,SW36,1,1*%
%TO.N,Net-(U1-GPIO8)*%
X174020000Y-86780000D03*
%TO.P,SW36,2,2*%
%TO.N,Net-(D36-A)*%
X167670000Y-89320000D03*
%TD*%
D10*
%TO.P,D6,1,K*%
%TO.N,Net-(D1-K)*%
X185700000Y-57600000D03*
D11*
%TO.P,D6,2,A*%
%TO.N,Net-(D6-A)*%
X185700000Y-49980000D03*
%TD*%
D12*
%TO.P,SW15,1,1*%
%TO.N,Net-(U1-GPIO15)*%
X31170000Y-67770000D03*
%TO.P,SW15,2,2*%
%TO.N,Net-(D15-A)*%
X24820000Y-70310000D03*
%TD*%
%TO.P,SW4,1,1*%
%TO.N,Net-(U1-GPIO12)*%
X83570000Y-48710000D03*
%TO.P,SW4,2,2*%
%TO.N,Net-(D4-A)*%
X77220000Y-51250000D03*
%TD*%
%TO.P,SW38,1,1*%
%TO.N,Net-(U1-GPIO6)*%
X212170000Y-86780000D03*
%TO.P,SW38,2,2*%
%TO.N,Net-(D38-A)*%
X205820000Y-89320000D03*
%TD*%
D10*
%TO.P,D61,1,K*%
%TO.N,Net-(D54-K)*%
X276980000Y-133810000D03*
D11*
%TO.P,D61,2,A*%
%TO.N,Net-(D61-A)*%
X276980000Y-126190000D03*
%TD*%
D10*
%TO.P,D3,1,K*%
%TO.N,Net-(D1-K)*%
X243110000Y-57600000D03*
D11*
%TO.P,D3,2,A*%
%TO.N,Net-(D3-A)*%
X243110000Y-49980000D03*
%TD*%
D12*
%TO.P,SW35,1,1*%
%TO.N,Net-(U1-GPIO9)*%
X154990000Y-86780000D03*
%TO.P,SW35,2,2*%
%TO.N,Net-(D35-A)*%
X148640000Y-89320000D03*
%TD*%
D10*
%TO.P,D41,1,K*%
%TO.N,Net-(D29-K)*%
X257360000Y-95670000D03*
D11*
%TO.P,D41,2,A*%
%TO.N,Net-(D41-A)*%
X257360000Y-88050000D03*
%TD*%
D12*
%TO.P,SW44,1,1*%
%TO.N,Net-(U1-GPIO13)*%
X88350000Y-105880000D03*
%TO.P,SW44,2,2*%
%TO.N,Net-(D44-A)*%
X82000000Y-108420000D03*
%TD*%
D10*
%TO.P,D31,1,K*%
%TO.N,Net-(D29-K)*%
X66660000Y-95670000D03*
D11*
%TO.P,D31,2,A*%
%TO.N,Net-(D31-A)*%
X66660000Y-88050000D03*
%TD*%
D12*
%TO.P,SW31,1,1*%
%TO.N,Net-(U1-GPIO13)*%
X78790000Y-86780000D03*
%TO.P,SW31,2,2*%
%TO.N,Net-(D31-A)*%
X72440000Y-89320000D03*
%TD*%
D10*
%TO.P,D9,1,K*%
%TO.N,Net-(D1-K)*%
X128980000Y-57600000D03*
D11*
%TO.P,D9,2,A*%
%TO.N,Net-(D9-A)*%
X128980000Y-49980000D03*
%TD*%
D10*
%TO.P,D22,1,K*%
%TO.N,Net-(D15-K)*%
X138190000Y-76660000D03*
D11*
%TO.P,D22,2,A*%
%TO.N,Net-(D22-A)*%
X138190000Y-69040000D03*
%TD*%
D10*
%TO.P,D27,1,K*%
%TO.N,Net-(D15-K)*%
X42790000Y-76660000D03*
D11*
%TO.P,D27,2,A*%
%TO.N,Net-(D27-A)*%
X42790000Y-69040000D03*
%TD*%
D12*
%TO.P,SW33,1,1*%
%TO.N,Net-(U1-GPIO11)*%
X116880000Y-86780000D03*
%TO.P,SW33,2,2*%
%TO.N,Net-(D33-A)*%
X110530000Y-89320000D03*
%TD*%
%TO.P,SW23,1,1*%
%TO.N,Net-(U1-GPIO7)*%
X188390000Y-67770000D03*
%TO.P,SW23,2,2*%
%TO.N,Net-(D23-A)*%
X182040000Y-70310000D03*
%TD*%
%TO.P,SW41,1,1*%
%TO.N,Net-(U1-GPIO28_ADC2)*%
X281230000Y-86790000D03*
%TO.P,SW41,2,2*%
%TO.N,Net-(D41-A)*%
X274880000Y-89330000D03*
%TD*%
%TO.P,SW21,1,1*%
%TO.N,Net-(U1-GPIO9)*%
X150280000Y-67770000D03*
%TO.P,SW21,2,2*%
%TO.N,Net-(D21-A)*%
X143930000Y-70310000D03*
%TD*%
D10*
%TO.P,D23,1,K*%
%TO.N,Net-(D15-K)*%
X119030000Y-76660000D03*
D11*
%TO.P,D23,2,A*%
%TO.N,Net-(D23-A)*%
X119030000Y-69040000D03*
%TD*%
D10*
%TO.P,D36,1,K*%
%TO.N,Net-(D29-K)*%
X161750000Y-95670000D03*
D11*
%TO.P,D36,2,A*%
%TO.N,Net-(D36-A)*%
X161750000Y-88050000D03*
%TD*%
D12*
%TO.P,SW17,1,1*%
%TO.N,Net-(U1-GPIO13)*%
X74010000Y-67770000D03*
%TO.P,SW17,2,2*%
%TO.N,Net-(D17-A)*%
X67660000Y-70310000D03*
%TD*%
D10*
%TO.P,D52,1,K*%
%TO.N,Net-(D42-K)*%
X229030000Y-114740000D03*
D11*
%TO.P,D52,2,A*%
%TO.N,Net-(D52-A)*%
X229030000Y-107120000D03*
%TD*%
D10*
%TO.P,D58,1,K*%
%TO.N,Net-(D54-K)*%
X205130000Y-133810000D03*
D11*
%TO.P,D58,2,A*%
%TO.N,Net-(D58-A)*%
X205130000Y-126190000D03*
%TD*%
D12*
%TO.P,SW14,1,1*%
%TO.N,Net-(U1-GPIO27_ADC1)*%
X283590000Y-48710000D03*
%TO.P,SW14,2,2*%
%TO.N,Net-(D14-A)*%
X277240000Y-51250000D03*
%TD*%
D10*
%TO.P,D28,1,K*%
%TO.N,Net-(D15-K)*%
X23950000Y-76660000D03*
D11*
%TO.P,D28,2,A*%
%TO.N,Net-(D28-A)*%
X23950000Y-69040000D03*
%TD*%
D10*
%TO.P,D7,1,K*%
%TO.N,Net-(D1-K)*%
X166980000Y-57600000D03*
D11*
%TO.P,D7,2,A*%
%TO.N,Net-(D7-A)*%
X166980000Y-49980000D03*
%TD*%
D10*
%TO.P,D63,1,K*%
%TO.N,Net-(D42-K)*%
X38500000Y-39190000D03*
D11*
%TO.P,D63,2,A*%
%TO.N,Net-(D63-A)*%
X38500000Y-31570000D03*
%TD*%
D12*
%TO.P,SW19,1,1*%
%TO.N,Net-(U1-GPIO11)*%
X112150000Y-67770000D03*
%TO.P,SW19,2,2*%
%TO.N,Net-(D19-A)*%
X105800000Y-70310000D03*
%TD*%
D10*
%TO.P,D1,1,K*%
%TO.N,Net-(D1-K)*%
X14630000Y-57580000D03*
D11*
%TO.P,D1,2,A*%
%TO.N,Net-(D1-A)*%
X14630000Y-49960000D03*
%TD*%
D12*
%TO.P,SW27,1,1*%
%TO.N,Net-(U1-GPIO28_ADC2)*%
X264570000Y-67770000D03*
%TO.P,SW27,2,2*%
%TO.N,Net-(D27-A)*%
X258220000Y-70310000D03*
%TD*%
D10*
%TO.P,D37,1,K*%
%TO.N,Net-(D29-K)*%
X181020000Y-95670000D03*
D11*
%TO.P,D37,2,A*%
%TO.N,Net-(D37-A)*%
X181020000Y-88050000D03*
%TD*%
D10*
%TO.P,D21,1,K*%
%TO.N,Net-(D15-K)*%
X156670000Y-76660000D03*
D11*
%TO.P,D21,2,A*%
%TO.N,Net-(D21-A)*%
X156670000Y-69040000D03*
%TD*%
D12*
%TO.P,SW12,1,1*%
%TO.N,Net-(U1-GPIO1)*%
X235970000Y-48710000D03*
%TO.P,SW12,2,2*%
%TO.N,Net-(D12-A)*%
X229620000Y-51250000D03*
%TD*%
D10*
%TO.P,D5,1,K*%
%TO.N,Net-(D1-K)*%
X205030000Y-57600000D03*
D11*
%TO.P,D5,2,A*%
%TO.N,Net-(D5-A)*%
X205030000Y-49980000D03*
%TD*%
D12*
%TO.P,SW61,1,1*%
%TO.N,Net-(U1-GPIO8)*%
X290930000Y-124920000D03*
%TO.P,SW61,2,2*%
%TO.N,Net-(D61-A)*%
X284580000Y-127460000D03*
%TD*%
%TO.P,SW8,1,1*%
%TO.N,Net-(U1-GPIO8)*%
X159790000Y-48710000D03*
%TO.P,SW8,2,2*%
%TO.N,Net-(D8-A)*%
X153440000Y-51250000D03*
%TD*%
%TO.P,SW48,1,1*%
%TO.N,Net-(U1-GPIO9)*%
X164550000Y-105860000D03*
%TO.P,SW48,2,2*%
%TO.N,Net-(D48-A)*%
X158200000Y-108400000D03*
%TD*%
D13*
%TO.P,U1,1,GPIO0*%
%TO.N,Net-(U1-GPIO0)*%
X15970000Y-40960000D03*
D14*
%TO.P,U1,2,GPIO1*%
%TO.N,Net-(U1-GPIO1)*%
X18510000Y-40960000D03*
D15*
%TO.P,U1,3,GND*%
%TO.N,GND*%
X21050000Y-40960000D03*
D14*
%TO.P,U1,4,GPIO2*%
%TO.N,unconnected-(U1-GPIO2-Pad4)*%
X23590000Y-40960000D03*
%TO.P,U1,5,GPIO3*%
%TO.N,unconnected-(U1-GPIO3-Pad5)*%
X26130000Y-40960000D03*
%TO.P,U1,6,GPIO4*%
%TO.N,Net-(D1-K)*%
X28670000Y-40960000D03*
%TO.P,U1,7,GPIO5*%
%TO.N,Net-(D15-K)*%
X31210000Y-40960000D03*
D15*
%TO.P,U1,8,GND*%
%TO.N,GND*%
X33750000Y-40960000D03*
D14*
%TO.P,U1,9,GPIO6*%
%TO.N,Net-(U1-GPIO6)*%
X36290000Y-40960000D03*
%TO.P,U1,10,GPIO7*%
%TO.N,Net-(U1-GPIO7)*%
X38830000Y-40960000D03*
%TO.P,U1,11,GPIO8*%
%TO.N,Net-(U1-GPIO8)*%
X41370000Y-40960000D03*
%TO.P,U1,12,GPIO9*%
%TO.N,Net-(U1-GPIO9)*%
X43910000Y-40960000D03*
D15*
%TO.P,U1,13,GND*%
%TO.N,GND*%
X46450000Y-40960000D03*
D14*
%TO.P,U1,14,GPIO10*%
%TO.N,Net-(U1-GPIO10)*%
X48990000Y-40960000D03*
%TO.P,U1,15,GPIO11*%
%TO.N,Net-(U1-GPIO11)*%
X51530000Y-40960000D03*
%TO.P,U1,16,GPIO12*%
%TO.N,Net-(U1-GPIO12)*%
X54070000Y-40960000D03*
%TO.P,U1,17,GPIO13*%
%TO.N,Net-(U1-GPIO13)*%
X56610000Y-40960000D03*
D15*
%TO.P,U1,18,GND*%
%TO.N,GND*%
X59150000Y-40960000D03*
D14*
%TO.P,U1,19,GPIO14*%
%TO.N,Net-(U1-GPIO14)*%
X61690000Y-40960000D03*
%TO.P,U1,20,GPIO15*%
%TO.N,Net-(U1-GPIO15)*%
X64230000Y-40960000D03*
%TO.P,U1,21,GPIO16*%
%TO.N,unconnected-(U1-GPIO16-Pad21)*%
X64230000Y-23180000D03*
%TO.P,U1,22,GPIO17*%
%TO.N,Net-(D29-K)*%
X61690000Y-23180000D03*
D16*
%TO.P,U1,23,GND*%
%TO.N,GND*%
X59150000Y-23180000D03*
D14*
%TO.P,U1,24,GPIO18*%
%TO.N,Net-(D42-K)*%
X56610000Y-23180000D03*
%TO.P,U1,25,GPIO19*%
%TO.N,uncb*%
X54070000Y-23180000D03*
%TO.P,U1,26,GPIO20*%
%TO.N,unca*%
X51530000Y-23180000D03*
%TO.P,U1,27,GPIO21*%
%TO.N,encb*%
X48990000Y-23180000D03*
D16*
%TO.P,U1,28,GND*%
%TO.N,GND*%
X46450000Y-23180000D03*
D14*
%TO.P,U1,29,GPIO22*%
%TO.N,enca*%
X43910000Y-23180000D03*
%TO.P,U1,30,RUN*%
%TO.N,unconnected-(U1-RUN-Pad30)*%
X41370000Y-23180000D03*
%TO.P,U1,31,GPIO26_ADC0*%
%TO.N,Net-(D54-K)*%
X38830000Y-23180000D03*
%TO.P,U1,32,GPIO27_ADC1*%
%TO.N,Net-(U1-GPIO27_ADC1)*%
X36290000Y-23180000D03*
D16*
%TO.P,U1,33,AGND*%
%TO.N,unconnected-(U1-AGND-Pad33)*%
X33750000Y-23180000D03*
D14*
%TO.P,U1,34,GPIO28_ADC2*%
%TO.N,Net-(U1-GPIO28_ADC2)*%
X31210000Y-23180000D03*
%TO.P,U1,35,ADC_VREF*%
%TO.N,unconnected-(U1-ADC_VREF-Pad35)*%
X28670000Y-23180000D03*
%TO.P,U1,36,3V3*%
%TO.N,unconnected-(U1-3V3-Pad36)*%
X26130000Y-23180000D03*
%TO.P,U1,37,3V3_EN*%
%TO.N,unconnected-(U1-3V3_EN-Pad37)*%
X23590000Y-23180000D03*
D16*
%TO.P,U1,38,GND*%
%TO.N,GND*%
X21050000Y-23180000D03*
D14*
%TO.P,U1,39,VSYS*%
%TO.N,unconnected-(U1-VSYS-Pad39)*%
X18510000Y-23180000D03*
%TO.P,U1,40,VBUS*%
%TO.N,unconnected-(U1-VBUS-Pad40)*%
X15970000Y-23180000D03*
%TD*%
D10*
%TO.P,D14,1,K*%
%TO.N,Net-(D1-K)*%
X33260000Y-57600000D03*
D11*
%TO.P,D14,2,A*%
%TO.N,Net-(D14-A)*%
X33260000Y-49980000D03*
%TD*%
D12*
%TO.P,SW50,1,1*%
%TO.N,Net-(U1-GPIO7)*%
X202640000Y-105850000D03*
%TO.P,SW50,2,2*%
%TO.N,Net-(D50-A)*%
X196290000Y-108390000D03*
%TD*%
%TO.P,SW37,1,1*%
%TO.N,Net-(U1-GPIO7)*%
X193120000Y-86780000D03*
%TO.P,SW37,2,2*%
%TO.N,Net-(D37-A)*%
X186770000Y-89320000D03*
%TD*%
D10*
%TO.P,D2,1,K*%
%TO.N,Net-(D1-K)*%
X261940000Y-57600000D03*
D11*
%TO.P,D2,2,A*%
%TO.N,Net-(D2-A)*%
X261940000Y-49980000D03*
%TD*%
D17*
%TO.P,SW62,A,A*%
%TO.N,unca*%
X284130000Y-28000000D03*
D18*
%TO.P,SW62,B,B*%
%TO.N,uncb*%
X284130000Y-33000000D03*
%TO.P,SW62,C,C*%
%TO.N,GND*%
X284130000Y-30500000D03*
D19*
%TO.P,SW62,MP*%
%TO.N,N/C*%
X291630000Y-24900000D03*
X291630000Y-36100000D03*
D18*
%TO.P,SW62,S1,S1*%
%TO.N,Net-(D62-A)*%
X298630000Y-33000000D03*
%TO.P,SW62,S2,S2*%
%TO.N,Net-(U1-GPIO27_ADC1)*%
X298630000Y-28000000D03*
%TD*%
D12*
%TO.P,SW3,1,1*%
%TO.N,Net-(U1-GPIO13)*%
X64510000Y-48710000D03*
%TO.P,SW3,2,2*%
%TO.N,Net-(D3-A)*%
X58160000Y-51250000D03*
%TD*%
%TO.P,SW56,1,1*%
%TO.N,Net-(U1-GPIO13)*%
X76540000Y-124920000D03*
%TO.P,SW56,2,2*%
%TO.N,Net-(D56-A)*%
X70190000Y-127460000D03*
%TD*%
D10*
%TO.P,D38,1,K*%
%TO.N,Net-(D29-K)*%
X200140000Y-95670000D03*
D11*
%TO.P,D38,2,A*%
%TO.N,Net-(D38-A)*%
X200140000Y-88050000D03*
%TD*%
D12*
%TO.P,SW42,1,1*%
%TO.N,Net-(U1-GPIO15)*%
X38290000Y-105812500D03*
%TO.P,SW42,2,2*%
%TO.N,Net-(D42-A)*%
X31940000Y-108352500D03*
%TD*%
%TO.P,SW1,1,1*%
%TO.N,Net-(U1-GPIO15)*%
X26460000Y-48710000D03*
%TO.P,SW1,2,2*%
%TO.N,Net-(D1-A)*%
X20110000Y-51250000D03*
%TD*%
%TO.P,SW24,1,1*%
%TO.N,Net-(U1-GPIO6)*%
X207440000Y-67770000D03*
%TO.P,SW24,2,2*%
%TO.N,Net-(D24-A)*%
X201090000Y-70310000D03*
%TD*%
D10*
%TO.P,D39,1,K*%
%TO.N,Net-(D29-K)*%
X218940000Y-95670000D03*
D11*
%TO.P,D39,2,A*%
%TO.N,Net-(D39-A)*%
X218940000Y-88050000D03*
%TD*%
D12*
%TO.P,SW32,1,1*%
%TO.N,Net-(U1-GPIO12)*%
X97850000Y-86780000D03*
%TO.P,SW32,2,2*%
%TO.N,Net-(D32-A)*%
X91500000Y-89320000D03*
%TD*%
%TO.P,SW6,1,1*%
%TO.N,Net-(U1-GPIO10)*%
X121650000Y-48710000D03*
%TO.P,SW6,2,2*%
%TO.N,Net-(D6-A)*%
X115300000Y-51250000D03*
%TD*%
D10*
%TO.P,D10,1,K*%
%TO.N,Net-(D1-K)*%
X109490000Y-57600000D03*
D11*
%TO.P,D10,2,A*%
%TO.N,Net-(D10-A)*%
X109490000Y-49980000D03*
%TD*%
D12*
%TO.P,SW46,1,1*%
%TO.N,Net-(U1-GPIO11)*%
X126460000Y-105860000D03*
%TO.P,SW46,2,2*%
%TO.N,Net-(D46-A)*%
X120110000Y-108400000D03*
%TD*%
%TO.P,SW2,1,1*%
%TO.N,Net-(U1-GPIO14)*%
X45490000Y-48710000D03*
%TO.P,SW2,2,2*%
%TO.N,Net-(D2-A)*%
X39140000Y-51250000D03*
%TD*%
D10*
%TO.P,D19,1,K*%
%TO.N,Net-(D15-K)*%
X194800000Y-76660000D03*
D11*
%TO.P,D19,2,A*%
%TO.N,Net-(D19-A)*%
X194800000Y-69040000D03*
%TD*%
D10*
%TO.P,D48,1,K*%
%TO.N,Net-(D42-K)*%
X152650000Y-114740000D03*
D11*
%TO.P,D48,2,A*%
%TO.N,Net-(D48-A)*%
X152650000Y-107120000D03*
%TD*%
D12*
%TO.P,SW54,1,1*%
%TO.N,Net-(U1-GPIO15)*%
X28750000Y-124920000D03*
%TO.P,SW54,2,2*%
%TO.N,Net-(D54-A)*%
X22400000Y-127460000D03*
%TD*%
D10*
%TO.P,D15,1,K*%
%TO.N,Net-(D15-K)*%
X271480000Y-76600000D03*
D11*
%TO.P,D15,2,A*%
%TO.N,Net-(D15-A)*%
X271480000Y-68980000D03*
%TD*%
D10*
%TO.P,D4,1,K*%
%TO.N,Net-(D1-K)*%
X223930000Y-57600000D03*
D11*
%TO.P,D4,2,A*%
%TO.N,Net-(D4-A)*%
X223930000Y-49980000D03*
%TD*%
D10*
%TO.P,D25,1,K*%
%TO.N,Net-(D15-K)*%
X80950000Y-76660000D03*
D11*
%TO.P,D25,2,A*%
%TO.N,Net-(D25-A)*%
X80950000Y-69040000D03*
%TD*%
D10*
%TO.P,D44,1,K*%
%TO.N,Net-(D42-K)*%
X76660000Y-114740000D03*
D11*
%TO.P,D44,2,A*%
%TO.N,Net-(D44-A)*%
X76660000Y-107120000D03*
%TD*%
D10*
%TO.P,D18,1,K*%
%TO.N,Net-(D15-K)*%
X214240000Y-76660000D03*
D11*
%TO.P,D18,2,A*%
%TO.N,Net-(D18-A)*%
X214240000Y-69040000D03*
%TD*%
D10*
%TO.P,D34,1,K*%
%TO.N,Net-(D29-K)*%
X123620000Y-95670000D03*
D11*
%TO.P,D34,2,A*%
%TO.N,Net-(D34-A)*%
X123620000Y-88050000D03*
%TD*%
D10*
%TO.P,D29,1,K*%
%TO.N,Net-(D29-K)*%
X14440000Y-95670000D03*
D11*
%TO.P,D29,2,A*%
%TO.N,Net-(D29-A)*%
X14440000Y-88050000D03*
%TD*%
D10*
%TO.P,D16,1,K*%
%TO.N,Net-(D15-K)*%
X252260000Y-76660000D03*
D11*
%TO.P,D16,2,A*%
%TO.N,Net-(D16-A)*%
X252260000Y-69040000D03*
%TD*%
D12*
%TO.P,SW53,1,1*%
%TO.N,Net-(U1-GPIO1)*%
X276480000Y-105850000D03*
%TO.P,SW53,2,2*%
%TO.N,Net-(D53-A)*%
X270130000Y-108390000D03*
%TD*%
D10*
%TO.P,D26,1,K*%
%TO.N,Net-(D15-K)*%
X61760000Y-76660000D03*
D11*
%TO.P,D26,2,A*%
%TO.N,Net-(D26-A)*%
X61760000Y-69040000D03*
%TD*%
D10*
%TO.P,D46,1,K*%
%TO.N,Net-(D42-K)*%
X114740000Y-114740000D03*
D11*
%TO.P,D46,2,A*%
%TO.N,Net-(D46-A)*%
X114740000Y-107120000D03*
%TD*%
D12*
%TO.P,SW13,1,1*%
%TO.N,Net-(U1-GPIO28_ADC2)*%
X255020000Y-48710000D03*
%TO.P,SW13,2,2*%
%TO.N,Net-(D13-A)*%
X248670000Y-51250000D03*
%TD*%
D10*
%TO.P,D60,1,K*%
%TO.N,Net-(D54-K)*%
X252930000Y-133810000D03*
D11*
%TO.P,D60,2,A*%
%TO.N,Net-(D60-A)*%
X252930000Y-126190000D03*
%TD*%
D12*
%TO.P,SW9,1,1*%
%TO.N,Net-(U1-GPIO7)*%
X178830000Y-48710000D03*
%TO.P,SW9,2,2*%
%TO.N,Net-(D9-A)*%
X172480000Y-51250000D03*
%TD*%
%TO.P,SW11,1,1*%
%TO.N,Net-(U1-GPIO0)*%
X216900000Y-48710000D03*
%TO.P,SW11,2,2*%
%TO.N,Net-(D11-A)*%
X210550000Y-51250000D03*
%TD*%
%TO.P,SW47,1,1*%
%TO.N,Net-(U1-GPIO10)*%
X145510000Y-105860000D03*
%TO.P,SW47,2,2*%
%TO.N,Net-(D47-A)*%
X139160000Y-108400000D03*
%TD*%
%TO.P,SW20,1,1*%
%TO.N,Net-(U1-GPIO10)*%
X131230000Y-67770000D03*
%TO.P,SW20,2,2*%
%TO.N,Net-(D20-A)*%
X124880000Y-70310000D03*
%TD*%
D10*
%TO.P,D30,1,K*%
%TO.N,Net-(D29-K)*%
X47490000Y-95670000D03*
D11*
%TO.P,D30,2,A*%
%TO.N,Net-(D30-A)*%
X47490000Y-88050000D03*
%TD*%
D10*
%TO.P,D57,1,K*%
%TO.N,Net-(D54-K)*%
X85970000Y-133810000D03*
D11*
%TO.P,D57,2,A*%
%TO.N,Net-(D57-A)*%
X85970000Y-126190000D03*
%TD*%
D12*
%TO.P,SW55,1,1*%
%TO.N,Net-(U1-GPIO14)*%
X52540000Y-124920000D03*
%TO.P,SW55,2,2*%
%TO.N,Net-(D55-A)*%
X46190000Y-127460000D03*
%TD*%
%TO.P,SW39,1,1*%
%TO.N,Net-(U1-GPIO0)*%
X231210000Y-86780000D03*
%TO.P,SW39,2,2*%
%TO.N,Net-(D39-A)*%
X224860000Y-89320000D03*
%TD*%
D10*
%TO.P,D43,1,K*%
%TO.N,Net-(D42-K)*%
X57550000Y-114740000D03*
D11*
%TO.P,D43,2,A*%
%TO.N,Net-(D43-A)*%
X57550000Y-107120000D03*
%TD*%
D10*
%TO.P,D45,1,K*%
%TO.N,Net-(D42-K)*%
X95780000Y-114740000D03*
D11*
%TO.P,D45,2,A*%
%TO.N,Net-(D45-A)*%
X95780000Y-107120000D03*
%TD*%
D17*
%TO.P,SW63,A,A*%
%TO.N,enca*%
X261460000Y-27760000D03*
D18*
%TO.P,SW63,B,B*%
%TO.N,encb*%
X261460000Y-32760000D03*
%TO.P,SW63,C,C*%
%TO.N,GND*%
X261460000Y-30260000D03*
D19*
%TO.P,SW63,MP*%
%TO.N,N/C*%
X268960000Y-24660000D03*
X268960000Y-35860000D03*
D18*
%TO.P,SW63,S1,S1*%
%TO.N,Net-(D63-A)*%
X275960000Y-32760000D03*
%TO.P,SW63,S2,S2*%
%TO.N,Net-(U1-GPIO27_ADC1)*%
X275960000Y-27760000D03*
%TD*%
D10*
%TO.P,D53,1,K*%
%TO.N,Net-(D42-K)*%
X248250000Y-114740000D03*
D11*
%TO.P,D53,2,A*%
%TO.N,Net-(D53-A)*%
X248250000Y-107120000D03*
%TD*%
D12*
%TO.P,SW5,1,1*%
%TO.N,Net-(U1-GPIO11)*%
X102600000Y-48710000D03*
%TO.P,SW5,2,2*%
%TO.N,Net-(D5-A)*%
X96250000Y-51250000D03*
%TD*%
%TO.P,SW40,1,1*%
%TO.N,Net-(U1-GPIO1)*%
X250270000Y-86780000D03*
%TO.P,SW40,2,2*%
%TO.N,Net-(D40-A)*%
X243920000Y-89320000D03*
%TD*%
%TO.P,SW29,1,1*%
%TO.N,Net-(U1-GPIO15)*%
X33560000Y-86780000D03*
%TO.P,SW29,2,2*%
%TO.N,Net-(D29-A)*%
X27210000Y-89320000D03*
%TD*%
D10*
%TO.P,D59,1,K*%
%TO.N,Net-(D54-K)*%
X229030000Y-133810000D03*
D11*
%TO.P,D59,2,A*%
%TO.N,Net-(D59-A)*%
X229030000Y-126190000D03*
%TD*%
D20*
%TO.N,Net-(D29-K)*%
X61500000Y-26400000D03*
X61500000Y-28900000D03*
X268500000Y-53000000D03*
%TO.N,Net-(D42-K)*%
X56476692Y-26299000D03*
X65500000Y-56000000D03*
%TO.N,Net-(U1-GPIO27_ADC1)*%
X71500000Y-27500000D03*
X56500000Y-27500000D03*
%TO.N,uncb*%
X54000000Y-25500000D03*
%TO.N,GND*%
X63000000Y-27600000D03*
X63000000Y-26400000D03*
%TD*%
D21*
%TO.N,Net-(U1-GPIO11)*%
X133891000Y-113291000D02*
X206479000Y-113291000D01*
%TO.N,Net-(D29-K)*%
X275079000Y-106430314D02*
X275899686Y-107251000D01*
X259679000Y-87067686D02*
X259679000Y-68176184D01*
X61500000Y-29650057D02*
X52969000Y-38181057D01*
X61690000Y-24810000D02*
X61500000Y-25000000D01*
X277060314Y-107251000D02*
X277881000Y-106430314D01*
X257360000Y-95670000D02*
X268120314Y-106430314D01*
X61500000Y-25000000D02*
X61500000Y-26400000D01*
X277881000Y-105269686D02*
X259679000Y-87067686D01*
X65189000Y-94199000D02*
X66660000Y-95670000D01*
X277881000Y-106430314D02*
X277881000Y-105269686D01*
X268500000Y-59355184D02*
X268500000Y-53000000D01*
X52969000Y-48113816D02*
X65189000Y-60333816D01*
X61690000Y-23180000D02*
X61690000Y-24810000D01*
X259679000Y-68176184D02*
X268500000Y-59355184D01*
X52969000Y-38181057D02*
X52969000Y-48113816D01*
X275899686Y-107251000D02*
X277060314Y-107251000D01*
X65189000Y-60333816D02*
X65189000Y-94199000D01*
X61500000Y-28900000D02*
X61500000Y-29650057D01*
X268120314Y-106430314D02*
X275079000Y-106430314D01*
%TO.N,Net-(D42-K)*%
X261592314Y-126321000D02*
X250971314Y-115700000D01*
X276686736Y-124339686D02*
X274705422Y-126321000D01*
X56610000Y-26165692D02*
X56476692Y-26299000D01*
X277668050Y-125321000D02*
X276686736Y-124339686D01*
X54673816Y-126321000D02*
X51959686Y-126321000D01*
X282631000Y-86209686D02*
X282631000Y-87370314D01*
X51959686Y-126321000D02*
X51139000Y-125500314D01*
X289349686Y-125321000D02*
X277668050Y-125321000D01*
X65590000Y-70351530D02*
X69850314Y-74611844D01*
X250971314Y-115700000D02*
X248560000Y-115700000D01*
X69850314Y-74611844D02*
X69850314Y-104459000D01*
X290349686Y-126321000D02*
X289349686Y-125321000D01*
X292331000Y-124339686D02*
X292331000Y-125500314D01*
X70671000Y-110323816D02*
X54673816Y-126321000D01*
X281810314Y-88191000D02*
X281810314Y-121614744D01*
X279376100Y-82954786D02*
X282631000Y-86209686D01*
X289606058Y-121614744D02*
X292331000Y-124339686D01*
X248560000Y-115700000D02*
X248560000Y-115050000D01*
X70671000Y-105279686D02*
X70671000Y-110323816D01*
X65590000Y-56090000D02*
X65590000Y-70351530D01*
X248560000Y-115050000D02*
X248250000Y-114740000D01*
X279376100Y-61676100D02*
X279376100Y-82954786D01*
X51139000Y-121151000D02*
X57550000Y-114740000D01*
X256890000Y-39190000D02*
X279376100Y-61676100D01*
X51139000Y-125500314D02*
X51139000Y-121151000D01*
X292331000Y-125500314D02*
X291510314Y-126321000D01*
X69850314Y-104459000D02*
X70671000Y-105279686D01*
X281810314Y-121614744D02*
X289606058Y-121614744D01*
X274705422Y-126321000D02*
X261592314Y-126321000D01*
X65500000Y-56000000D02*
X65590000Y-56090000D01*
X56610000Y-23180000D02*
X56610000Y-26165692D01*
X291510314Y-126321000D02*
X290349686Y-126321000D01*
X282631000Y-87370314D02*
X281810314Y-88191000D01*
%TO.N,Net-(D63-A)*%
X269062000Y-37910000D02*
X275960000Y-37910000D01*
X256890000Y-31570000D02*
X262722000Y-31570000D01*
X262722000Y-31570000D02*
X269062000Y-37910000D01*
%TO.N,Net-(U1-GPIO15)*%
X26460000Y-63060000D02*
X31170000Y-67770000D01*
X26460000Y-48710000D02*
X26460000Y-63060000D01*
X38290000Y-105812500D02*
X38290000Y-115380000D01*
X31170000Y-84390000D02*
X33560000Y-86780000D01*
X38290000Y-115380000D02*
X28750000Y-124920000D01*
X33560000Y-86780000D02*
X33560000Y-101082500D01*
X33560000Y-101082500D02*
X38290000Y-105812500D01*
X31170000Y-67770000D02*
X31170000Y-84390000D01*
%TO.N,Net-(U1-GPIO14)*%
X69270000Y-105860000D02*
X67714366Y-105860000D01*
X59760000Y-86780000D02*
X59760000Y-96350000D01*
X59760000Y-96350000D02*
X69270000Y-105860000D01*
X54980000Y-67770000D02*
X54980000Y-82000000D01*
X67714366Y-105860000D02*
X64379000Y-109195366D01*
X64379000Y-109195366D02*
X64379000Y-113081000D01*
X64379000Y-113081000D02*
X52540000Y-124920000D01*
X54980000Y-82000000D02*
X59760000Y-86780000D01*
X45490000Y-48710000D02*
X45490000Y-58280000D01*
X45490000Y-58280000D02*
X54980000Y-67770000D01*
%TO.N,Net-(U1-GPIO13)*%
X79250000Y-86780000D02*
X78790000Y-86780000D01*
X74010000Y-57960000D02*
X64760000Y-48710000D01*
X76540000Y-124920000D02*
X88350000Y-113110000D01*
X64760000Y-48710000D02*
X64510000Y-48710000D01*
X74010000Y-67770000D02*
X74010000Y-57960000D01*
X78790000Y-86780000D02*
X78790000Y-72550000D01*
X88350000Y-95880000D02*
X79250000Y-86780000D01*
X78790000Y-72550000D02*
X74010000Y-67770000D01*
X88350000Y-113110000D02*
X88350000Y-105880000D01*
X88350000Y-105880000D02*
X88350000Y-95880000D01*
%TO.N,Net-(U1-GPIO12)*%
X127081000Y-124920000D02*
X147960000Y-124920000D01*
X108031000Y-105870000D02*
X127081000Y-124920000D01*
X93110000Y-67770000D02*
X93110000Y-82040000D01*
X60419000Y-47309000D02*
X54070000Y-40960000D01*
X82169000Y-47309000D02*
X60419000Y-47309000D01*
X93110000Y-58250000D02*
X93110000Y-67770000D01*
X107420000Y-105870000D02*
X108031000Y-105870000D01*
X83570000Y-48710000D02*
X82169000Y-47309000D01*
X97850000Y-96300000D02*
X107420000Y-105870000D01*
X93110000Y-82040000D02*
X97850000Y-86780000D01*
X97850000Y-86780000D02*
X97850000Y-96300000D01*
%TO.N,Net-(U1-GPIO11)*%
X206479000Y-113291000D02*
X218108000Y-124920000D01*
X126460000Y-105860000D02*
X133891000Y-113291000D01*
X102600000Y-48710000D02*
X102600000Y-58220000D01*
X116880000Y-96280000D02*
X126460000Y-105860000D01*
X102600000Y-58220000D02*
X112150000Y-67770000D01*
X116880000Y-72500000D02*
X116880000Y-86780000D01*
X112150000Y-67770000D02*
X116880000Y-72500000D01*
X218108000Y-124920000D02*
X219350000Y-124920000D01*
X116880000Y-86780000D02*
X116880000Y-96280000D01*
%TO.N,Net-(U1-GPIO10)*%
X195744654Y-109956184D02*
X197749000Y-109956184D01*
X131230000Y-82080000D02*
X135930000Y-86780000D01*
X176659686Y-109791000D02*
X178669000Y-109791000D01*
X199126184Y-108579000D02*
X210000530Y-108579000D01*
X131230000Y-67770000D02*
X131230000Y-82080000D01*
X162568686Y-105860000D02*
X165679000Y-108970314D01*
X131230000Y-58290000D02*
X131230000Y-67770000D01*
X226311530Y-124890000D02*
X243170000Y-124890000D01*
X135930000Y-96280000D02*
X145510000Y-105860000D01*
X194367470Y-108579000D02*
X195744654Y-109956184D01*
X121650000Y-48710000D02*
X131230000Y-58290000D01*
X175839000Y-108970314D02*
X176659686Y-109791000D01*
X165679000Y-108970314D02*
X175839000Y-108970314D01*
X135930000Y-86780000D02*
X135930000Y-96280000D01*
X145510000Y-105860000D02*
X162568686Y-105860000D01*
X178669000Y-109791000D02*
X179881000Y-108579000D01*
X179881000Y-108579000D02*
X194367470Y-108579000D01*
X210000530Y-108579000D02*
X226311530Y-124890000D01*
X197749000Y-109956184D02*
X199126184Y-108579000D01*
%TO.N,Net-(U1-GPIO9)*%
X208441950Y-107251000D02*
X209673950Y-106019000D01*
X154990000Y-86780000D02*
X164550000Y-96340000D01*
X223194343Y-109355657D02*
X233374343Y-109355657D01*
X209673950Y-106019000D02*
X219857686Y-106019000D01*
X164550000Y-96340000D02*
X164550000Y-105860000D01*
X248124184Y-108579000D02*
X264465184Y-124920000D01*
X219857686Y-106019000D02*
X223194343Y-109355657D01*
X202059686Y-107251000D02*
X208441950Y-107251000D01*
X150280000Y-58280000D02*
X150280000Y-67770000D01*
X181618686Y-105860000D02*
X183009686Y-107251000D01*
X164550000Y-105860000D02*
X181618686Y-105860000D01*
X183009686Y-107251000D02*
X189431950Y-107251000D01*
X264465184Y-124920000D02*
X267100000Y-124920000D01*
X140710000Y-48710000D02*
X150280000Y-58280000D01*
X190663950Y-106019000D02*
X200827686Y-106019000D01*
X235589000Y-109791000D02*
X236801000Y-108579000D01*
X233374343Y-109355657D02*
X233809686Y-109791000D01*
X236801000Y-108579000D02*
X248124184Y-108579000D01*
X154990000Y-72480000D02*
X154990000Y-86780000D01*
X233809686Y-109791000D02*
X235589000Y-109791000D01*
X189431950Y-107251000D02*
X190663950Y-106019000D01*
X200827686Y-106019000D02*
X202059686Y-107251000D01*
X150280000Y-67770000D02*
X154990000Y-72480000D01*
%TO.N,Net-(U1-GPIO8)*%
X183590000Y-94794366D02*
X183590000Y-105850000D01*
X217480314Y-47309000D02*
X234731000Y-64559686D01*
X261262935Y-102054000D02*
X262817065Y-102054000D01*
X263916000Y-103152935D02*
X263916000Y-104287530D01*
X177429000Y-49290314D02*
X177429000Y-48129686D01*
X262817065Y-102054000D02*
X263916000Y-103152935D01*
X234731000Y-75522065D02*
X261262935Y-102054000D01*
X178249686Y-47309000D02*
X217480314Y-47309000D01*
X284548470Y-124920000D02*
X290930000Y-124920000D01*
X183590000Y-105850000D02*
X179410314Y-101670314D01*
X179410314Y-101670314D02*
X179410314Y-51271628D01*
X165091530Y-67770000D02*
X169330000Y-67770000D01*
X175575634Y-86780000D02*
X183590000Y-94794366D01*
X263916000Y-104287530D02*
X284548470Y-124920000D01*
X179410314Y-51271628D02*
X177429000Y-49290314D01*
X159790000Y-62468470D02*
X165091530Y-67770000D01*
X174020000Y-72460000D02*
X174020000Y-86780000D01*
X174020000Y-86780000D02*
X175575634Y-86780000D01*
X234731000Y-64559686D02*
X234731000Y-75522065D01*
X169330000Y-67770000D02*
X174020000Y-72460000D01*
X177429000Y-48129686D02*
X178249686Y-47309000D01*
X159790000Y-48710000D02*
X159790000Y-62468470D01*
%TO.N,Net-(U1-GPIO7)*%
X202640000Y-95930000D02*
X193490000Y-86780000D01*
X188390000Y-57970000D02*
X179130000Y-48710000D01*
X179130000Y-48710000D02*
X178830000Y-48710000D01*
X193120000Y-86780000D02*
X193120000Y-72500000D01*
X188390000Y-67770000D02*
X188390000Y-57970000D01*
X202640000Y-105850000D02*
X202640000Y-95930000D01*
X193490000Y-86780000D02*
X193120000Y-86780000D01*
X193120000Y-72500000D02*
X188390000Y-67770000D01*
%TO.N,Net-(U1-GPIO6)*%
X207440000Y-82050000D02*
X212170000Y-86780000D01*
X197870000Y-48710000D02*
X197870000Y-58200000D01*
X197870000Y-58200000D02*
X207440000Y-67770000D01*
X221670000Y-96280000D02*
X221670000Y-105850000D01*
X212170000Y-86780000D02*
X221670000Y-96280000D01*
X207440000Y-67770000D02*
X207440000Y-82050000D01*
%TO.N,Net-(U1-GPIO0)*%
X226470000Y-58280000D02*
X216900000Y-48710000D01*
X226470000Y-82040000D02*
X226470000Y-67770000D01*
X240740000Y-105850000D02*
X240740000Y-95580000D01*
X240740000Y-95580000D02*
X231940000Y-86780000D01*
X231940000Y-86780000D02*
X231210000Y-86780000D01*
X231210000Y-86780000D02*
X226470000Y-82040000D01*
X226470000Y-67770000D02*
X226470000Y-58280000D01*
%TO.N,Net-(U1-GPIO1)*%
X235970000Y-58220000D02*
X245520000Y-67770000D01*
X250270000Y-86780000D02*
X254925000Y-91435000D01*
X254925000Y-91435000D02*
X262065000Y-91435000D01*
X235970000Y-48710000D02*
X235970000Y-58220000D01*
X245520000Y-67770000D02*
X245520000Y-82030000D01*
X262065000Y-91435000D02*
X276480000Y-105850000D01*
X245520000Y-82030000D02*
X250270000Y-86780000D01*
%TO.N,Net-(U1-GPIO28_ADC2)*%
X279210000Y-86790000D02*
X281230000Y-86790000D01*
X264570000Y-67770000D02*
X264570000Y-72150000D01*
X264570000Y-72150000D02*
X279210000Y-86790000D01*
%TO.N,Net-(U1-GPIO27_ADC1)*%
X275960000Y-32910000D02*
X270550000Y-27500000D01*
X277261000Y-42381000D02*
X277261000Y-34211000D01*
X283590000Y-46601580D02*
X297041580Y-33150000D01*
X40610000Y-27500000D02*
X36290000Y-23180000D01*
X283590000Y-48710000D02*
X277261000Y-42381000D01*
X283590000Y-63010000D02*
X288350000Y-67770000D01*
X283590000Y-48710000D02*
X283590000Y-46601580D01*
X56500000Y-27500000D02*
X40610000Y-27500000D01*
X270550000Y-27500000D02*
X71500000Y-27500000D01*
X283590000Y-48710000D02*
X283590000Y-63010000D01*
X277261000Y-34211000D02*
X275960000Y-32910000D01*
X297041580Y-33150000D02*
X298630000Y-33150000D01*
%TO.N,uncb*%
X272280000Y-18698000D02*
X44294950Y-18698000D01*
X42132950Y-25500000D02*
X54000000Y-25500000D01*
X44294950Y-18698000D02*
X40269000Y-22723950D01*
X285431000Y-36849000D02*
X285431000Y-31849000D01*
X40269000Y-22723950D02*
X40269000Y-23636050D01*
X40269000Y-23636050D02*
X42132950Y-25500000D01*
X285431000Y-31849000D02*
X272280000Y-18698000D01*
X284130000Y-38150000D02*
X285431000Y-36849000D01*
%TO.N,unca*%
X47556000Y-23989594D02*
X47556000Y-22641100D01*
X42809000Y-21623900D02*
X42809000Y-23636050D01*
X45333900Y-19099000D02*
X42809000Y-21623900D01*
X47556000Y-22641100D02*
X48296100Y-21901000D01*
X47259594Y-24286000D02*
X47556000Y-23989594D01*
X50251000Y-21901000D02*
X51530000Y-23180000D01*
X284130000Y-33150000D02*
X270079000Y-19099000D01*
X48296100Y-21901000D02*
X50251000Y-21901000D01*
X270079000Y-19099000D02*
X45333900Y-19099000D01*
X43458950Y-24286000D02*
X47259594Y-24286000D01*
X42809000Y-23636050D02*
X43458950Y-24286000D01*
%TO.N,GND*%
X59111000Y-28299000D02*
X46450000Y-40960000D01*
X64686050Y-24281000D02*
X63000000Y-24281000D01*
X46450000Y-23180000D02*
X48130000Y-21500000D01*
X58500000Y-22530000D02*
X59150000Y-23180000D01*
X21050000Y-40960000D02*
X21050000Y-23180000D01*
X62101000Y-28651057D02*
X61748943Y-28299000D01*
X63000000Y-24281000D02*
X63000000Y-20960050D01*
X62101000Y-38009000D02*
X62101000Y-28651057D01*
X45349000Y-39859000D02*
X34851000Y-39859000D01*
X75815050Y-35410000D02*
X64686050Y-24281000D01*
X62019975Y-20310025D02*
X59150000Y-23180000D01*
X63000000Y-37110000D02*
X63000000Y-27600000D01*
X62019975Y-19980025D02*
X62019975Y-20310025D01*
X22151000Y-39859000D02*
X21050000Y-40960000D01*
X59150000Y-40960000D02*
X63000000Y-37110000D01*
X58500000Y-21500000D02*
X58500000Y-22530000D01*
X46450000Y-40960000D02*
X45349000Y-39859000D01*
X63000000Y-20960050D02*
X62019975Y-19980025D01*
X261460000Y-35410000D02*
X75815050Y-35410000D01*
X48130000Y-21500000D02*
X58500000Y-21500000D01*
X63000000Y-26400000D02*
X63000000Y-24281000D01*
X59150000Y-40960000D02*
X62101000Y-38009000D01*
X34851000Y-39859000D02*
X33750000Y-40960000D01*
X61748943Y-28299000D02*
X59111000Y-28299000D01*
X32649000Y-39859000D02*
X22151000Y-39859000D01*
X33750000Y-40960000D02*
X32649000Y-39859000D01*
%TO.N,encb*%
X66492950Y-27000000D02*
X77402950Y-37910000D01*
X52810000Y-27000000D02*
X56150057Y-27000000D01*
X48990000Y-23180000D02*
X50909000Y-25099000D01*
X56251057Y-26899000D02*
X56748943Y-26899000D01*
X53751057Y-26101000D02*
X53551057Y-25901000D01*
X54601000Y-25251057D02*
X54601000Y-25748943D01*
X56849943Y-27000000D02*
X66492950Y-27000000D01*
X54248943Y-26101000D02*
X53751057Y-26101000D01*
X51711000Y-25901000D02*
X52810000Y-27000000D01*
X53751057Y-24899000D02*
X54248943Y-24899000D01*
X56150057Y-27000000D02*
X56251057Y-26899000D01*
X56748943Y-26899000D02*
X56849943Y-27000000D01*
X53551057Y-25901000D02*
X51711000Y-25901000D01*
X54248943Y-24899000D02*
X54601000Y-25251057D01*
X77402950Y-37910000D02*
X261460000Y-37910000D01*
X53551057Y-25099000D02*
X53751057Y-24899000D01*
X54601000Y-25748943D02*
X54248943Y-26101000D01*
X50909000Y-25099000D02*
X53551057Y-25099000D01*
%TO.N,enca*%
X261460000Y-32910000D02*
X75517050Y-32910000D01*
X62107050Y-19500000D02*
X45500000Y-19500000D01*
X45500000Y-19500000D02*
X45500000Y-21590000D01*
X45500000Y-21590000D02*
X43910000Y-23180000D01*
X75517050Y-32910000D02*
X62107050Y-19500000D01*
%TD*%
M02*
