M48
; DRILL file {KiCad 9.0.0} date 2025-06-14T23:29:44+0530
; FORMAT={-:-/ absolute / metric / decimal}
; #@! TF.CreationDate,2025-06-14T23:29:44+05:30
; #@! TF.GenerationSoftware,Kicad,Pcbnew,9.0.0
; #@! TF.FileFunction,NonPlated,1,2,NPTH
FMAT,2
METRIC
; #@! TA.AperFunction,NonPlated,NPTH,ComponentDrill
T1C1.700
; #@! TA.AperFunction,NonPlated,NPTH,ComponentDrill
T2C3.050
; #@! TA.AperFunction,NonPlated,NPTH,ComponentDrill
T3C4.000
%
G90
G05
T1
X18.84Y-53.79
X21.13Y-130.0
X23.55Y-72.85
X25.94Y-91.86
X29.0Y-53.79
X30.67Y-110.892
X31.29Y-130.0
X33.71Y-72.85
X36.1Y-91.86
X37.87Y-53.79
X40.83Y-110.892
X44.92Y-130.0
X47.36Y-72.85
X48.03Y-53.79
X52.14Y-91.86
X55.08Y-130.0
X56.89Y-53.79
X57.52Y-72.85
X61.65Y-110.94
X62.3Y-91.86
X66.39Y-72.85
X67.05Y-53.79
X68.92Y-130.0
X71.17Y-91.86
X71.81Y-110.94
X75.95Y-53.79
X76.55Y-72.85
X79.08Y-130.0
X80.73Y-110.96
X81.33Y-91.86
X85.49Y-72.85
X86.11Y-53.79
X90.23Y-91.86
X90.89Y-110.96
X94.98Y-53.79
X95.65Y-72.85
X99.8Y-110.95
X100.39Y-91.86
X104.53Y-72.85
X105.14Y-53.79
X109.26Y-91.86
X109.96Y-110.95
X114.03Y-53.79
X114.69Y-72.85
X118.84Y-110.94
X119.42Y-91.86
X123.61Y-72.85
X124.19Y-53.79
X128.31Y-91.86
X129.0Y-110.94
X133.09Y-53.79
X133.77Y-72.85
X137.89Y-110.94
X138.47Y-91.86
X140.34Y-130.0
X142.66Y-72.85
X143.25Y-53.79
X147.37Y-91.86
X148.05Y-110.94
X150.5Y-130.0
X152.17Y-53.79
X152.82Y-72.85
X156.93Y-110.94
X157.53Y-91.86
X161.71Y-72.85
X162.33Y-53.79
X166.4Y-91.86
X167.09Y-110.94
X171.21Y-53.79
X171.87Y-72.85
X175.97Y-110.93
X176.56Y-91.86
X180.77Y-72.85
X181.37Y-53.79
X185.5Y-91.86
X186.13Y-110.93
X190.25Y-53.79
X190.93Y-72.85
X195.02Y-110.93
X195.66Y-91.86
X199.82Y-72.85
X200.41Y-53.79
X204.55Y-91.86
X205.18Y-110.93
X209.28Y-53.79
X209.98Y-72.85
X211.73Y-130.0
X214.05Y-110.93
X214.71Y-91.86
X218.85Y-72.85
X219.44Y-53.79
X221.89Y-130.0
X223.59Y-91.86
X224.21Y-110.93
X228.35Y-53.79
X229.01Y-72.85
X233.12Y-110.93
X233.75Y-91.86
X235.55Y-129.97
X237.9Y-72.85
X238.51Y-53.79
X242.65Y-91.86
X243.28Y-110.93
X245.71Y-129.97
X247.4Y-53.79
X248.06Y-72.85
X252.81Y-91.86
X256.95Y-72.85
X257.56Y-53.79
X259.48Y-130.0
X267.11Y-72.85
X268.86Y-110.93
X269.64Y-130.0
X273.61Y-91.87
X275.97Y-53.79
X279.02Y-110.93
X280.73Y-72.85
X283.31Y-130.0
X283.77Y-91.87
X286.13Y-53.79
X290.89Y-72.85
X293.47Y-130.0
T2
X23.85Y-103.892
X47.65Y-103.892
X95.42Y-123.0
X195.42Y-123.0
X262.04Y-103.93
X266.79Y-84.87
X269.15Y-46.79
X285.84Y-103.93
X290.59Y-84.87
X292.95Y-46.79
T3
X23.85Y-119.132
X23.92Y-53.79
X26.21Y-130.0
X28.63Y-72.85
X31.02Y-91.86
X35.75Y-110.892
X42.95Y-53.79
X47.65Y-119.132
X50.0Y-130.0
X52.44Y-72.85
X57.22Y-91.86
X61.97Y-53.79
X66.73Y-110.94
X71.47Y-72.85
X74.0Y-130.0
X76.25Y-91.86
X81.03Y-53.79
X85.81Y-110.96
X90.57Y-72.85
X95.31Y-91.86
X95.42Y-138.24
X100.06Y-53.79
X104.88Y-110.95
X109.61Y-72.85
X114.34Y-91.86
X119.11Y-53.79
X123.92Y-110.94
X128.69Y-72.85
X133.39Y-91.86
X138.17Y-53.79
X142.97Y-110.94
X145.42Y-130.0
X147.74Y-72.85
X152.45Y-91.86
X157.25Y-53.79
X162.01Y-110.94
X166.79Y-72.85
X171.48Y-91.86
X176.29Y-53.79
X181.05Y-110.93
X185.85Y-72.85
X190.58Y-91.86
X195.33Y-53.79
X195.42Y-138.24
X200.1Y-110.93
X204.9Y-72.85
X209.63Y-91.86
X214.36Y-53.79
X216.81Y-130.0
X219.13Y-110.93
X223.93Y-72.85
X228.67Y-91.86
X233.43Y-53.79
X238.2Y-110.93
X240.63Y-129.97
X242.98Y-72.85
X247.73Y-91.86
X252.48Y-53.79
X262.03Y-72.85
X262.04Y-119.17
X264.56Y-130.0
X266.79Y-100.11
X269.15Y-62.03
X273.94Y-110.93
X278.69Y-91.87
X281.05Y-53.79
X285.81Y-72.85
X285.84Y-119.17
X288.39Y-130.0
X290.59Y-100.11
X292.95Y-62.03
M30
