%TF.GenerationSoftware,KiCad,Pcbnew,9.0.0*%
%TF.CreationDate,2025-06-15T21:52:09+05:30*%
%TF.ProjectId,keyboard,6b657962-6f61-4726-942e-6b696361645f,rev?*%
%TF.SameCoordinates,Original*%
%TF.FileFunction,Legend,Bot*%
%TF.FilePolarity,Positive*%
%FSLAX46Y46*%
G04 Gerber Fmt 4.6, Leading zero omitted, Abs format (unit mm)*
G04 Created by KiCad (PCBNEW 9.0.0) date 2025-06-15 21:52:09*
%MOMM*%
%LPD*%
G01*
G04 APERTURE LIST*
%ADD10C,0.150000*%
%ADD11C,0.120000*%
G04 APERTURE END LIST*
D10*
X17024819Y-128785714D02*
X16024819Y-128785714D01*
X16024819Y-128785714D02*
X16024819Y-129023809D01*
X16024819Y-129023809D02*
X16072438Y-129166666D01*
X16072438Y-129166666D02*
X16167676Y-129261904D01*
X16167676Y-129261904D02*
X16262914Y-129309523D01*
X16262914Y-129309523D02*
X16453390Y-129357142D01*
X16453390Y-129357142D02*
X16596247Y-129357142D01*
X16596247Y-129357142D02*
X16786723Y-129309523D01*
X16786723Y-129309523D02*
X16881961Y-129261904D01*
X16881961Y-129261904D02*
X16977200Y-129166666D01*
X16977200Y-129166666D02*
X17024819Y-129023809D01*
X17024819Y-129023809D02*
X17024819Y-128785714D01*
X16024819Y-130261904D02*
X16024819Y-129785714D01*
X16024819Y-129785714D02*
X16501009Y-129738095D01*
X16501009Y-129738095D02*
X16453390Y-129785714D01*
X16453390Y-129785714D02*
X16405771Y-129880952D01*
X16405771Y-129880952D02*
X16405771Y-130119047D01*
X16405771Y-130119047D02*
X16453390Y-130214285D01*
X16453390Y-130214285D02*
X16501009Y-130261904D01*
X16501009Y-130261904D02*
X16596247Y-130309523D01*
X16596247Y-130309523D02*
X16834342Y-130309523D01*
X16834342Y-130309523D02*
X16929580Y-130261904D01*
X16929580Y-130261904D02*
X16977200Y-130214285D01*
X16977200Y-130214285D02*
X17024819Y-130119047D01*
X17024819Y-130119047D02*
X17024819Y-129880952D01*
X17024819Y-129880952D02*
X16977200Y-129785714D01*
X16977200Y-129785714D02*
X16929580Y-129738095D01*
X16358152Y-131166666D02*
X17024819Y-131166666D01*
X15977200Y-130928571D02*
X16691485Y-130690476D01*
X16691485Y-130690476D02*
X16691485Y-131309523D01*
X16704819Y-133548095D02*
X15704819Y-133548095D01*
X16704819Y-134119523D02*
X16133390Y-133690952D01*
X15704819Y-134119523D02*
X16276247Y-133548095D01*
X178684819Y-71635714D02*
X177684819Y-71635714D01*
X177684819Y-71635714D02*
X177684819Y-71873809D01*
X177684819Y-71873809D02*
X177732438Y-72016666D01*
X177732438Y-72016666D02*
X177827676Y-72111904D01*
X177827676Y-72111904D02*
X177922914Y-72159523D01*
X177922914Y-72159523D02*
X178113390Y-72207142D01*
X178113390Y-72207142D02*
X178256247Y-72207142D01*
X178256247Y-72207142D02*
X178446723Y-72159523D01*
X178446723Y-72159523D02*
X178541961Y-72111904D01*
X178541961Y-72111904D02*
X178637200Y-72016666D01*
X178637200Y-72016666D02*
X178684819Y-71873809D01*
X178684819Y-71873809D02*
X178684819Y-71635714D01*
X177780057Y-72588095D02*
X177732438Y-72635714D01*
X177732438Y-72635714D02*
X177684819Y-72730952D01*
X177684819Y-72730952D02*
X177684819Y-72969047D01*
X177684819Y-72969047D02*
X177732438Y-73064285D01*
X177732438Y-73064285D02*
X177780057Y-73111904D01*
X177780057Y-73111904D02*
X177875295Y-73159523D01*
X177875295Y-73159523D02*
X177970533Y-73159523D01*
X177970533Y-73159523D02*
X178113390Y-73111904D01*
X178113390Y-73111904D02*
X178684819Y-72540476D01*
X178684819Y-72540476D02*
X178684819Y-73159523D01*
X177684819Y-73778571D02*
X177684819Y-73873809D01*
X177684819Y-73873809D02*
X177732438Y-73969047D01*
X177732438Y-73969047D02*
X177780057Y-74016666D01*
X177780057Y-74016666D02*
X177875295Y-74064285D01*
X177875295Y-74064285D02*
X178065771Y-74111904D01*
X178065771Y-74111904D02*
X178303866Y-74111904D01*
X178303866Y-74111904D02*
X178494342Y-74064285D01*
X178494342Y-74064285D02*
X178589580Y-74016666D01*
X178589580Y-74016666D02*
X178637200Y-73969047D01*
X178637200Y-73969047D02*
X178684819Y-73873809D01*
X178684819Y-73873809D02*
X178684819Y-73778571D01*
X178684819Y-73778571D02*
X178637200Y-73683333D01*
X178637200Y-73683333D02*
X178589580Y-73635714D01*
X178589580Y-73635714D02*
X178494342Y-73588095D01*
X178494342Y-73588095D02*
X178303866Y-73540476D01*
X178303866Y-73540476D02*
X178065771Y-73540476D01*
X178065771Y-73540476D02*
X177875295Y-73588095D01*
X177875295Y-73588095D02*
X177780057Y-73635714D01*
X177780057Y-73635714D02*
X177732438Y-73683333D01*
X177732438Y-73683333D02*
X177684819Y-73778571D01*
X178364819Y-76398095D02*
X177364819Y-76398095D01*
X178364819Y-76969523D02*
X177793390Y-76540952D01*
X177364819Y-76969523D02*
X177936247Y-76398095D01*
X93174819Y-52575714D02*
X92174819Y-52575714D01*
X92174819Y-52575714D02*
X92174819Y-52813809D01*
X92174819Y-52813809D02*
X92222438Y-52956666D01*
X92222438Y-52956666D02*
X92317676Y-53051904D01*
X92317676Y-53051904D02*
X92412914Y-53099523D01*
X92412914Y-53099523D02*
X92603390Y-53147142D01*
X92603390Y-53147142D02*
X92746247Y-53147142D01*
X92746247Y-53147142D02*
X92936723Y-53099523D01*
X92936723Y-53099523D02*
X93031961Y-53051904D01*
X93031961Y-53051904D02*
X93127200Y-52956666D01*
X93127200Y-52956666D02*
X93174819Y-52813809D01*
X93174819Y-52813809D02*
X93174819Y-52575714D01*
X93174819Y-54099523D02*
X93174819Y-53528095D01*
X93174819Y-53813809D02*
X92174819Y-53813809D01*
X92174819Y-53813809D02*
X92317676Y-53718571D01*
X92317676Y-53718571D02*
X92412914Y-53623333D01*
X92412914Y-53623333D02*
X92460533Y-53528095D01*
X93174819Y-55051904D02*
X93174819Y-54480476D01*
X93174819Y-54766190D02*
X92174819Y-54766190D01*
X92174819Y-54766190D02*
X92317676Y-54670952D01*
X92317676Y-54670952D02*
X92412914Y-54575714D01*
X92412914Y-54575714D02*
X92460533Y-54480476D01*
X92854819Y-57338095D02*
X91854819Y-57338095D01*
X92854819Y-57909523D02*
X92283390Y-57480952D01*
X91854819Y-57909523D02*
X92426247Y-57338095D01*
X74294819Y-52575714D02*
X73294819Y-52575714D01*
X73294819Y-52575714D02*
X73294819Y-52813809D01*
X73294819Y-52813809D02*
X73342438Y-52956666D01*
X73342438Y-52956666D02*
X73437676Y-53051904D01*
X73437676Y-53051904D02*
X73532914Y-53099523D01*
X73532914Y-53099523D02*
X73723390Y-53147142D01*
X73723390Y-53147142D02*
X73866247Y-53147142D01*
X73866247Y-53147142D02*
X74056723Y-53099523D01*
X74056723Y-53099523D02*
X74151961Y-53051904D01*
X74151961Y-53051904D02*
X74247200Y-52956666D01*
X74247200Y-52956666D02*
X74294819Y-52813809D01*
X74294819Y-52813809D02*
X74294819Y-52575714D01*
X74294819Y-54099523D02*
X74294819Y-53528095D01*
X74294819Y-53813809D02*
X73294819Y-53813809D01*
X73294819Y-53813809D02*
X73437676Y-53718571D01*
X73437676Y-53718571D02*
X73532914Y-53623333D01*
X73532914Y-53623333D02*
X73580533Y-53528095D01*
X73390057Y-54480476D02*
X73342438Y-54528095D01*
X73342438Y-54528095D02*
X73294819Y-54623333D01*
X73294819Y-54623333D02*
X73294819Y-54861428D01*
X73294819Y-54861428D02*
X73342438Y-54956666D01*
X73342438Y-54956666D02*
X73390057Y-55004285D01*
X73390057Y-55004285D02*
X73485295Y-55051904D01*
X73485295Y-55051904D02*
X73580533Y-55051904D01*
X73580533Y-55051904D02*
X73723390Y-55004285D01*
X73723390Y-55004285D02*
X74294819Y-54432857D01*
X74294819Y-54432857D02*
X74294819Y-55051904D01*
X73974819Y-57338095D02*
X72974819Y-57338095D01*
X73974819Y-57909523D02*
X73403390Y-57480952D01*
X72974819Y-57909523D02*
X73546247Y-57338095D01*
X145734819Y-90645714D02*
X144734819Y-90645714D01*
X144734819Y-90645714D02*
X144734819Y-90883809D01*
X144734819Y-90883809D02*
X144782438Y-91026666D01*
X144782438Y-91026666D02*
X144877676Y-91121904D01*
X144877676Y-91121904D02*
X144972914Y-91169523D01*
X144972914Y-91169523D02*
X145163390Y-91217142D01*
X145163390Y-91217142D02*
X145306247Y-91217142D01*
X145306247Y-91217142D02*
X145496723Y-91169523D01*
X145496723Y-91169523D02*
X145591961Y-91121904D01*
X145591961Y-91121904D02*
X145687200Y-91026666D01*
X145687200Y-91026666D02*
X145734819Y-90883809D01*
X145734819Y-90883809D02*
X145734819Y-90645714D01*
X144734819Y-91550476D02*
X144734819Y-92169523D01*
X144734819Y-92169523D02*
X145115771Y-91836190D01*
X145115771Y-91836190D02*
X145115771Y-91979047D01*
X145115771Y-91979047D02*
X145163390Y-92074285D01*
X145163390Y-92074285D02*
X145211009Y-92121904D01*
X145211009Y-92121904D02*
X145306247Y-92169523D01*
X145306247Y-92169523D02*
X145544342Y-92169523D01*
X145544342Y-92169523D02*
X145639580Y-92121904D01*
X145639580Y-92121904D02*
X145687200Y-92074285D01*
X145687200Y-92074285D02*
X145734819Y-91979047D01*
X145734819Y-91979047D02*
X145734819Y-91693333D01*
X145734819Y-91693333D02*
X145687200Y-91598095D01*
X145687200Y-91598095D02*
X145639580Y-91550476D01*
X144734819Y-93074285D02*
X144734819Y-92598095D01*
X144734819Y-92598095D02*
X145211009Y-92550476D01*
X145211009Y-92550476D02*
X145163390Y-92598095D01*
X145163390Y-92598095D02*
X145115771Y-92693333D01*
X145115771Y-92693333D02*
X145115771Y-92931428D01*
X145115771Y-92931428D02*
X145163390Y-93026666D01*
X145163390Y-93026666D02*
X145211009Y-93074285D01*
X145211009Y-93074285D02*
X145306247Y-93121904D01*
X145306247Y-93121904D02*
X145544342Y-93121904D01*
X145544342Y-93121904D02*
X145639580Y-93074285D01*
X145639580Y-93074285D02*
X145687200Y-93026666D01*
X145687200Y-93026666D02*
X145734819Y-92931428D01*
X145734819Y-92931428D02*
X145734819Y-92693333D01*
X145734819Y-92693333D02*
X145687200Y-92598095D01*
X145687200Y-92598095D02*
X145639580Y-92550476D01*
X145414819Y-95408095D02*
X144414819Y-95408095D01*
X145414819Y-95979523D02*
X144843390Y-95550952D01*
X144414819Y-95979523D02*
X144986247Y-95408095D01*
X54964819Y-52575714D02*
X53964819Y-52575714D01*
X53964819Y-52575714D02*
X53964819Y-52813809D01*
X53964819Y-52813809D02*
X54012438Y-52956666D01*
X54012438Y-52956666D02*
X54107676Y-53051904D01*
X54107676Y-53051904D02*
X54202914Y-53099523D01*
X54202914Y-53099523D02*
X54393390Y-53147142D01*
X54393390Y-53147142D02*
X54536247Y-53147142D01*
X54536247Y-53147142D02*
X54726723Y-53099523D01*
X54726723Y-53099523D02*
X54821961Y-53051904D01*
X54821961Y-53051904D02*
X54917200Y-52956666D01*
X54917200Y-52956666D02*
X54964819Y-52813809D01*
X54964819Y-52813809D02*
X54964819Y-52575714D01*
X54964819Y-54099523D02*
X54964819Y-53528095D01*
X54964819Y-53813809D02*
X53964819Y-53813809D01*
X53964819Y-53813809D02*
X54107676Y-53718571D01*
X54107676Y-53718571D02*
X54202914Y-53623333D01*
X54202914Y-53623333D02*
X54250533Y-53528095D01*
X53964819Y-54432857D02*
X53964819Y-55051904D01*
X53964819Y-55051904D02*
X54345771Y-54718571D01*
X54345771Y-54718571D02*
X54345771Y-54861428D01*
X54345771Y-54861428D02*
X54393390Y-54956666D01*
X54393390Y-54956666D02*
X54441009Y-55004285D01*
X54441009Y-55004285D02*
X54536247Y-55051904D01*
X54536247Y-55051904D02*
X54774342Y-55051904D01*
X54774342Y-55051904D02*
X54869580Y-55004285D01*
X54869580Y-55004285D02*
X54917200Y-54956666D01*
X54917200Y-54956666D02*
X54964819Y-54861428D01*
X54964819Y-54861428D02*
X54964819Y-54575714D01*
X54964819Y-54575714D02*
X54917200Y-54480476D01*
X54917200Y-54480476D02*
X54869580Y-54432857D01*
X54644819Y-57338095D02*
X53644819Y-57338095D01*
X54644819Y-57909523D02*
X54073390Y-57480952D01*
X53644819Y-57909523D02*
X54216247Y-57338095D01*
X240844819Y-90645714D02*
X239844819Y-90645714D01*
X239844819Y-90645714D02*
X239844819Y-90883809D01*
X239844819Y-90883809D02*
X239892438Y-91026666D01*
X239892438Y-91026666D02*
X239987676Y-91121904D01*
X239987676Y-91121904D02*
X240082914Y-91169523D01*
X240082914Y-91169523D02*
X240273390Y-91217142D01*
X240273390Y-91217142D02*
X240416247Y-91217142D01*
X240416247Y-91217142D02*
X240606723Y-91169523D01*
X240606723Y-91169523D02*
X240701961Y-91121904D01*
X240701961Y-91121904D02*
X240797200Y-91026666D01*
X240797200Y-91026666D02*
X240844819Y-90883809D01*
X240844819Y-90883809D02*
X240844819Y-90645714D01*
X240178152Y-92074285D02*
X240844819Y-92074285D01*
X239797200Y-91836190D02*
X240511485Y-91598095D01*
X240511485Y-91598095D02*
X240511485Y-92217142D01*
X239844819Y-92788571D02*
X239844819Y-92883809D01*
X239844819Y-92883809D02*
X239892438Y-92979047D01*
X239892438Y-92979047D02*
X239940057Y-93026666D01*
X239940057Y-93026666D02*
X240035295Y-93074285D01*
X240035295Y-93074285D02*
X240225771Y-93121904D01*
X240225771Y-93121904D02*
X240463866Y-93121904D01*
X240463866Y-93121904D02*
X240654342Y-93074285D01*
X240654342Y-93074285D02*
X240749580Y-93026666D01*
X240749580Y-93026666D02*
X240797200Y-92979047D01*
X240797200Y-92979047D02*
X240844819Y-92883809D01*
X240844819Y-92883809D02*
X240844819Y-92788571D01*
X240844819Y-92788571D02*
X240797200Y-92693333D01*
X240797200Y-92693333D02*
X240749580Y-92645714D01*
X240749580Y-92645714D02*
X240654342Y-92598095D01*
X240654342Y-92598095D02*
X240463866Y-92550476D01*
X240463866Y-92550476D02*
X240225771Y-92550476D01*
X240225771Y-92550476D02*
X240035295Y-92598095D01*
X240035295Y-92598095D02*
X239940057Y-92645714D01*
X239940057Y-92645714D02*
X239892438Y-92693333D01*
X239892438Y-92693333D02*
X239844819Y-92788571D01*
X240524819Y-95408095D02*
X239524819Y-95408095D01*
X240524819Y-95979523D02*
X239953390Y-95550952D01*
X239524819Y-95979523D02*
X240096247Y-95408095D01*
X64494819Y-128785714D02*
X63494819Y-128785714D01*
X63494819Y-128785714D02*
X63494819Y-129023809D01*
X63494819Y-129023809D02*
X63542438Y-129166666D01*
X63542438Y-129166666D02*
X63637676Y-129261904D01*
X63637676Y-129261904D02*
X63732914Y-129309523D01*
X63732914Y-129309523D02*
X63923390Y-129357142D01*
X63923390Y-129357142D02*
X64066247Y-129357142D01*
X64066247Y-129357142D02*
X64256723Y-129309523D01*
X64256723Y-129309523D02*
X64351961Y-129261904D01*
X64351961Y-129261904D02*
X64447200Y-129166666D01*
X64447200Y-129166666D02*
X64494819Y-129023809D01*
X64494819Y-129023809D02*
X64494819Y-128785714D01*
X63494819Y-130261904D02*
X63494819Y-129785714D01*
X63494819Y-129785714D02*
X63971009Y-129738095D01*
X63971009Y-129738095D02*
X63923390Y-129785714D01*
X63923390Y-129785714D02*
X63875771Y-129880952D01*
X63875771Y-129880952D02*
X63875771Y-130119047D01*
X63875771Y-130119047D02*
X63923390Y-130214285D01*
X63923390Y-130214285D02*
X63971009Y-130261904D01*
X63971009Y-130261904D02*
X64066247Y-130309523D01*
X64066247Y-130309523D02*
X64304342Y-130309523D01*
X64304342Y-130309523D02*
X64399580Y-130261904D01*
X64399580Y-130261904D02*
X64447200Y-130214285D01*
X64447200Y-130214285D02*
X64494819Y-130119047D01*
X64494819Y-130119047D02*
X64494819Y-129880952D01*
X64494819Y-129880952D02*
X64447200Y-129785714D01*
X64447200Y-129785714D02*
X64399580Y-129738095D01*
X63494819Y-131166666D02*
X63494819Y-130976190D01*
X63494819Y-130976190D02*
X63542438Y-130880952D01*
X63542438Y-130880952D02*
X63590057Y-130833333D01*
X63590057Y-130833333D02*
X63732914Y-130738095D01*
X63732914Y-130738095D02*
X63923390Y-130690476D01*
X63923390Y-130690476D02*
X64304342Y-130690476D01*
X64304342Y-130690476D02*
X64399580Y-130738095D01*
X64399580Y-130738095D02*
X64447200Y-130785714D01*
X64447200Y-130785714D02*
X64494819Y-130880952D01*
X64494819Y-130880952D02*
X64494819Y-131071428D01*
X64494819Y-131071428D02*
X64447200Y-131166666D01*
X64447200Y-131166666D02*
X64399580Y-131214285D01*
X64399580Y-131214285D02*
X64304342Y-131261904D01*
X64304342Y-131261904D02*
X64066247Y-131261904D01*
X64066247Y-131261904D02*
X63971009Y-131214285D01*
X63971009Y-131214285D02*
X63923390Y-131166666D01*
X63923390Y-131166666D02*
X63875771Y-131071428D01*
X63875771Y-131071428D02*
X63875771Y-130880952D01*
X63875771Y-130880952D02*
X63923390Y-130785714D01*
X63923390Y-130785714D02*
X63971009Y-130738095D01*
X63971009Y-130738095D02*
X64066247Y-130690476D01*
X64174819Y-133548095D02*
X63174819Y-133548095D01*
X64174819Y-134119523D02*
X63603390Y-133690952D01*
X63174819Y-134119523D02*
X63746247Y-133548095D01*
X136584819Y-109715714D02*
X135584819Y-109715714D01*
X135584819Y-109715714D02*
X135584819Y-109953809D01*
X135584819Y-109953809D02*
X135632438Y-110096666D01*
X135632438Y-110096666D02*
X135727676Y-110191904D01*
X135727676Y-110191904D02*
X135822914Y-110239523D01*
X135822914Y-110239523D02*
X136013390Y-110287142D01*
X136013390Y-110287142D02*
X136156247Y-110287142D01*
X136156247Y-110287142D02*
X136346723Y-110239523D01*
X136346723Y-110239523D02*
X136441961Y-110191904D01*
X136441961Y-110191904D02*
X136537200Y-110096666D01*
X136537200Y-110096666D02*
X136584819Y-109953809D01*
X136584819Y-109953809D02*
X136584819Y-109715714D01*
X135918152Y-111144285D02*
X136584819Y-111144285D01*
X135537200Y-110906190D02*
X136251485Y-110668095D01*
X136251485Y-110668095D02*
X136251485Y-111287142D01*
X135584819Y-111572857D02*
X135584819Y-112239523D01*
X135584819Y-112239523D02*
X136584819Y-111810952D01*
X136264819Y-114478095D02*
X135264819Y-114478095D01*
X136264819Y-115049523D02*
X135693390Y-114620952D01*
X135264819Y-115049523D02*
X135836247Y-114478095D01*
X40434819Y-128785714D02*
X39434819Y-128785714D01*
X39434819Y-128785714D02*
X39434819Y-129023809D01*
X39434819Y-129023809D02*
X39482438Y-129166666D01*
X39482438Y-129166666D02*
X39577676Y-129261904D01*
X39577676Y-129261904D02*
X39672914Y-129309523D01*
X39672914Y-129309523D02*
X39863390Y-129357142D01*
X39863390Y-129357142D02*
X40006247Y-129357142D01*
X40006247Y-129357142D02*
X40196723Y-129309523D01*
X40196723Y-129309523D02*
X40291961Y-129261904D01*
X40291961Y-129261904D02*
X40387200Y-129166666D01*
X40387200Y-129166666D02*
X40434819Y-129023809D01*
X40434819Y-129023809D02*
X40434819Y-128785714D01*
X39434819Y-130261904D02*
X39434819Y-129785714D01*
X39434819Y-129785714D02*
X39911009Y-129738095D01*
X39911009Y-129738095D02*
X39863390Y-129785714D01*
X39863390Y-129785714D02*
X39815771Y-129880952D01*
X39815771Y-129880952D02*
X39815771Y-130119047D01*
X39815771Y-130119047D02*
X39863390Y-130214285D01*
X39863390Y-130214285D02*
X39911009Y-130261904D01*
X39911009Y-130261904D02*
X40006247Y-130309523D01*
X40006247Y-130309523D02*
X40244342Y-130309523D01*
X40244342Y-130309523D02*
X40339580Y-130261904D01*
X40339580Y-130261904D02*
X40387200Y-130214285D01*
X40387200Y-130214285D02*
X40434819Y-130119047D01*
X40434819Y-130119047D02*
X40434819Y-129880952D01*
X40434819Y-129880952D02*
X40387200Y-129785714D01*
X40387200Y-129785714D02*
X40339580Y-129738095D01*
X39434819Y-131214285D02*
X39434819Y-130738095D01*
X39434819Y-130738095D02*
X39911009Y-130690476D01*
X39911009Y-130690476D02*
X39863390Y-130738095D01*
X39863390Y-130738095D02*
X39815771Y-130833333D01*
X39815771Y-130833333D02*
X39815771Y-131071428D01*
X39815771Y-131071428D02*
X39863390Y-131166666D01*
X39863390Y-131166666D02*
X39911009Y-131214285D01*
X39911009Y-131214285D02*
X40006247Y-131261904D01*
X40006247Y-131261904D02*
X40244342Y-131261904D01*
X40244342Y-131261904D02*
X40339580Y-131214285D01*
X40339580Y-131214285D02*
X40387200Y-131166666D01*
X40387200Y-131166666D02*
X40434819Y-131071428D01*
X40434819Y-131071428D02*
X40434819Y-130833333D01*
X40434819Y-130833333D02*
X40387200Y-130738095D01*
X40387200Y-130738095D02*
X40339580Y-130690476D01*
X40114819Y-133548095D02*
X39114819Y-133548095D01*
X40114819Y-134119523D02*
X39543390Y-133690952D01*
X39114819Y-134119523D02*
X39686247Y-133548095D01*
X107334819Y-90645714D02*
X106334819Y-90645714D01*
X106334819Y-90645714D02*
X106334819Y-90883809D01*
X106334819Y-90883809D02*
X106382438Y-91026666D01*
X106382438Y-91026666D02*
X106477676Y-91121904D01*
X106477676Y-91121904D02*
X106572914Y-91169523D01*
X106572914Y-91169523D02*
X106763390Y-91217142D01*
X106763390Y-91217142D02*
X106906247Y-91217142D01*
X106906247Y-91217142D02*
X107096723Y-91169523D01*
X107096723Y-91169523D02*
X107191961Y-91121904D01*
X107191961Y-91121904D02*
X107287200Y-91026666D01*
X107287200Y-91026666D02*
X107334819Y-90883809D01*
X107334819Y-90883809D02*
X107334819Y-90645714D01*
X106334819Y-91550476D02*
X106334819Y-92169523D01*
X106334819Y-92169523D02*
X106715771Y-91836190D01*
X106715771Y-91836190D02*
X106715771Y-91979047D01*
X106715771Y-91979047D02*
X106763390Y-92074285D01*
X106763390Y-92074285D02*
X106811009Y-92121904D01*
X106811009Y-92121904D02*
X106906247Y-92169523D01*
X106906247Y-92169523D02*
X107144342Y-92169523D01*
X107144342Y-92169523D02*
X107239580Y-92121904D01*
X107239580Y-92121904D02*
X107287200Y-92074285D01*
X107287200Y-92074285D02*
X107334819Y-91979047D01*
X107334819Y-91979047D02*
X107334819Y-91693333D01*
X107334819Y-91693333D02*
X107287200Y-91598095D01*
X107287200Y-91598095D02*
X107239580Y-91550476D01*
X106334819Y-92502857D02*
X106334819Y-93121904D01*
X106334819Y-93121904D02*
X106715771Y-92788571D01*
X106715771Y-92788571D02*
X106715771Y-92931428D01*
X106715771Y-92931428D02*
X106763390Y-93026666D01*
X106763390Y-93026666D02*
X106811009Y-93074285D01*
X106811009Y-93074285D02*
X106906247Y-93121904D01*
X106906247Y-93121904D02*
X107144342Y-93121904D01*
X107144342Y-93121904D02*
X107239580Y-93074285D01*
X107239580Y-93074285D02*
X107287200Y-93026666D01*
X107287200Y-93026666D02*
X107334819Y-92931428D01*
X107334819Y-92931428D02*
X107334819Y-92645714D01*
X107334819Y-92645714D02*
X107287200Y-92550476D01*
X107287200Y-92550476D02*
X107239580Y-92502857D01*
X107014819Y-95408095D02*
X106014819Y-95408095D01*
X107014819Y-95979523D02*
X106443390Y-95550952D01*
X106014819Y-95979523D02*
X106586247Y-95408095D01*
X236074819Y-71635714D02*
X235074819Y-71635714D01*
X235074819Y-71635714D02*
X235074819Y-71873809D01*
X235074819Y-71873809D02*
X235122438Y-72016666D01*
X235122438Y-72016666D02*
X235217676Y-72111904D01*
X235217676Y-72111904D02*
X235312914Y-72159523D01*
X235312914Y-72159523D02*
X235503390Y-72207142D01*
X235503390Y-72207142D02*
X235646247Y-72207142D01*
X235646247Y-72207142D02*
X235836723Y-72159523D01*
X235836723Y-72159523D02*
X235931961Y-72111904D01*
X235931961Y-72111904D02*
X236027200Y-72016666D01*
X236027200Y-72016666D02*
X236074819Y-71873809D01*
X236074819Y-71873809D02*
X236074819Y-71635714D01*
X236074819Y-73159523D02*
X236074819Y-72588095D01*
X236074819Y-72873809D02*
X235074819Y-72873809D01*
X235074819Y-72873809D02*
X235217676Y-72778571D01*
X235217676Y-72778571D02*
X235312914Y-72683333D01*
X235312914Y-72683333D02*
X235360533Y-72588095D01*
X235074819Y-73492857D02*
X235074819Y-74159523D01*
X235074819Y-74159523D02*
X236074819Y-73730952D01*
X235754819Y-76398095D02*
X234754819Y-76398095D01*
X235754819Y-76969523D02*
X235183390Y-76540952D01*
X234754819Y-76969523D02*
X235326247Y-76398095D01*
X174774819Y-109715714D02*
X173774819Y-109715714D01*
X173774819Y-109715714D02*
X173774819Y-109953809D01*
X173774819Y-109953809D02*
X173822438Y-110096666D01*
X173822438Y-110096666D02*
X173917676Y-110191904D01*
X173917676Y-110191904D02*
X174012914Y-110239523D01*
X174012914Y-110239523D02*
X174203390Y-110287142D01*
X174203390Y-110287142D02*
X174346247Y-110287142D01*
X174346247Y-110287142D02*
X174536723Y-110239523D01*
X174536723Y-110239523D02*
X174631961Y-110191904D01*
X174631961Y-110191904D02*
X174727200Y-110096666D01*
X174727200Y-110096666D02*
X174774819Y-109953809D01*
X174774819Y-109953809D02*
X174774819Y-109715714D01*
X174108152Y-111144285D02*
X174774819Y-111144285D01*
X173727200Y-110906190D02*
X174441485Y-110668095D01*
X174441485Y-110668095D02*
X174441485Y-111287142D01*
X174774819Y-111715714D02*
X174774819Y-111906190D01*
X174774819Y-111906190D02*
X174727200Y-112001428D01*
X174727200Y-112001428D02*
X174679580Y-112049047D01*
X174679580Y-112049047D02*
X174536723Y-112144285D01*
X174536723Y-112144285D02*
X174346247Y-112191904D01*
X174346247Y-112191904D02*
X173965295Y-112191904D01*
X173965295Y-112191904D02*
X173870057Y-112144285D01*
X173870057Y-112144285D02*
X173822438Y-112096666D01*
X173822438Y-112096666D02*
X173774819Y-112001428D01*
X173774819Y-112001428D02*
X173774819Y-111810952D01*
X173774819Y-111810952D02*
X173822438Y-111715714D01*
X173822438Y-111715714D02*
X173870057Y-111668095D01*
X173870057Y-111668095D02*
X173965295Y-111620476D01*
X173965295Y-111620476D02*
X174203390Y-111620476D01*
X174203390Y-111620476D02*
X174298628Y-111668095D01*
X174298628Y-111668095D02*
X174346247Y-111715714D01*
X174346247Y-111715714D02*
X174393866Y-111810952D01*
X174393866Y-111810952D02*
X174393866Y-112001428D01*
X174393866Y-112001428D02*
X174346247Y-112096666D01*
X174346247Y-112096666D02*
X174298628Y-112144285D01*
X174298628Y-112144285D02*
X174203390Y-112191904D01*
X174454819Y-114478095D02*
X173454819Y-114478095D01*
X174454819Y-115049523D02*
X173883390Y-114620952D01*
X173454819Y-115049523D02*
X174026247Y-114478095D01*
X88324819Y-90645714D02*
X87324819Y-90645714D01*
X87324819Y-90645714D02*
X87324819Y-90883809D01*
X87324819Y-90883809D02*
X87372438Y-91026666D01*
X87372438Y-91026666D02*
X87467676Y-91121904D01*
X87467676Y-91121904D02*
X87562914Y-91169523D01*
X87562914Y-91169523D02*
X87753390Y-91217142D01*
X87753390Y-91217142D02*
X87896247Y-91217142D01*
X87896247Y-91217142D02*
X88086723Y-91169523D01*
X88086723Y-91169523D02*
X88181961Y-91121904D01*
X88181961Y-91121904D02*
X88277200Y-91026666D01*
X88277200Y-91026666D02*
X88324819Y-90883809D01*
X88324819Y-90883809D02*
X88324819Y-90645714D01*
X87324819Y-91550476D02*
X87324819Y-92169523D01*
X87324819Y-92169523D02*
X87705771Y-91836190D01*
X87705771Y-91836190D02*
X87705771Y-91979047D01*
X87705771Y-91979047D02*
X87753390Y-92074285D01*
X87753390Y-92074285D02*
X87801009Y-92121904D01*
X87801009Y-92121904D02*
X87896247Y-92169523D01*
X87896247Y-92169523D02*
X88134342Y-92169523D01*
X88134342Y-92169523D02*
X88229580Y-92121904D01*
X88229580Y-92121904D02*
X88277200Y-92074285D01*
X88277200Y-92074285D02*
X88324819Y-91979047D01*
X88324819Y-91979047D02*
X88324819Y-91693333D01*
X88324819Y-91693333D02*
X88277200Y-91598095D01*
X88277200Y-91598095D02*
X88229580Y-91550476D01*
X87420057Y-92550476D02*
X87372438Y-92598095D01*
X87372438Y-92598095D02*
X87324819Y-92693333D01*
X87324819Y-92693333D02*
X87324819Y-92931428D01*
X87324819Y-92931428D02*
X87372438Y-93026666D01*
X87372438Y-93026666D02*
X87420057Y-93074285D01*
X87420057Y-93074285D02*
X87515295Y-93121904D01*
X87515295Y-93121904D02*
X87610533Y-93121904D01*
X87610533Y-93121904D02*
X87753390Y-93074285D01*
X87753390Y-93074285D02*
X88324819Y-92502857D01*
X88324819Y-92502857D02*
X88324819Y-93121904D01*
X88004819Y-95408095D02*
X87004819Y-95408095D01*
X88004819Y-95979523D02*
X87433390Y-95550952D01*
X87004819Y-95979523D02*
X87576247Y-95408095D01*
X17274819Y-109715714D02*
X16274819Y-109715714D01*
X16274819Y-109715714D02*
X16274819Y-109953809D01*
X16274819Y-109953809D02*
X16322438Y-110096666D01*
X16322438Y-110096666D02*
X16417676Y-110191904D01*
X16417676Y-110191904D02*
X16512914Y-110239523D01*
X16512914Y-110239523D02*
X16703390Y-110287142D01*
X16703390Y-110287142D02*
X16846247Y-110287142D01*
X16846247Y-110287142D02*
X17036723Y-110239523D01*
X17036723Y-110239523D02*
X17131961Y-110191904D01*
X17131961Y-110191904D02*
X17227200Y-110096666D01*
X17227200Y-110096666D02*
X17274819Y-109953809D01*
X17274819Y-109953809D02*
X17274819Y-109715714D01*
X16608152Y-111144285D02*
X17274819Y-111144285D01*
X16227200Y-110906190D02*
X16941485Y-110668095D01*
X16941485Y-110668095D02*
X16941485Y-111287142D01*
X16370057Y-111620476D02*
X16322438Y-111668095D01*
X16322438Y-111668095D02*
X16274819Y-111763333D01*
X16274819Y-111763333D02*
X16274819Y-112001428D01*
X16274819Y-112001428D02*
X16322438Y-112096666D01*
X16322438Y-112096666D02*
X16370057Y-112144285D01*
X16370057Y-112144285D02*
X16465295Y-112191904D01*
X16465295Y-112191904D02*
X16560533Y-112191904D01*
X16560533Y-112191904D02*
X16703390Y-112144285D01*
X16703390Y-112144285D02*
X17274819Y-111572857D01*
X17274819Y-111572857D02*
X17274819Y-112191904D01*
X16954819Y-114478095D02*
X15954819Y-114478095D01*
X16954819Y-115049523D02*
X16383390Y-114620952D01*
X15954819Y-115049523D02*
X16526247Y-114478095D01*
X212704819Y-109715714D02*
X211704819Y-109715714D01*
X211704819Y-109715714D02*
X211704819Y-109953809D01*
X211704819Y-109953809D02*
X211752438Y-110096666D01*
X211752438Y-110096666D02*
X211847676Y-110191904D01*
X211847676Y-110191904D02*
X211942914Y-110239523D01*
X211942914Y-110239523D02*
X212133390Y-110287142D01*
X212133390Y-110287142D02*
X212276247Y-110287142D01*
X212276247Y-110287142D02*
X212466723Y-110239523D01*
X212466723Y-110239523D02*
X212561961Y-110191904D01*
X212561961Y-110191904D02*
X212657200Y-110096666D01*
X212657200Y-110096666D02*
X212704819Y-109953809D01*
X212704819Y-109953809D02*
X212704819Y-109715714D01*
X211704819Y-111191904D02*
X211704819Y-110715714D01*
X211704819Y-110715714D02*
X212181009Y-110668095D01*
X212181009Y-110668095D02*
X212133390Y-110715714D01*
X212133390Y-110715714D02*
X212085771Y-110810952D01*
X212085771Y-110810952D02*
X212085771Y-111049047D01*
X212085771Y-111049047D02*
X212133390Y-111144285D01*
X212133390Y-111144285D02*
X212181009Y-111191904D01*
X212181009Y-111191904D02*
X212276247Y-111239523D01*
X212276247Y-111239523D02*
X212514342Y-111239523D01*
X212514342Y-111239523D02*
X212609580Y-111191904D01*
X212609580Y-111191904D02*
X212657200Y-111144285D01*
X212657200Y-111144285D02*
X212704819Y-111049047D01*
X212704819Y-111049047D02*
X212704819Y-110810952D01*
X212704819Y-110810952D02*
X212657200Y-110715714D01*
X212657200Y-110715714D02*
X212609580Y-110668095D01*
X212704819Y-112191904D02*
X212704819Y-111620476D01*
X212704819Y-111906190D02*
X211704819Y-111906190D01*
X211704819Y-111906190D02*
X211847676Y-111810952D01*
X211847676Y-111810952D02*
X211942914Y-111715714D01*
X211942914Y-111715714D02*
X211990533Y-111620476D01*
X212384819Y-114478095D02*
X211384819Y-114478095D01*
X212384819Y-115049523D02*
X211813390Y-114620952D01*
X211384819Y-115049523D02*
X211956247Y-114478095D01*
X102484819Y-71635714D02*
X101484819Y-71635714D01*
X101484819Y-71635714D02*
X101484819Y-71873809D01*
X101484819Y-71873809D02*
X101532438Y-72016666D01*
X101532438Y-72016666D02*
X101627676Y-72111904D01*
X101627676Y-72111904D02*
X101722914Y-72159523D01*
X101722914Y-72159523D02*
X101913390Y-72207142D01*
X101913390Y-72207142D02*
X102056247Y-72207142D01*
X102056247Y-72207142D02*
X102246723Y-72159523D01*
X102246723Y-72159523D02*
X102341961Y-72111904D01*
X102341961Y-72111904D02*
X102437200Y-72016666D01*
X102437200Y-72016666D02*
X102484819Y-71873809D01*
X102484819Y-71873809D02*
X102484819Y-71635714D01*
X101580057Y-72588095D02*
X101532438Y-72635714D01*
X101532438Y-72635714D02*
X101484819Y-72730952D01*
X101484819Y-72730952D02*
X101484819Y-72969047D01*
X101484819Y-72969047D02*
X101532438Y-73064285D01*
X101532438Y-73064285D02*
X101580057Y-73111904D01*
X101580057Y-73111904D02*
X101675295Y-73159523D01*
X101675295Y-73159523D02*
X101770533Y-73159523D01*
X101770533Y-73159523D02*
X101913390Y-73111904D01*
X101913390Y-73111904D02*
X102484819Y-72540476D01*
X102484819Y-72540476D02*
X102484819Y-73159523D01*
X101818152Y-74016666D02*
X102484819Y-74016666D01*
X101437200Y-73778571D02*
X102151485Y-73540476D01*
X102151485Y-73540476D02*
X102151485Y-74159523D01*
X102164819Y-76398095D02*
X101164819Y-76398095D01*
X102164819Y-76969523D02*
X101593390Y-76540952D01*
X101164819Y-76969523D02*
X101736247Y-76398095D01*
X283204819Y-34385714D02*
X282204819Y-34385714D01*
X282204819Y-34385714D02*
X282204819Y-34623809D01*
X282204819Y-34623809D02*
X282252438Y-34766666D01*
X282252438Y-34766666D02*
X282347676Y-34861904D01*
X282347676Y-34861904D02*
X282442914Y-34909523D01*
X282442914Y-34909523D02*
X282633390Y-34957142D01*
X282633390Y-34957142D02*
X282776247Y-34957142D01*
X282776247Y-34957142D02*
X282966723Y-34909523D01*
X282966723Y-34909523D02*
X283061961Y-34861904D01*
X283061961Y-34861904D02*
X283157200Y-34766666D01*
X283157200Y-34766666D02*
X283204819Y-34623809D01*
X283204819Y-34623809D02*
X283204819Y-34385714D01*
X282204819Y-35814285D02*
X282204819Y-35623809D01*
X282204819Y-35623809D02*
X282252438Y-35528571D01*
X282252438Y-35528571D02*
X282300057Y-35480952D01*
X282300057Y-35480952D02*
X282442914Y-35385714D01*
X282442914Y-35385714D02*
X282633390Y-35338095D01*
X282633390Y-35338095D02*
X283014342Y-35338095D01*
X283014342Y-35338095D02*
X283109580Y-35385714D01*
X283109580Y-35385714D02*
X283157200Y-35433333D01*
X283157200Y-35433333D02*
X283204819Y-35528571D01*
X283204819Y-35528571D02*
X283204819Y-35719047D01*
X283204819Y-35719047D02*
X283157200Y-35814285D01*
X283157200Y-35814285D02*
X283109580Y-35861904D01*
X283109580Y-35861904D02*
X283014342Y-35909523D01*
X283014342Y-35909523D02*
X282776247Y-35909523D01*
X282776247Y-35909523D02*
X282681009Y-35861904D01*
X282681009Y-35861904D02*
X282633390Y-35814285D01*
X282633390Y-35814285D02*
X282585771Y-35719047D01*
X282585771Y-35719047D02*
X282585771Y-35528571D01*
X282585771Y-35528571D02*
X282633390Y-35433333D01*
X282633390Y-35433333D02*
X282681009Y-35385714D01*
X282681009Y-35385714D02*
X282776247Y-35338095D01*
X282300057Y-36290476D02*
X282252438Y-36338095D01*
X282252438Y-36338095D02*
X282204819Y-36433333D01*
X282204819Y-36433333D02*
X282204819Y-36671428D01*
X282204819Y-36671428D02*
X282252438Y-36766666D01*
X282252438Y-36766666D02*
X282300057Y-36814285D01*
X282300057Y-36814285D02*
X282395295Y-36861904D01*
X282395295Y-36861904D02*
X282490533Y-36861904D01*
X282490533Y-36861904D02*
X282633390Y-36814285D01*
X282633390Y-36814285D02*
X283204819Y-36242857D01*
X283204819Y-36242857D02*
X283204819Y-36861904D01*
X282884819Y-39148095D02*
X281884819Y-39148095D01*
X282884819Y-39719523D02*
X282313390Y-39290952D01*
X281884819Y-39719523D02*
X282456247Y-39148095D01*
X150524819Y-53051905D02*
X149524819Y-53051905D01*
X149524819Y-53051905D02*
X149524819Y-53290000D01*
X149524819Y-53290000D02*
X149572438Y-53432857D01*
X149572438Y-53432857D02*
X149667676Y-53528095D01*
X149667676Y-53528095D02*
X149762914Y-53575714D01*
X149762914Y-53575714D02*
X149953390Y-53623333D01*
X149953390Y-53623333D02*
X150096247Y-53623333D01*
X150096247Y-53623333D02*
X150286723Y-53575714D01*
X150286723Y-53575714D02*
X150381961Y-53528095D01*
X150381961Y-53528095D02*
X150477200Y-53432857D01*
X150477200Y-53432857D02*
X150524819Y-53290000D01*
X150524819Y-53290000D02*
X150524819Y-53051905D01*
X149953390Y-54194762D02*
X149905771Y-54099524D01*
X149905771Y-54099524D02*
X149858152Y-54051905D01*
X149858152Y-54051905D02*
X149762914Y-54004286D01*
X149762914Y-54004286D02*
X149715295Y-54004286D01*
X149715295Y-54004286D02*
X149620057Y-54051905D01*
X149620057Y-54051905D02*
X149572438Y-54099524D01*
X149572438Y-54099524D02*
X149524819Y-54194762D01*
X149524819Y-54194762D02*
X149524819Y-54385238D01*
X149524819Y-54385238D02*
X149572438Y-54480476D01*
X149572438Y-54480476D02*
X149620057Y-54528095D01*
X149620057Y-54528095D02*
X149715295Y-54575714D01*
X149715295Y-54575714D02*
X149762914Y-54575714D01*
X149762914Y-54575714D02*
X149858152Y-54528095D01*
X149858152Y-54528095D02*
X149905771Y-54480476D01*
X149905771Y-54480476D02*
X149953390Y-54385238D01*
X149953390Y-54385238D02*
X149953390Y-54194762D01*
X149953390Y-54194762D02*
X150001009Y-54099524D01*
X150001009Y-54099524D02*
X150048628Y-54051905D01*
X150048628Y-54051905D02*
X150143866Y-54004286D01*
X150143866Y-54004286D02*
X150334342Y-54004286D01*
X150334342Y-54004286D02*
X150429580Y-54051905D01*
X150429580Y-54051905D02*
X150477200Y-54099524D01*
X150477200Y-54099524D02*
X150524819Y-54194762D01*
X150524819Y-54194762D02*
X150524819Y-54385238D01*
X150524819Y-54385238D02*
X150477200Y-54480476D01*
X150477200Y-54480476D02*
X150429580Y-54528095D01*
X150429580Y-54528095D02*
X150334342Y-54575714D01*
X150334342Y-54575714D02*
X150143866Y-54575714D01*
X150143866Y-54575714D02*
X150048628Y-54528095D01*
X150048628Y-54528095D02*
X150001009Y-54480476D01*
X150001009Y-54480476D02*
X149953390Y-54385238D01*
X150204819Y-57338095D02*
X149204819Y-57338095D01*
X150204819Y-57909523D02*
X149633390Y-57480952D01*
X149204819Y-57909523D02*
X149776247Y-57338095D01*
X188274819Y-53051905D02*
X187274819Y-53051905D01*
X187274819Y-53051905D02*
X187274819Y-53290000D01*
X187274819Y-53290000D02*
X187322438Y-53432857D01*
X187322438Y-53432857D02*
X187417676Y-53528095D01*
X187417676Y-53528095D02*
X187512914Y-53575714D01*
X187512914Y-53575714D02*
X187703390Y-53623333D01*
X187703390Y-53623333D02*
X187846247Y-53623333D01*
X187846247Y-53623333D02*
X188036723Y-53575714D01*
X188036723Y-53575714D02*
X188131961Y-53528095D01*
X188131961Y-53528095D02*
X188227200Y-53432857D01*
X188227200Y-53432857D02*
X188274819Y-53290000D01*
X188274819Y-53290000D02*
X188274819Y-53051905D01*
X187274819Y-54480476D02*
X187274819Y-54290000D01*
X187274819Y-54290000D02*
X187322438Y-54194762D01*
X187322438Y-54194762D02*
X187370057Y-54147143D01*
X187370057Y-54147143D02*
X187512914Y-54051905D01*
X187512914Y-54051905D02*
X187703390Y-54004286D01*
X187703390Y-54004286D02*
X188084342Y-54004286D01*
X188084342Y-54004286D02*
X188179580Y-54051905D01*
X188179580Y-54051905D02*
X188227200Y-54099524D01*
X188227200Y-54099524D02*
X188274819Y-54194762D01*
X188274819Y-54194762D02*
X188274819Y-54385238D01*
X188274819Y-54385238D02*
X188227200Y-54480476D01*
X188227200Y-54480476D02*
X188179580Y-54528095D01*
X188179580Y-54528095D02*
X188084342Y-54575714D01*
X188084342Y-54575714D02*
X187846247Y-54575714D01*
X187846247Y-54575714D02*
X187751009Y-54528095D01*
X187751009Y-54528095D02*
X187703390Y-54480476D01*
X187703390Y-54480476D02*
X187655771Y-54385238D01*
X187655771Y-54385238D02*
X187655771Y-54194762D01*
X187655771Y-54194762D02*
X187703390Y-54099524D01*
X187703390Y-54099524D02*
X187751009Y-54051905D01*
X187751009Y-54051905D02*
X187846247Y-54004286D01*
X187954819Y-57338095D02*
X186954819Y-57338095D01*
X187954819Y-57909523D02*
X187383390Y-57480952D01*
X186954819Y-57909523D02*
X187526247Y-57338095D01*
X279554819Y-128785714D02*
X278554819Y-128785714D01*
X278554819Y-128785714D02*
X278554819Y-129023809D01*
X278554819Y-129023809D02*
X278602438Y-129166666D01*
X278602438Y-129166666D02*
X278697676Y-129261904D01*
X278697676Y-129261904D02*
X278792914Y-129309523D01*
X278792914Y-129309523D02*
X278983390Y-129357142D01*
X278983390Y-129357142D02*
X279126247Y-129357142D01*
X279126247Y-129357142D02*
X279316723Y-129309523D01*
X279316723Y-129309523D02*
X279411961Y-129261904D01*
X279411961Y-129261904D02*
X279507200Y-129166666D01*
X279507200Y-129166666D02*
X279554819Y-129023809D01*
X279554819Y-129023809D02*
X279554819Y-128785714D01*
X278554819Y-130214285D02*
X278554819Y-130023809D01*
X278554819Y-130023809D02*
X278602438Y-129928571D01*
X278602438Y-129928571D02*
X278650057Y-129880952D01*
X278650057Y-129880952D02*
X278792914Y-129785714D01*
X278792914Y-129785714D02*
X278983390Y-129738095D01*
X278983390Y-129738095D02*
X279364342Y-129738095D01*
X279364342Y-129738095D02*
X279459580Y-129785714D01*
X279459580Y-129785714D02*
X279507200Y-129833333D01*
X279507200Y-129833333D02*
X279554819Y-129928571D01*
X279554819Y-129928571D02*
X279554819Y-130119047D01*
X279554819Y-130119047D02*
X279507200Y-130214285D01*
X279507200Y-130214285D02*
X279459580Y-130261904D01*
X279459580Y-130261904D02*
X279364342Y-130309523D01*
X279364342Y-130309523D02*
X279126247Y-130309523D01*
X279126247Y-130309523D02*
X279031009Y-130261904D01*
X279031009Y-130261904D02*
X278983390Y-130214285D01*
X278983390Y-130214285D02*
X278935771Y-130119047D01*
X278935771Y-130119047D02*
X278935771Y-129928571D01*
X278935771Y-129928571D02*
X278983390Y-129833333D01*
X278983390Y-129833333D02*
X279031009Y-129785714D01*
X279031009Y-129785714D02*
X279126247Y-129738095D01*
X279554819Y-131261904D02*
X279554819Y-130690476D01*
X279554819Y-130976190D02*
X278554819Y-130976190D01*
X278554819Y-130976190D02*
X278697676Y-130880952D01*
X278697676Y-130880952D02*
X278792914Y-130785714D01*
X278792914Y-130785714D02*
X278840533Y-130690476D01*
X279234819Y-133548095D02*
X278234819Y-133548095D01*
X279234819Y-134119523D02*
X278663390Y-133690952D01*
X278234819Y-134119523D02*
X278806247Y-133548095D01*
X245684819Y-53051905D02*
X244684819Y-53051905D01*
X244684819Y-53051905D02*
X244684819Y-53290000D01*
X244684819Y-53290000D02*
X244732438Y-53432857D01*
X244732438Y-53432857D02*
X244827676Y-53528095D01*
X244827676Y-53528095D02*
X244922914Y-53575714D01*
X244922914Y-53575714D02*
X245113390Y-53623333D01*
X245113390Y-53623333D02*
X245256247Y-53623333D01*
X245256247Y-53623333D02*
X245446723Y-53575714D01*
X245446723Y-53575714D02*
X245541961Y-53528095D01*
X245541961Y-53528095D02*
X245637200Y-53432857D01*
X245637200Y-53432857D02*
X245684819Y-53290000D01*
X245684819Y-53290000D02*
X245684819Y-53051905D01*
X244684819Y-53956667D02*
X244684819Y-54575714D01*
X244684819Y-54575714D02*
X245065771Y-54242381D01*
X245065771Y-54242381D02*
X245065771Y-54385238D01*
X245065771Y-54385238D02*
X245113390Y-54480476D01*
X245113390Y-54480476D02*
X245161009Y-54528095D01*
X245161009Y-54528095D02*
X245256247Y-54575714D01*
X245256247Y-54575714D02*
X245494342Y-54575714D01*
X245494342Y-54575714D02*
X245589580Y-54528095D01*
X245589580Y-54528095D02*
X245637200Y-54480476D01*
X245637200Y-54480476D02*
X245684819Y-54385238D01*
X245684819Y-54385238D02*
X245684819Y-54099524D01*
X245684819Y-54099524D02*
X245637200Y-54004286D01*
X245637200Y-54004286D02*
X245589580Y-53956667D01*
X245364819Y-57338095D02*
X244364819Y-57338095D01*
X245364819Y-57909523D02*
X244793390Y-57480952D01*
X244364819Y-57909523D02*
X244936247Y-57338095D01*
X259934819Y-90645714D02*
X258934819Y-90645714D01*
X258934819Y-90645714D02*
X258934819Y-90883809D01*
X258934819Y-90883809D02*
X258982438Y-91026666D01*
X258982438Y-91026666D02*
X259077676Y-91121904D01*
X259077676Y-91121904D02*
X259172914Y-91169523D01*
X259172914Y-91169523D02*
X259363390Y-91217142D01*
X259363390Y-91217142D02*
X259506247Y-91217142D01*
X259506247Y-91217142D02*
X259696723Y-91169523D01*
X259696723Y-91169523D02*
X259791961Y-91121904D01*
X259791961Y-91121904D02*
X259887200Y-91026666D01*
X259887200Y-91026666D02*
X259934819Y-90883809D01*
X259934819Y-90883809D02*
X259934819Y-90645714D01*
X259268152Y-92074285D02*
X259934819Y-92074285D01*
X258887200Y-91836190D02*
X259601485Y-91598095D01*
X259601485Y-91598095D02*
X259601485Y-92217142D01*
X259934819Y-93121904D02*
X259934819Y-92550476D01*
X259934819Y-92836190D02*
X258934819Y-92836190D01*
X258934819Y-92836190D02*
X259077676Y-92740952D01*
X259077676Y-92740952D02*
X259172914Y-92645714D01*
X259172914Y-92645714D02*
X259220533Y-92550476D01*
X259614819Y-95408095D02*
X258614819Y-95408095D01*
X259614819Y-95979523D02*
X259043390Y-95550952D01*
X258614819Y-95979523D02*
X259186247Y-95408095D01*
X69234819Y-90645714D02*
X68234819Y-90645714D01*
X68234819Y-90645714D02*
X68234819Y-90883809D01*
X68234819Y-90883809D02*
X68282438Y-91026666D01*
X68282438Y-91026666D02*
X68377676Y-91121904D01*
X68377676Y-91121904D02*
X68472914Y-91169523D01*
X68472914Y-91169523D02*
X68663390Y-91217142D01*
X68663390Y-91217142D02*
X68806247Y-91217142D01*
X68806247Y-91217142D02*
X68996723Y-91169523D01*
X68996723Y-91169523D02*
X69091961Y-91121904D01*
X69091961Y-91121904D02*
X69187200Y-91026666D01*
X69187200Y-91026666D02*
X69234819Y-90883809D01*
X69234819Y-90883809D02*
X69234819Y-90645714D01*
X68234819Y-91550476D02*
X68234819Y-92169523D01*
X68234819Y-92169523D02*
X68615771Y-91836190D01*
X68615771Y-91836190D02*
X68615771Y-91979047D01*
X68615771Y-91979047D02*
X68663390Y-92074285D01*
X68663390Y-92074285D02*
X68711009Y-92121904D01*
X68711009Y-92121904D02*
X68806247Y-92169523D01*
X68806247Y-92169523D02*
X69044342Y-92169523D01*
X69044342Y-92169523D02*
X69139580Y-92121904D01*
X69139580Y-92121904D02*
X69187200Y-92074285D01*
X69187200Y-92074285D02*
X69234819Y-91979047D01*
X69234819Y-91979047D02*
X69234819Y-91693333D01*
X69234819Y-91693333D02*
X69187200Y-91598095D01*
X69187200Y-91598095D02*
X69139580Y-91550476D01*
X69234819Y-93121904D02*
X69234819Y-92550476D01*
X69234819Y-92836190D02*
X68234819Y-92836190D01*
X68234819Y-92836190D02*
X68377676Y-92740952D01*
X68377676Y-92740952D02*
X68472914Y-92645714D01*
X68472914Y-92645714D02*
X68520533Y-92550476D01*
X68914819Y-95408095D02*
X67914819Y-95408095D01*
X68914819Y-95979523D02*
X68343390Y-95550952D01*
X67914819Y-95979523D02*
X68486247Y-95408095D01*
X131554819Y-53051905D02*
X130554819Y-53051905D01*
X130554819Y-53051905D02*
X130554819Y-53290000D01*
X130554819Y-53290000D02*
X130602438Y-53432857D01*
X130602438Y-53432857D02*
X130697676Y-53528095D01*
X130697676Y-53528095D02*
X130792914Y-53575714D01*
X130792914Y-53575714D02*
X130983390Y-53623333D01*
X130983390Y-53623333D02*
X131126247Y-53623333D01*
X131126247Y-53623333D02*
X131316723Y-53575714D01*
X131316723Y-53575714D02*
X131411961Y-53528095D01*
X131411961Y-53528095D02*
X131507200Y-53432857D01*
X131507200Y-53432857D02*
X131554819Y-53290000D01*
X131554819Y-53290000D02*
X131554819Y-53051905D01*
X131554819Y-54099524D02*
X131554819Y-54290000D01*
X131554819Y-54290000D02*
X131507200Y-54385238D01*
X131507200Y-54385238D02*
X131459580Y-54432857D01*
X131459580Y-54432857D02*
X131316723Y-54528095D01*
X131316723Y-54528095D02*
X131126247Y-54575714D01*
X131126247Y-54575714D02*
X130745295Y-54575714D01*
X130745295Y-54575714D02*
X130650057Y-54528095D01*
X130650057Y-54528095D02*
X130602438Y-54480476D01*
X130602438Y-54480476D02*
X130554819Y-54385238D01*
X130554819Y-54385238D02*
X130554819Y-54194762D01*
X130554819Y-54194762D02*
X130602438Y-54099524D01*
X130602438Y-54099524D02*
X130650057Y-54051905D01*
X130650057Y-54051905D02*
X130745295Y-54004286D01*
X130745295Y-54004286D02*
X130983390Y-54004286D01*
X130983390Y-54004286D02*
X131078628Y-54051905D01*
X131078628Y-54051905D02*
X131126247Y-54099524D01*
X131126247Y-54099524D02*
X131173866Y-54194762D01*
X131173866Y-54194762D02*
X131173866Y-54385238D01*
X131173866Y-54385238D02*
X131126247Y-54480476D01*
X131126247Y-54480476D02*
X131078628Y-54528095D01*
X131078628Y-54528095D02*
X130983390Y-54575714D01*
X131234819Y-57338095D02*
X130234819Y-57338095D01*
X131234819Y-57909523D02*
X130663390Y-57480952D01*
X130234819Y-57909523D02*
X130806247Y-57338095D01*
X140764819Y-71635714D02*
X139764819Y-71635714D01*
X139764819Y-71635714D02*
X139764819Y-71873809D01*
X139764819Y-71873809D02*
X139812438Y-72016666D01*
X139812438Y-72016666D02*
X139907676Y-72111904D01*
X139907676Y-72111904D02*
X140002914Y-72159523D01*
X140002914Y-72159523D02*
X140193390Y-72207142D01*
X140193390Y-72207142D02*
X140336247Y-72207142D01*
X140336247Y-72207142D02*
X140526723Y-72159523D01*
X140526723Y-72159523D02*
X140621961Y-72111904D01*
X140621961Y-72111904D02*
X140717200Y-72016666D01*
X140717200Y-72016666D02*
X140764819Y-71873809D01*
X140764819Y-71873809D02*
X140764819Y-71635714D01*
X139860057Y-72588095D02*
X139812438Y-72635714D01*
X139812438Y-72635714D02*
X139764819Y-72730952D01*
X139764819Y-72730952D02*
X139764819Y-72969047D01*
X139764819Y-72969047D02*
X139812438Y-73064285D01*
X139812438Y-73064285D02*
X139860057Y-73111904D01*
X139860057Y-73111904D02*
X139955295Y-73159523D01*
X139955295Y-73159523D02*
X140050533Y-73159523D01*
X140050533Y-73159523D02*
X140193390Y-73111904D01*
X140193390Y-73111904D02*
X140764819Y-72540476D01*
X140764819Y-72540476D02*
X140764819Y-73159523D01*
X139860057Y-73540476D02*
X139812438Y-73588095D01*
X139812438Y-73588095D02*
X139764819Y-73683333D01*
X139764819Y-73683333D02*
X139764819Y-73921428D01*
X139764819Y-73921428D02*
X139812438Y-74016666D01*
X139812438Y-74016666D02*
X139860057Y-74064285D01*
X139860057Y-74064285D02*
X139955295Y-74111904D01*
X139955295Y-74111904D02*
X140050533Y-74111904D01*
X140050533Y-74111904D02*
X140193390Y-74064285D01*
X140193390Y-74064285D02*
X140764819Y-73492857D01*
X140764819Y-73492857D02*
X140764819Y-74111904D01*
X140444819Y-76398095D02*
X139444819Y-76398095D01*
X140444819Y-76969523D02*
X139873390Y-76540952D01*
X139444819Y-76969523D02*
X140016247Y-76398095D01*
X45364819Y-71635714D02*
X44364819Y-71635714D01*
X44364819Y-71635714D02*
X44364819Y-71873809D01*
X44364819Y-71873809D02*
X44412438Y-72016666D01*
X44412438Y-72016666D02*
X44507676Y-72111904D01*
X44507676Y-72111904D02*
X44602914Y-72159523D01*
X44602914Y-72159523D02*
X44793390Y-72207142D01*
X44793390Y-72207142D02*
X44936247Y-72207142D01*
X44936247Y-72207142D02*
X45126723Y-72159523D01*
X45126723Y-72159523D02*
X45221961Y-72111904D01*
X45221961Y-72111904D02*
X45317200Y-72016666D01*
X45317200Y-72016666D02*
X45364819Y-71873809D01*
X45364819Y-71873809D02*
X45364819Y-71635714D01*
X44460057Y-72588095D02*
X44412438Y-72635714D01*
X44412438Y-72635714D02*
X44364819Y-72730952D01*
X44364819Y-72730952D02*
X44364819Y-72969047D01*
X44364819Y-72969047D02*
X44412438Y-73064285D01*
X44412438Y-73064285D02*
X44460057Y-73111904D01*
X44460057Y-73111904D02*
X44555295Y-73159523D01*
X44555295Y-73159523D02*
X44650533Y-73159523D01*
X44650533Y-73159523D02*
X44793390Y-73111904D01*
X44793390Y-73111904D02*
X45364819Y-72540476D01*
X45364819Y-72540476D02*
X45364819Y-73159523D01*
X44364819Y-73492857D02*
X44364819Y-74159523D01*
X44364819Y-74159523D02*
X45364819Y-73730952D01*
X45044819Y-76398095D02*
X44044819Y-76398095D01*
X45044819Y-76969523D02*
X44473390Y-76540952D01*
X44044819Y-76969523D02*
X44616247Y-76398095D01*
X121604819Y-71635714D02*
X120604819Y-71635714D01*
X120604819Y-71635714D02*
X120604819Y-71873809D01*
X120604819Y-71873809D02*
X120652438Y-72016666D01*
X120652438Y-72016666D02*
X120747676Y-72111904D01*
X120747676Y-72111904D02*
X120842914Y-72159523D01*
X120842914Y-72159523D02*
X121033390Y-72207142D01*
X121033390Y-72207142D02*
X121176247Y-72207142D01*
X121176247Y-72207142D02*
X121366723Y-72159523D01*
X121366723Y-72159523D02*
X121461961Y-72111904D01*
X121461961Y-72111904D02*
X121557200Y-72016666D01*
X121557200Y-72016666D02*
X121604819Y-71873809D01*
X121604819Y-71873809D02*
X121604819Y-71635714D01*
X120700057Y-72588095D02*
X120652438Y-72635714D01*
X120652438Y-72635714D02*
X120604819Y-72730952D01*
X120604819Y-72730952D02*
X120604819Y-72969047D01*
X120604819Y-72969047D02*
X120652438Y-73064285D01*
X120652438Y-73064285D02*
X120700057Y-73111904D01*
X120700057Y-73111904D02*
X120795295Y-73159523D01*
X120795295Y-73159523D02*
X120890533Y-73159523D01*
X120890533Y-73159523D02*
X121033390Y-73111904D01*
X121033390Y-73111904D02*
X121604819Y-72540476D01*
X121604819Y-72540476D02*
X121604819Y-73159523D01*
X120604819Y-73492857D02*
X120604819Y-74111904D01*
X120604819Y-74111904D02*
X120985771Y-73778571D01*
X120985771Y-73778571D02*
X120985771Y-73921428D01*
X120985771Y-73921428D02*
X121033390Y-74016666D01*
X121033390Y-74016666D02*
X121081009Y-74064285D01*
X121081009Y-74064285D02*
X121176247Y-74111904D01*
X121176247Y-74111904D02*
X121414342Y-74111904D01*
X121414342Y-74111904D02*
X121509580Y-74064285D01*
X121509580Y-74064285D02*
X121557200Y-74016666D01*
X121557200Y-74016666D02*
X121604819Y-73921428D01*
X121604819Y-73921428D02*
X121604819Y-73635714D01*
X121604819Y-73635714D02*
X121557200Y-73540476D01*
X121557200Y-73540476D02*
X121509580Y-73492857D01*
X121284819Y-76398095D02*
X120284819Y-76398095D01*
X121284819Y-76969523D02*
X120713390Y-76540952D01*
X120284819Y-76969523D02*
X120856247Y-76398095D01*
X164324819Y-90645714D02*
X163324819Y-90645714D01*
X163324819Y-90645714D02*
X163324819Y-90883809D01*
X163324819Y-90883809D02*
X163372438Y-91026666D01*
X163372438Y-91026666D02*
X163467676Y-91121904D01*
X163467676Y-91121904D02*
X163562914Y-91169523D01*
X163562914Y-91169523D02*
X163753390Y-91217142D01*
X163753390Y-91217142D02*
X163896247Y-91217142D01*
X163896247Y-91217142D02*
X164086723Y-91169523D01*
X164086723Y-91169523D02*
X164181961Y-91121904D01*
X164181961Y-91121904D02*
X164277200Y-91026666D01*
X164277200Y-91026666D02*
X164324819Y-90883809D01*
X164324819Y-90883809D02*
X164324819Y-90645714D01*
X163324819Y-91550476D02*
X163324819Y-92169523D01*
X163324819Y-92169523D02*
X163705771Y-91836190D01*
X163705771Y-91836190D02*
X163705771Y-91979047D01*
X163705771Y-91979047D02*
X163753390Y-92074285D01*
X163753390Y-92074285D02*
X163801009Y-92121904D01*
X163801009Y-92121904D02*
X163896247Y-92169523D01*
X163896247Y-92169523D02*
X164134342Y-92169523D01*
X164134342Y-92169523D02*
X164229580Y-92121904D01*
X164229580Y-92121904D02*
X164277200Y-92074285D01*
X164277200Y-92074285D02*
X164324819Y-91979047D01*
X164324819Y-91979047D02*
X164324819Y-91693333D01*
X164324819Y-91693333D02*
X164277200Y-91598095D01*
X164277200Y-91598095D02*
X164229580Y-91550476D01*
X163324819Y-93026666D02*
X163324819Y-92836190D01*
X163324819Y-92836190D02*
X163372438Y-92740952D01*
X163372438Y-92740952D02*
X163420057Y-92693333D01*
X163420057Y-92693333D02*
X163562914Y-92598095D01*
X163562914Y-92598095D02*
X163753390Y-92550476D01*
X163753390Y-92550476D02*
X164134342Y-92550476D01*
X164134342Y-92550476D02*
X164229580Y-92598095D01*
X164229580Y-92598095D02*
X164277200Y-92645714D01*
X164277200Y-92645714D02*
X164324819Y-92740952D01*
X164324819Y-92740952D02*
X164324819Y-92931428D01*
X164324819Y-92931428D02*
X164277200Y-93026666D01*
X164277200Y-93026666D02*
X164229580Y-93074285D01*
X164229580Y-93074285D02*
X164134342Y-93121904D01*
X164134342Y-93121904D02*
X163896247Y-93121904D01*
X163896247Y-93121904D02*
X163801009Y-93074285D01*
X163801009Y-93074285D02*
X163753390Y-93026666D01*
X163753390Y-93026666D02*
X163705771Y-92931428D01*
X163705771Y-92931428D02*
X163705771Y-92740952D01*
X163705771Y-92740952D02*
X163753390Y-92645714D01*
X163753390Y-92645714D02*
X163801009Y-92598095D01*
X163801009Y-92598095D02*
X163896247Y-92550476D01*
X164004819Y-95408095D02*
X163004819Y-95408095D01*
X164004819Y-95979523D02*
X163433390Y-95550952D01*
X163004819Y-95979523D02*
X163576247Y-95408095D01*
X231604819Y-109715714D02*
X230604819Y-109715714D01*
X230604819Y-109715714D02*
X230604819Y-109953809D01*
X230604819Y-109953809D02*
X230652438Y-110096666D01*
X230652438Y-110096666D02*
X230747676Y-110191904D01*
X230747676Y-110191904D02*
X230842914Y-110239523D01*
X230842914Y-110239523D02*
X231033390Y-110287142D01*
X231033390Y-110287142D02*
X231176247Y-110287142D01*
X231176247Y-110287142D02*
X231366723Y-110239523D01*
X231366723Y-110239523D02*
X231461961Y-110191904D01*
X231461961Y-110191904D02*
X231557200Y-110096666D01*
X231557200Y-110096666D02*
X231604819Y-109953809D01*
X231604819Y-109953809D02*
X231604819Y-109715714D01*
X230604819Y-111191904D02*
X230604819Y-110715714D01*
X230604819Y-110715714D02*
X231081009Y-110668095D01*
X231081009Y-110668095D02*
X231033390Y-110715714D01*
X231033390Y-110715714D02*
X230985771Y-110810952D01*
X230985771Y-110810952D02*
X230985771Y-111049047D01*
X230985771Y-111049047D02*
X231033390Y-111144285D01*
X231033390Y-111144285D02*
X231081009Y-111191904D01*
X231081009Y-111191904D02*
X231176247Y-111239523D01*
X231176247Y-111239523D02*
X231414342Y-111239523D01*
X231414342Y-111239523D02*
X231509580Y-111191904D01*
X231509580Y-111191904D02*
X231557200Y-111144285D01*
X231557200Y-111144285D02*
X231604819Y-111049047D01*
X231604819Y-111049047D02*
X231604819Y-110810952D01*
X231604819Y-110810952D02*
X231557200Y-110715714D01*
X231557200Y-110715714D02*
X231509580Y-110668095D01*
X230700057Y-111620476D02*
X230652438Y-111668095D01*
X230652438Y-111668095D02*
X230604819Y-111763333D01*
X230604819Y-111763333D02*
X230604819Y-112001428D01*
X230604819Y-112001428D02*
X230652438Y-112096666D01*
X230652438Y-112096666D02*
X230700057Y-112144285D01*
X230700057Y-112144285D02*
X230795295Y-112191904D01*
X230795295Y-112191904D02*
X230890533Y-112191904D01*
X230890533Y-112191904D02*
X231033390Y-112144285D01*
X231033390Y-112144285D02*
X231604819Y-111572857D01*
X231604819Y-111572857D02*
X231604819Y-112191904D01*
X231284819Y-114478095D02*
X230284819Y-114478095D01*
X231284819Y-115049523D02*
X230713390Y-114620952D01*
X230284819Y-115049523D02*
X230856247Y-114478095D01*
X207704819Y-128785714D02*
X206704819Y-128785714D01*
X206704819Y-128785714D02*
X206704819Y-129023809D01*
X206704819Y-129023809D02*
X206752438Y-129166666D01*
X206752438Y-129166666D02*
X206847676Y-129261904D01*
X206847676Y-129261904D02*
X206942914Y-129309523D01*
X206942914Y-129309523D02*
X207133390Y-129357142D01*
X207133390Y-129357142D02*
X207276247Y-129357142D01*
X207276247Y-129357142D02*
X207466723Y-129309523D01*
X207466723Y-129309523D02*
X207561961Y-129261904D01*
X207561961Y-129261904D02*
X207657200Y-129166666D01*
X207657200Y-129166666D02*
X207704819Y-129023809D01*
X207704819Y-129023809D02*
X207704819Y-128785714D01*
X206704819Y-130261904D02*
X206704819Y-129785714D01*
X206704819Y-129785714D02*
X207181009Y-129738095D01*
X207181009Y-129738095D02*
X207133390Y-129785714D01*
X207133390Y-129785714D02*
X207085771Y-129880952D01*
X207085771Y-129880952D02*
X207085771Y-130119047D01*
X207085771Y-130119047D02*
X207133390Y-130214285D01*
X207133390Y-130214285D02*
X207181009Y-130261904D01*
X207181009Y-130261904D02*
X207276247Y-130309523D01*
X207276247Y-130309523D02*
X207514342Y-130309523D01*
X207514342Y-130309523D02*
X207609580Y-130261904D01*
X207609580Y-130261904D02*
X207657200Y-130214285D01*
X207657200Y-130214285D02*
X207704819Y-130119047D01*
X207704819Y-130119047D02*
X207704819Y-129880952D01*
X207704819Y-129880952D02*
X207657200Y-129785714D01*
X207657200Y-129785714D02*
X207609580Y-129738095D01*
X207133390Y-130880952D02*
X207085771Y-130785714D01*
X207085771Y-130785714D02*
X207038152Y-130738095D01*
X207038152Y-130738095D02*
X206942914Y-130690476D01*
X206942914Y-130690476D02*
X206895295Y-130690476D01*
X206895295Y-130690476D02*
X206800057Y-130738095D01*
X206800057Y-130738095D02*
X206752438Y-130785714D01*
X206752438Y-130785714D02*
X206704819Y-130880952D01*
X206704819Y-130880952D02*
X206704819Y-131071428D01*
X206704819Y-131071428D02*
X206752438Y-131166666D01*
X206752438Y-131166666D02*
X206800057Y-131214285D01*
X206800057Y-131214285D02*
X206895295Y-131261904D01*
X206895295Y-131261904D02*
X206942914Y-131261904D01*
X206942914Y-131261904D02*
X207038152Y-131214285D01*
X207038152Y-131214285D02*
X207085771Y-131166666D01*
X207085771Y-131166666D02*
X207133390Y-131071428D01*
X207133390Y-131071428D02*
X207133390Y-130880952D01*
X207133390Y-130880952D02*
X207181009Y-130785714D01*
X207181009Y-130785714D02*
X207228628Y-130738095D01*
X207228628Y-130738095D02*
X207323866Y-130690476D01*
X207323866Y-130690476D02*
X207514342Y-130690476D01*
X207514342Y-130690476D02*
X207609580Y-130738095D01*
X207609580Y-130738095D02*
X207657200Y-130785714D01*
X207657200Y-130785714D02*
X207704819Y-130880952D01*
X207704819Y-130880952D02*
X207704819Y-131071428D01*
X207704819Y-131071428D02*
X207657200Y-131166666D01*
X207657200Y-131166666D02*
X207609580Y-131214285D01*
X207609580Y-131214285D02*
X207514342Y-131261904D01*
X207514342Y-131261904D02*
X207323866Y-131261904D01*
X207323866Y-131261904D02*
X207228628Y-131214285D01*
X207228628Y-131214285D02*
X207181009Y-131166666D01*
X207181009Y-131166666D02*
X207133390Y-131071428D01*
X207384819Y-133548095D02*
X206384819Y-133548095D01*
X207384819Y-134119523D02*
X206813390Y-133690952D01*
X206384819Y-134119523D02*
X206956247Y-133548095D01*
X17244819Y-71735714D02*
X16244819Y-71735714D01*
X16244819Y-71735714D02*
X16244819Y-71973809D01*
X16244819Y-71973809D02*
X16292438Y-72116666D01*
X16292438Y-72116666D02*
X16387676Y-72211904D01*
X16387676Y-72211904D02*
X16482914Y-72259523D01*
X16482914Y-72259523D02*
X16673390Y-72307142D01*
X16673390Y-72307142D02*
X16816247Y-72307142D01*
X16816247Y-72307142D02*
X17006723Y-72259523D01*
X17006723Y-72259523D02*
X17101961Y-72211904D01*
X17101961Y-72211904D02*
X17197200Y-72116666D01*
X17197200Y-72116666D02*
X17244819Y-71973809D01*
X17244819Y-71973809D02*
X17244819Y-71735714D01*
X16340057Y-72688095D02*
X16292438Y-72735714D01*
X16292438Y-72735714D02*
X16244819Y-72830952D01*
X16244819Y-72830952D02*
X16244819Y-73069047D01*
X16244819Y-73069047D02*
X16292438Y-73164285D01*
X16292438Y-73164285D02*
X16340057Y-73211904D01*
X16340057Y-73211904D02*
X16435295Y-73259523D01*
X16435295Y-73259523D02*
X16530533Y-73259523D01*
X16530533Y-73259523D02*
X16673390Y-73211904D01*
X16673390Y-73211904D02*
X17244819Y-72640476D01*
X17244819Y-72640476D02*
X17244819Y-73259523D01*
X16673390Y-73830952D02*
X16625771Y-73735714D01*
X16625771Y-73735714D02*
X16578152Y-73688095D01*
X16578152Y-73688095D02*
X16482914Y-73640476D01*
X16482914Y-73640476D02*
X16435295Y-73640476D01*
X16435295Y-73640476D02*
X16340057Y-73688095D01*
X16340057Y-73688095D02*
X16292438Y-73735714D01*
X16292438Y-73735714D02*
X16244819Y-73830952D01*
X16244819Y-73830952D02*
X16244819Y-74021428D01*
X16244819Y-74021428D02*
X16292438Y-74116666D01*
X16292438Y-74116666D02*
X16340057Y-74164285D01*
X16340057Y-74164285D02*
X16435295Y-74211904D01*
X16435295Y-74211904D02*
X16482914Y-74211904D01*
X16482914Y-74211904D02*
X16578152Y-74164285D01*
X16578152Y-74164285D02*
X16625771Y-74116666D01*
X16625771Y-74116666D02*
X16673390Y-74021428D01*
X16673390Y-74021428D02*
X16673390Y-73830952D01*
X16673390Y-73830952D02*
X16721009Y-73735714D01*
X16721009Y-73735714D02*
X16768628Y-73688095D01*
X16768628Y-73688095D02*
X16863866Y-73640476D01*
X16863866Y-73640476D02*
X17054342Y-73640476D01*
X17054342Y-73640476D02*
X17149580Y-73688095D01*
X17149580Y-73688095D02*
X17197200Y-73735714D01*
X17197200Y-73735714D02*
X17244819Y-73830952D01*
X17244819Y-73830952D02*
X17244819Y-74021428D01*
X17244819Y-74021428D02*
X17197200Y-74116666D01*
X17197200Y-74116666D02*
X17149580Y-74164285D01*
X17149580Y-74164285D02*
X17054342Y-74211904D01*
X17054342Y-74211904D02*
X16863866Y-74211904D01*
X16863866Y-74211904D02*
X16768628Y-74164285D01*
X16768628Y-74164285D02*
X16721009Y-74116666D01*
X16721009Y-74116666D02*
X16673390Y-74021428D01*
X16924819Y-76498095D02*
X15924819Y-76498095D01*
X16924819Y-77069523D02*
X16353390Y-76640952D01*
X15924819Y-77069523D02*
X16496247Y-76498095D01*
X169554819Y-53051905D02*
X168554819Y-53051905D01*
X168554819Y-53051905D02*
X168554819Y-53290000D01*
X168554819Y-53290000D02*
X168602438Y-53432857D01*
X168602438Y-53432857D02*
X168697676Y-53528095D01*
X168697676Y-53528095D02*
X168792914Y-53575714D01*
X168792914Y-53575714D02*
X168983390Y-53623333D01*
X168983390Y-53623333D02*
X169126247Y-53623333D01*
X169126247Y-53623333D02*
X169316723Y-53575714D01*
X169316723Y-53575714D02*
X169411961Y-53528095D01*
X169411961Y-53528095D02*
X169507200Y-53432857D01*
X169507200Y-53432857D02*
X169554819Y-53290000D01*
X169554819Y-53290000D02*
X169554819Y-53051905D01*
X168554819Y-53956667D02*
X168554819Y-54623333D01*
X168554819Y-54623333D02*
X169554819Y-54194762D01*
X169234819Y-57338095D02*
X168234819Y-57338095D01*
X169234819Y-57909523D02*
X168663390Y-57480952D01*
X168234819Y-57909523D02*
X168806247Y-57338095D01*
X259304819Y-34215714D02*
X258304819Y-34215714D01*
X258304819Y-34215714D02*
X258304819Y-34453809D01*
X258304819Y-34453809D02*
X258352438Y-34596666D01*
X258352438Y-34596666D02*
X258447676Y-34691904D01*
X258447676Y-34691904D02*
X258542914Y-34739523D01*
X258542914Y-34739523D02*
X258733390Y-34787142D01*
X258733390Y-34787142D02*
X258876247Y-34787142D01*
X258876247Y-34787142D02*
X259066723Y-34739523D01*
X259066723Y-34739523D02*
X259161961Y-34691904D01*
X259161961Y-34691904D02*
X259257200Y-34596666D01*
X259257200Y-34596666D02*
X259304819Y-34453809D01*
X259304819Y-34453809D02*
X259304819Y-34215714D01*
X258304819Y-35644285D02*
X258304819Y-35453809D01*
X258304819Y-35453809D02*
X258352438Y-35358571D01*
X258352438Y-35358571D02*
X258400057Y-35310952D01*
X258400057Y-35310952D02*
X258542914Y-35215714D01*
X258542914Y-35215714D02*
X258733390Y-35168095D01*
X258733390Y-35168095D02*
X259114342Y-35168095D01*
X259114342Y-35168095D02*
X259209580Y-35215714D01*
X259209580Y-35215714D02*
X259257200Y-35263333D01*
X259257200Y-35263333D02*
X259304819Y-35358571D01*
X259304819Y-35358571D02*
X259304819Y-35549047D01*
X259304819Y-35549047D02*
X259257200Y-35644285D01*
X259257200Y-35644285D02*
X259209580Y-35691904D01*
X259209580Y-35691904D02*
X259114342Y-35739523D01*
X259114342Y-35739523D02*
X258876247Y-35739523D01*
X258876247Y-35739523D02*
X258781009Y-35691904D01*
X258781009Y-35691904D02*
X258733390Y-35644285D01*
X258733390Y-35644285D02*
X258685771Y-35549047D01*
X258685771Y-35549047D02*
X258685771Y-35358571D01*
X258685771Y-35358571D02*
X258733390Y-35263333D01*
X258733390Y-35263333D02*
X258781009Y-35215714D01*
X258781009Y-35215714D02*
X258876247Y-35168095D01*
X258304819Y-36072857D02*
X258304819Y-36691904D01*
X258304819Y-36691904D02*
X258685771Y-36358571D01*
X258685771Y-36358571D02*
X258685771Y-36501428D01*
X258685771Y-36501428D02*
X258733390Y-36596666D01*
X258733390Y-36596666D02*
X258781009Y-36644285D01*
X258781009Y-36644285D02*
X258876247Y-36691904D01*
X258876247Y-36691904D02*
X259114342Y-36691904D01*
X259114342Y-36691904D02*
X259209580Y-36644285D01*
X259209580Y-36644285D02*
X259257200Y-36596666D01*
X259257200Y-36596666D02*
X259304819Y-36501428D01*
X259304819Y-36501428D02*
X259304819Y-36215714D01*
X259304819Y-36215714D02*
X259257200Y-36120476D01*
X259257200Y-36120476D02*
X259209580Y-36072857D01*
X258984819Y-38978095D02*
X257984819Y-38978095D01*
X258984819Y-39549523D02*
X258413390Y-39120952D01*
X257984819Y-39549523D02*
X258556247Y-38978095D01*
X17204819Y-53031905D02*
X16204819Y-53031905D01*
X16204819Y-53031905D02*
X16204819Y-53270000D01*
X16204819Y-53270000D02*
X16252438Y-53412857D01*
X16252438Y-53412857D02*
X16347676Y-53508095D01*
X16347676Y-53508095D02*
X16442914Y-53555714D01*
X16442914Y-53555714D02*
X16633390Y-53603333D01*
X16633390Y-53603333D02*
X16776247Y-53603333D01*
X16776247Y-53603333D02*
X16966723Y-53555714D01*
X16966723Y-53555714D02*
X17061961Y-53508095D01*
X17061961Y-53508095D02*
X17157200Y-53412857D01*
X17157200Y-53412857D02*
X17204819Y-53270000D01*
X17204819Y-53270000D02*
X17204819Y-53031905D01*
X17204819Y-54555714D02*
X17204819Y-53984286D01*
X17204819Y-54270000D02*
X16204819Y-54270000D01*
X16204819Y-54270000D02*
X16347676Y-54174762D01*
X16347676Y-54174762D02*
X16442914Y-54079524D01*
X16442914Y-54079524D02*
X16490533Y-53984286D01*
X16884819Y-57318095D02*
X15884819Y-57318095D01*
X16884819Y-57889523D02*
X16313390Y-57460952D01*
X15884819Y-57889523D02*
X16456247Y-57318095D01*
X183594819Y-90645714D02*
X182594819Y-90645714D01*
X182594819Y-90645714D02*
X182594819Y-90883809D01*
X182594819Y-90883809D02*
X182642438Y-91026666D01*
X182642438Y-91026666D02*
X182737676Y-91121904D01*
X182737676Y-91121904D02*
X182832914Y-91169523D01*
X182832914Y-91169523D02*
X183023390Y-91217142D01*
X183023390Y-91217142D02*
X183166247Y-91217142D01*
X183166247Y-91217142D02*
X183356723Y-91169523D01*
X183356723Y-91169523D02*
X183451961Y-91121904D01*
X183451961Y-91121904D02*
X183547200Y-91026666D01*
X183547200Y-91026666D02*
X183594819Y-90883809D01*
X183594819Y-90883809D02*
X183594819Y-90645714D01*
X182594819Y-91550476D02*
X182594819Y-92169523D01*
X182594819Y-92169523D02*
X182975771Y-91836190D01*
X182975771Y-91836190D02*
X182975771Y-91979047D01*
X182975771Y-91979047D02*
X183023390Y-92074285D01*
X183023390Y-92074285D02*
X183071009Y-92121904D01*
X183071009Y-92121904D02*
X183166247Y-92169523D01*
X183166247Y-92169523D02*
X183404342Y-92169523D01*
X183404342Y-92169523D02*
X183499580Y-92121904D01*
X183499580Y-92121904D02*
X183547200Y-92074285D01*
X183547200Y-92074285D02*
X183594819Y-91979047D01*
X183594819Y-91979047D02*
X183594819Y-91693333D01*
X183594819Y-91693333D02*
X183547200Y-91598095D01*
X183547200Y-91598095D02*
X183499580Y-91550476D01*
X182594819Y-92502857D02*
X182594819Y-93169523D01*
X182594819Y-93169523D02*
X183594819Y-92740952D01*
X183274819Y-95408095D02*
X182274819Y-95408095D01*
X183274819Y-95979523D02*
X182703390Y-95550952D01*
X182274819Y-95979523D02*
X182846247Y-95408095D01*
X159244819Y-71635714D02*
X158244819Y-71635714D01*
X158244819Y-71635714D02*
X158244819Y-71873809D01*
X158244819Y-71873809D02*
X158292438Y-72016666D01*
X158292438Y-72016666D02*
X158387676Y-72111904D01*
X158387676Y-72111904D02*
X158482914Y-72159523D01*
X158482914Y-72159523D02*
X158673390Y-72207142D01*
X158673390Y-72207142D02*
X158816247Y-72207142D01*
X158816247Y-72207142D02*
X159006723Y-72159523D01*
X159006723Y-72159523D02*
X159101961Y-72111904D01*
X159101961Y-72111904D02*
X159197200Y-72016666D01*
X159197200Y-72016666D02*
X159244819Y-71873809D01*
X159244819Y-71873809D02*
X159244819Y-71635714D01*
X158340057Y-72588095D02*
X158292438Y-72635714D01*
X158292438Y-72635714D02*
X158244819Y-72730952D01*
X158244819Y-72730952D02*
X158244819Y-72969047D01*
X158244819Y-72969047D02*
X158292438Y-73064285D01*
X158292438Y-73064285D02*
X158340057Y-73111904D01*
X158340057Y-73111904D02*
X158435295Y-73159523D01*
X158435295Y-73159523D02*
X158530533Y-73159523D01*
X158530533Y-73159523D02*
X158673390Y-73111904D01*
X158673390Y-73111904D02*
X159244819Y-72540476D01*
X159244819Y-72540476D02*
X159244819Y-73159523D01*
X159244819Y-74111904D02*
X159244819Y-73540476D01*
X159244819Y-73826190D02*
X158244819Y-73826190D01*
X158244819Y-73826190D02*
X158387676Y-73730952D01*
X158387676Y-73730952D02*
X158482914Y-73635714D01*
X158482914Y-73635714D02*
X158530533Y-73540476D01*
X158924819Y-76398095D02*
X157924819Y-76398095D01*
X158924819Y-76969523D02*
X158353390Y-76540952D01*
X157924819Y-76969523D02*
X158496247Y-76398095D01*
X207604819Y-53051905D02*
X206604819Y-53051905D01*
X206604819Y-53051905D02*
X206604819Y-53290000D01*
X206604819Y-53290000D02*
X206652438Y-53432857D01*
X206652438Y-53432857D02*
X206747676Y-53528095D01*
X206747676Y-53528095D02*
X206842914Y-53575714D01*
X206842914Y-53575714D02*
X207033390Y-53623333D01*
X207033390Y-53623333D02*
X207176247Y-53623333D01*
X207176247Y-53623333D02*
X207366723Y-53575714D01*
X207366723Y-53575714D02*
X207461961Y-53528095D01*
X207461961Y-53528095D02*
X207557200Y-53432857D01*
X207557200Y-53432857D02*
X207604819Y-53290000D01*
X207604819Y-53290000D02*
X207604819Y-53051905D01*
X206604819Y-54528095D02*
X206604819Y-54051905D01*
X206604819Y-54051905D02*
X207081009Y-54004286D01*
X207081009Y-54004286D02*
X207033390Y-54051905D01*
X207033390Y-54051905D02*
X206985771Y-54147143D01*
X206985771Y-54147143D02*
X206985771Y-54385238D01*
X206985771Y-54385238D02*
X207033390Y-54480476D01*
X207033390Y-54480476D02*
X207081009Y-54528095D01*
X207081009Y-54528095D02*
X207176247Y-54575714D01*
X207176247Y-54575714D02*
X207414342Y-54575714D01*
X207414342Y-54575714D02*
X207509580Y-54528095D01*
X207509580Y-54528095D02*
X207557200Y-54480476D01*
X207557200Y-54480476D02*
X207604819Y-54385238D01*
X207604819Y-54385238D02*
X207604819Y-54147143D01*
X207604819Y-54147143D02*
X207557200Y-54051905D01*
X207557200Y-54051905D02*
X207509580Y-54004286D01*
X207284819Y-57338095D02*
X206284819Y-57338095D01*
X207284819Y-57909523D02*
X206713390Y-57480952D01*
X206284819Y-57909523D02*
X206856247Y-57338095D01*
X35834819Y-52575714D02*
X34834819Y-52575714D01*
X34834819Y-52575714D02*
X34834819Y-52813809D01*
X34834819Y-52813809D02*
X34882438Y-52956666D01*
X34882438Y-52956666D02*
X34977676Y-53051904D01*
X34977676Y-53051904D02*
X35072914Y-53099523D01*
X35072914Y-53099523D02*
X35263390Y-53147142D01*
X35263390Y-53147142D02*
X35406247Y-53147142D01*
X35406247Y-53147142D02*
X35596723Y-53099523D01*
X35596723Y-53099523D02*
X35691961Y-53051904D01*
X35691961Y-53051904D02*
X35787200Y-52956666D01*
X35787200Y-52956666D02*
X35834819Y-52813809D01*
X35834819Y-52813809D02*
X35834819Y-52575714D01*
X35834819Y-54099523D02*
X35834819Y-53528095D01*
X35834819Y-53813809D02*
X34834819Y-53813809D01*
X34834819Y-53813809D02*
X34977676Y-53718571D01*
X34977676Y-53718571D02*
X35072914Y-53623333D01*
X35072914Y-53623333D02*
X35120533Y-53528095D01*
X35168152Y-54956666D02*
X35834819Y-54956666D01*
X34787200Y-54718571D02*
X35501485Y-54480476D01*
X35501485Y-54480476D02*
X35501485Y-55099523D01*
X35514819Y-57338095D02*
X34514819Y-57338095D01*
X35514819Y-57909523D02*
X34943390Y-57480952D01*
X34514819Y-57909523D02*
X35086247Y-57338095D01*
X264514819Y-53051905D02*
X263514819Y-53051905D01*
X263514819Y-53051905D02*
X263514819Y-53290000D01*
X263514819Y-53290000D02*
X263562438Y-53432857D01*
X263562438Y-53432857D02*
X263657676Y-53528095D01*
X263657676Y-53528095D02*
X263752914Y-53575714D01*
X263752914Y-53575714D02*
X263943390Y-53623333D01*
X263943390Y-53623333D02*
X264086247Y-53623333D01*
X264086247Y-53623333D02*
X264276723Y-53575714D01*
X264276723Y-53575714D02*
X264371961Y-53528095D01*
X264371961Y-53528095D02*
X264467200Y-53432857D01*
X264467200Y-53432857D02*
X264514819Y-53290000D01*
X264514819Y-53290000D02*
X264514819Y-53051905D01*
X263610057Y-54004286D02*
X263562438Y-54051905D01*
X263562438Y-54051905D02*
X263514819Y-54147143D01*
X263514819Y-54147143D02*
X263514819Y-54385238D01*
X263514819Y-54385238D02*
X263562438Y-54480476D01*
X263562438Y-54480476D02*
X263610057Y-54528095D01*
X263610057Y-54528095D02*
X263705295Y-54575714D01*
X263705295Y-54575714D02*
X263800533Y-54575714D01*
X263800533Y-54575714D02*
X263943390Y-54528095D01*
X263943390Y-54528095D02*
X264514819Y-53956667D01*
X264514819Y-53956667D02*
X264514819Y-54575714D01*
X264194819Y-57338095D02*
X263194819Y-57338095D01*
X264194819Y-57909523D02*
X263623390Y-57480952D01*
X263194819Y-57909523D02*
X263766247Y-57338095D01*
X231604819Y-128785714D02*
X230604819Y-128785714D01*
X230604819Y-128785714D02*
X230604819Y-129023809D01*
X230604819Y-129023809D02*
X230652438Y-129166666D01*
X230652438Y-129166666D02*
X230747676Y-129261904D01*
X230747676Y-129261904D02*
X230842914Y-129309523D01*
X230842914Y-129309523D02*
X231033390Y-129357142D01*
X231033390Y-129357142D02*
X231176247Y-129357142D01*
X231176247Y-129357142D02*
X231366723Y-129309523D01*
X231366723Y-129309523D02*
X231461961Y-129261904D01*
X231461961Y-129261904D02*
X231557200Y-129166666D01*
X231557200Y-129166666D02*
X231604819Y-129023809D01*
X231604819Y-129023809D02*
X231604819Y-128785714D01*
X230604819Y-130261904D02*
X230604819Y-129785714D01*
X230604819Y-129785714D02*
X231081009Y-129738095D01*
X231081009Y-129738095D02*
X231033390Y-129785714D01*
X231033390Y-129785714D02*
X230985771Y-129880952D01*
X230985771Y-129880952D02*
X230985771Y-130119047D01*
X230985771Y-130119047D02*
X231033390Y-130214285D01*
X231033390Y-130214285D02*
X231081009Y-130261904D01*
X231081009Y-130261904D02*
X231176247Y-130309523D01*
X231176247Y-130309523D02*
X231414342Y-130309523D01*
X231414342Y-130309523D02*
X231509580Y-130261904D01*
X231509580Y-130261904D02*
X231557200Y-130214285D01*
X231557200Y-130214285D02*
X231604819Y-130119047D01*
X231604819Y-130119047D02*
X231604819Y-129880952D01*
X231604819Y-129880952D02*
X231557200Y-129785714D01*
X231557200Y-129785714D02*
X231509580Y-129738095D01*
X231604819Y-130785714D02*
X231604819Y-130976190D01*
X231604819Y-130976190D02*
X231557200Y-131071428D01*
X231557200Y-131071428D02*
X231509580Y-131119047D01*
X231509580Y-131119047D02*
X231366723Y-131214285D01*
X231366723Y-131214285D02*
X231176247Y-131261904D01*
X231176247Y-131261904D02*
X230795295Y-131261904D01*
X230795295Y-131261904D02*
X230700057Y-131214285D01*
X230700057Y-131214285D02*
X230652438Y-131166666D01*
X230652438Y-131166666D02*
X230604819Y-131071428D01*
X230604819Y-131071428D02*
X230604819Y-130880952D01*
X230604819Y-130880952D02*
X230652438Y-130785714D01*
X230652438Y-130785714D02*
X230700057Y-130738095D01*
X230700057Y-130738095D02*
X230795295Y-130690476D01*
X230795295Y-130690476D02*
X231033390Y-130690476D01*
X231033390Y-130690476D02*
X231128628Y-130738095D01*
X231128628Y-130738095D02*
X231176247Y-130785714D01*
X231176247Y-130785714D02*
X231223866Y-130880952D01*
X231223866Y-130880952D02*
X231223866Y-131071428D01*
X231223866Y-131071428D02*
X231176247Y-131166666D01*
X231176247Y-131166666D02*
X231128628Y-131214285D01*
X231128628Y-131214285D02*
X231033390Y-131261904D01*
X231284819Y-133548095D02*
X230284819Y-133548095D01*
X231284819Y-134119523D02*
X230713390Y-133690952D01*
X230284819Y-134119523D02*
X230856247Y-133548095D01*
X202714819Y-90645714D02*
X201714819Y-90645714D01*
X201714819Y-90645714D02*
X201714819Y-90883809D01*
X201714819Y-90883809D02*
X201762438Y-91026666D01*
X201762438Y-91026666D02*
X201857676Y-91121904D01*
X201857676Y-91121904D02*
X201952914Y-91169523D01*
X201952914Y-91169523D02*
X202143390Y-91217142D01*
X202143390Y-91217142D02*
X202286247Y-91217142D01*
X202286247Y-91217142D02*
X202476723Y-91169523D01*
X202476723Y-91169523D02*
X202571961Y-91121904D01*
X202571961Y-91121904D02*
X202667200Y-91026666D01*
X202667200Y-91026666D02*
X202714819Y-90883809D01*
X202714819Y-90883809D02*
X202714819Y-90645714D01*
X201714819Y-91550476D02*
X201714819Y-92169523D01*
X201714819Y-92169523D02*
X202095771Y-91836190D01*
X202095771Y-91836190D02*
X202095771Y-91979047D01*
X202095771Y-91979047D02*
X202143390Y-92074285D01*
X202143390Y-92074285D02*
X202191009Y-92121904D01*
X202191009Y-92121904D02*
X202286247Y-92169523D01*
X202286247Y-92169523D02*
X202524342Y-92169523D01*
X202524342Y-92169523D02*
X202619580Y-92121904D01*
X202619580Y-92121904D02*
X202667200Y-92074285D01*
X202667200Y-92074285D02*
X202714819Y-91979047D01*
X202714819Y-91979047D02*
X202714819Y-91693333D01*
X202714819Y-91693333D02*
X202667200Y-91598095D01*
X202667200Y-91598095D02*
X202619580Y-91550476D01*
X202143390Y-92740952D02*
X202095771Y-92645714D01*
X202095771Y-92645714D02*
X202048152Y-92598095D01*
X202048152Y-92598095D02*
X201952914Y-92550476D01*
X201952914Y-92550476D02*
X201905295Y-92550476D01*
X201905295Y-92550476D02*
X201810057Y-92598095D01*
X201810057Y-92598095D02*
X201762438Y-92645714D01*
X201762438Y-92645714D02*
X201714819Y-92740952D01*
X201714819Y-92740952D02*
X201714819Y-92931428D01*
X201714819Y-92931428D02*
X201762438Y-93026666D01*
X201762438Y-93026666D02*
X201810057Y-93074285D01*
X201810057Y-93074285D02*
X201905295Y-93121904D01*
X201905295Y-93121904D02*
X201952914Y-93121904D01*
X201952914Y-93121904D02*
X202048152Y-93074285D01*
X202048152Y-93074285D02*
X202095771Y-93026666D01*
X202095771Y-93026666D02*
X202143390Y-92931428D01*
X202143390Y-92931428D02*
X202143390Y-92740952D01*
X202143390Y-92740952D02*
X202191009Y-92645714D01*
X202191009Y-92645714D02*
X202238628Y-92598095D01*
X202238628Y-92598095D02*
X202333866Y-92550476D01*
X202333866Y-92550476D02*
X202524342Y-92550476D01*
X202524342Y-92550476D02*
X202619580Y-92598095D01*
X202619580Y-92598095D02*
X202667200Y-92645714D01*
X202667200Y-92645714D02*
X202714819Y-92740952D01*
X202714819Y-92740952D02*
X202714819Y-92931428D01*
X202714819Y-92931428D02*
X202667200Y-93026666D01*
X202667200Y-93026666D02*
X202619580Y-93074285D01*
X202619580Y-93074285D02*
X202524342Y-93121904D01*
X202524342Y-93121904D02*
X202333866Y-93121904D01*
X202333866Y-93121904D02*
X202238628Y-93074285D01*
X202238628Y-93074285D02*
X202191009Y-93026666D01*
X202191009Y-93026666D02*
X202143390Y-92931428D01*
X202394819Y-95408095D02*
X201394819Y-95408095D01*
X202394819Y-95979523D02*
X201823390Y-95550952D01*
X201394819Y-95979523D02*
X201966247Y-95408095D01*
X221514819Y-90645714D02*
X220514819Y-90645714D01*
X220514819Y-90645714D02*
X220514819Y-90883809D01*
X220514819Y-90883809D02*
X220562438Y-91026666D01*
X220562438Y-91026666D02*
X220657676Y-91121904D01*
X220657676Y-91121904D02*
X220752914Y-91169523D01*
X220752914Y-91169523D02*
X220943390Y-91217142D01*
X220943390Y-91217142D02*
X221086247Y-91217142D01*
X221086247Y-91217142D02*
X221276723Y-91169523D01*
X221276723Y-91169523D02*
X221371961Y-91121904D01*
X221371961Y-91121904D02*
X221467200Y-91026666D01*
X221467200Y-91026666D02*
X221514819Y-90883809D01*
X221514819Y-90883809D02*
X221514819Y-90645714D01*
X220514819Y-91550476D02*
X220514819Y-92169523D01*
X220514819Y-92169523D02*
X220895771Y-91836190D01*
X220895771Y-91836190D02*
X220895771Y-91979047D01*
X220895771Y-91979047D02*
X220943390Y-92074285D01*
X220943390Y-92074285D02*
X220991009Y-92121904D01*
X220991009Y-92121904D02*
X221086247Y-92169523D01*
X221086247Y-92169523D02*
X221324342Y-92169523D01*
X221324342Y-92169523D02*
X221419580Y-92121904D01*
X221419580Y-92121904D02*
X221467200Y-92074285D01*
X221467200Y-92074285D02*
X221514819Y-91979047D01*
X221514819Y-91979047D02*
X221514819Y-91693333D01*
X221514819Y-91693333D02*
X221467200Y-91598095D01*
X221467200Y-91598095D02*
X221419580Y-91550476D01*
X221514819Y-92645714D02*
X221514819Y-92836190D01*
X221514819Y-92836190D02*
X221467200Y-92931428D01*
X221467200Y-92931428D02*
X221419580Y-92979047D01*
X221419580Y-92979047D02*
X221276723Y-93074285D01*
X221276723Y-93074285D02*
X221086247Y-93121904D01*
X221086247Y-93121904D02*
X220705295Y-93121904D01*
X220705295Y-93121904D02*
X220610057Y-93074285D01*
X220610057Y-93074285D02*
X220562438Y-93026666D01*
X220562438Y-93026666D02*
X220514819Y-92931428D01*
X220514819Y-92931428D02*
X220514819Y-92740952D01*
X220514819Y-92740952D02*
X220562438Y-92645714D01*
X220562438Y-92645714D02*
X220610057Y-92598095D01*
X220610057Y-92598095D02*
X220705295Y-92550476D01*
X220705295Y-92550476D02*
X220943390Y-92550476D01*
X220943390Y-92550476D02*
X221038628Y-92598095D01*
X221038628Y-92598095D02*
X221086247Y-92645714D01*
X221086247Y-92645714D02*
X221133866Y-92740952D01*
X221133866Y-92740952D02*
X221133866Y-92931428D01*
X221133866Y-92931428D02*
X221086247Y-93026666D01*
X221086247Y-93026666D02*
X221038628Y-93074285D01*
X221038628Y-93074285D02*
X220943390Y-93121904D01*
X221194819Y-95408095D02*
X220194819Y-95408095D01*
X221194819Y-95979523D02*
X220623390Y-95550952D01*
X220194819Y-95979523D02*
X220766247Y-95408095D01*
X112064819Y-52575714D02*
X111064819Y-52575714D01*
X111064819Y-52575714D02*
X111064819Y-52813809D01*
X111064819Y-52813809D02*
X111112438Y-52956666D01*
X111112438Y-52956666D02*
X111207676Y-53051904D01*
X111207676Y-53051904D02*
X111302914Y-53099523D01*
X111302914Y-53099523D02*
X111493390Y-53147142D01*
X111493390Y-53147142D02*
X111636247Y-53147142D01*
X111636247Y-53147142D02*
X111826723Y-53099523D01*
X111826723Y-53099523D02*
X111921961Y-53051904D01*
X111921961Y-53051904D02*
X112017200Y-52956666D01*
X112017200Y-52956666D02*
X112064819Y-52813809D01*
X112064819Y-52813809D02*
X112064819Y-52575714D01*
X112064819Y-54099523D02*
X112064819Y-53528095D01*
X112064819Y-53813809D02*
X111064819Y-53813809D01*
X111064819Y-53813809D02*
X111207676Y-53718571D01*
X111207676Y-53718571D02*
X111302914Y-53623333D01*
X111302914Y-53623333D02*
X111350533Y-53528095D01*
X111064819Y-54718571D02*
X111064819Y-54813809D01*
X111064819Y-54813809D02*
X111112438Y-54909047D01*
X111112438Y-54909047D02*
X111160057Y-54956666D01*
X111160057Y-54956666D02*
X111255295Y-55004285D01*
X111255295Y-55004285D02*
X111445771Y-55051904D01*
X111445771Y-55051904D02*
X111683866Y-55051904D01*
X111683866Y-55051904D02*
X111874342Y-55004285D01*
X111874342Y-55004285D02*
X111969580Y-54956666D01*
X111969580Y-54956666D02*
X112017200Y-54909047D01*
X112017200Y-54909047D02*
X112064819Y-54813809D01*
X112064819Y-54813809D02*
X112064819Y-54718571D01*
X112064819Y-54718571D02*
X112017200Y-54623333D01*
X112017200Y-54623333D02*
X111969580Y-54575714D01*
X111969580Y-54575714D02*
X111874342Y-54528095D01*
X111874342Y-54528095D02*
X111683866Y-54480476D01*
X111683866Y-54480476D02*
X111445771Y-54480476D01*
X111445771Y-54480476D02*
X111255295Y-54528095D01*
X111255295Y-54528095D02*
X111160057Y-54575714D01*
X111160057Y-54575714D02*
X111112438Y-54623333D01*
X111112438Y-54623333D02*
X111064819Y-54718571D01*
X111744819Y-57338095D02*
X110744819Y-57338095D01*
X111744819Y-57909523D02*
X111173390Y-57480952D01*
X110744819Y-57909523D02*
X111316247Y-57338095D01*
X197374819Y-71635714D02*
X196374819Y-71635714D01*
X196374819Y-71635714D02*
X196374819Y-71873809D01*
X196374819Y-71873809D02*
X196422438Y-72016666D01*
X196422438Y-72016666D02*
X196517676Y-72111904D01*
X196517676Y-72111904D02*
X196612914Y-72159523D01*
X196612914Y-72159523D02*
X196803390Y-72207142D01*
X196803390Y-72207142D02*
X196946247Y-72207142D01*
X196946247Y-72207142D02*
X197136723Y-72159523D01*
X197136723Y-72159523D02*
X197231961Y-72111904D01*
X197231961Y-72111904D02*
X197327200Y-72016666D01*
X197327200Y-72016666D02*
X197374819Y-71873809D01*
X197374819Y-71873809D02*
X197374819Y-71635714D01*
X197374819Y-73159523D02*
X197374819Y-72588095D01*
X197374819Y-72873809D02*
X196374819Y-72873809D01*
X196374819Y-72873809D02*
X196517676Y-72778571D01*
X196517676Y-72778571D02*
X196612914Y-72683333D01*
X196612914Y-72683333D02*
X196660533Y-72588095D01*
X197374819Y-73635714D02*
X197374819Y-73826190D01*
X197374819Y-73826190D02*
X197327200Y-73921428D01*
X197327200Y-73921428D02*
X197279580Y-73969047D01*
X197279580Y-73969047D02*
X197136723Y-74064285D01*
X197136723Y-74064285D02*
X196946247Y-74111904D01*
X196946247Y-74111904D02*
X196565295Y-74111904D01*
X196565295Y-74111904D02*
X196470057Y-74064285D01*
X196470057Y-74064285D02*
X196422438Y-74016666D01*
X196422438Y-74016666D02*
X196374819Y-73921428D01*
X196374819Y-73921428D02*
X196374819Y-73730952D01*
X196374819Y-73730952D02*
X196422438Y-73635714D01*
X196422438Y-73635714D02*
X196470057Y-73588095D01*
X196470057Y-73588095D02*
X196565295Y-73540476D01*
X196565295Y-73540476D02*
X196803390Y-73540476D01*
X196803390Y-73540476D02*
X196898628Y-73588095D01*
X196898628Y-73588095D02*
X196946247Y-73635714D01*
X196946247Y-73635714D02*
X196993866Y-73730952D01*
X196993866Y-73730952D02*
X196993866Y-73921428D01*
X196993866Y-73921428D02*
X196946247Y-74016666D01*
X196946247Y-74016666D02*
X196898628Y-74064285D01*
X196898628Y-74064285D02*
X196803390Y-74111904D01*
X197054819Y-76398095D02*
X196054819Y-76398095D01*
X197054819Y-76969523D02*
X196483390Y-76540952D01*
X196054819Y-76969523D02*
X196626247Y-76398095D01*
X155224819Y-109715714D02*
X154224819Y-109715714D01*
X154224819Y-109715714D02*
X154224819Y-109953809D01*
X154224819Y-109953809D02*
X154272438Y-110096666D01*
X154272438Y-110096666D02*
X154367676Y-110191904D01*
X154367676Y-110191904D02*
X154462914Y-110239523D01*
X154462914Y-110239523D02*
X154653390Y-110287142D01*
X154653390Y-110287142D02*
X154796247Y-110287142D01*
X154796247Y-110287142D02*
X154986723Y-110239523D01*
X154986723Y-110239523D02*
X155081961Y-110191904D01*
X155081961Y-110191904D02*
X155177200Y-110096666D01*
X155177200Y-110096666D02*
X155224819Y-109953809D01*
X155224819Y-109953809D02*
X155224819Y-109715714D01*
X154558152Y-111144285D02*
X155224819Y-111144285D01*
X154177200Y-110906190D02*
X154891485Y-110668095D01*
X154891485Y-110668095D02*
X154891485Y-111287142D01*
X154653390Y-111810952D02*
X154605771Y-111715714D01*
X154605771Y-111715714D02*
X154558152Y-111668095D01*
X154558152Y-111668095D02*
X154462914Y-111620476D01*
X154462914Y-111620476D02*
X154415295Y-111620476D01*
X154415295Y-111620476D02*
X154320057Y-111668095D01*
X154320057Y-111668095D02*
X154272438Y-111715714D01*
X154272438Y-111715714D02*
X154224819Y-111810952D01*
X154224819Y-111810952D02*
X154224819Y-112001428D01*
X154224819Y-112001428D02*
X154272438Y-112096666D01*
X154272438Y-112096666D02*
X154320057Y-112144285D01*
X154320057Y-112144285D02*
X154415295Y-112191904D01*
X154415295Y-112191904D02*
X154462914Y-112191904D01*
X154462914Y-112191904D02*
X154558152Y-112144285D01*
X154558152Y-112144285D02*
X154605771Y-112096666D01*
X154605771Y-112096666D02*
X154653390Y-112001428D01*
X154653390Y-112001428D02*
X154653390Y-111810952D01*
X154653390Y-111810952D02*
X154701009Y-111715714D01*
X154701009Y-111715714D02*
X154748628Y-111668095D01*
X154748628Y-111668095D02*
X154843866Y-111620476D01*
X154843866Y-111620476D02*
X155034342Y-111620476D01*
X155034342Y-111620476D02*
X155129580Y-111668095D01*
X155129580Y-111668095D02*
X155177200Y-111715714D01*
X155177200Y-111715714D02*
X155224819Y-111810952D01*
X155224819Y-111810952D02*
X155224819Y-112001428D01*
X155224819Y-112001428D02*
X155177200Y-112096666D01*
X155177200Y-112096666D02*
X155129580Y-112144285D01*
X155129580Y-112144285D02*
X155034342Y-112191904D01*
X155034342Y-112191904D02*
X154843866Y-112191904D01*
X154843866Y-112191904D02*
X154748628Y-112144285D01*
X154748628Y-112144285D02*
X154701009Y-112096666D01*
X154701009Y-112096666D02*
X154653390Y-112001428D01*
X154904819Y-114478095D02*
X153904819Y-114478095D01*
X154904819Y-115049523D02*
X154333390Y-114620952D01*
X153904819Y-115049523D02*
X154476247Y-114478095D01*
X274054819Y-71575714D02*
X273054819Y-71575714D01*
X273054819Y-71575714D02*
X273054819Y-71813809D01*
X273054819Y-71813809D02*
X273102438Y-71956666D01*
X273102438Y-71956666D02*
X273197676Y-72051904D01*
X273197676Y-72051904D02*
X273292914Y-72099523D01*
X273292914Y-72099523D02*
X273483390Y-72147142D01*
X273483390Y-72147142D02*
X273626247Y-72147142D01*
X273626247Y-72147142D02*
X273816723Y-72099523D01*
X273816723Y-72099523D02*
X273911961Y-72051904D01*
X273911961Y-72051904D02*
X274007200Y-71956666D01*
X274007200Y-71956666D02*
X274054819Y-71813809D01*
X274054819Y-71813809D02*
X274054819Y-71575714D01*
X274054819Y-73099523D02*
X274054819Y-72528095D01*
X274054819Y-72813809D02*
X273054819Y-72813809D01*
X273054819Y-72813809D02*
X273197676Y-72718571D01*
X273197676Y-72718571D02*
X273292914Y-72623333D01*
X273292914Y-72623333D02*
X273340533Y-72528095D01*
X273054819Y-74004285D02*
X273054819Y-73528095D01*
X273054819Y-73528095D02*
X273531009Y-73480476D01*
X273531009Y-73480476D02*
X273483390Y-73528095D01*
X273483390Y-73528095D02*
X273435771Y-73623333D01*
X273435771Y-73623333D02*
X273435771Y-73861428D01*
X273435771Y-73861428D02*
X273483390Y-73956666D01*
X273483390Y-73956666D02*
X273531009Y-74004285D01*
X273531009Y-74004285D02*
X273626247Y-74051904D01*
X273626247Y-74051904D02*
X273864342Y-74051904D01*
X273864342Y-74051904D02*
X273959580Y-74004285D01*
X273959580Y-74004285D02*
X274007200Y-73956666D01*
X274007200Y-73956666D02*
X274054819Y-73861428D01*
X274054819Y-73861428D02*
X274054819Y-73623333D01*
X274054819Y-73623333D02*
X274007200Y-73528095D01*
X274007200Y-73528095D02*
X273959580Y-73480476D01*
X273734819Y-76338095D02*
X272734819Y-76338095D01*
X273734819Y-76909523D02*
X273163390Y-76480952D01*
X272734819Y-76909523D02*
X273306247Y-76338095D01*
X226504819Y-53051905D02*
X225504819Y-53051905D01*
X225504819Y-53051905D02*
X225504819Y-53290000D01*
X225504819Y-53290000D02*
X225552438Y-53432857D01*
X225552438Y-53432857D02*
X225647676Y-53528095D01*
X225647676Y-53528095D02*
X225742914Y-53575714D01*
X225742914Y-53575714D02*
X225933390Y-53623333D01*
X225933390Y-53623333D02*
X226076247Y-53623333D01*
X226076247Y-53623333D02*
X226266723Y-53575714D01*
X226266723Y-53575714D02*
X226361961Y-53528095D01*
X226361961Y-53528095D02*
X226457200Y-53432857D01*
X226457200Y-53432857D02*
X226504819Y-53290000D01*
X226504819Y-53290000D02*
X226504819Y-53051905D01*
X225838152Y-54480476D02*
X226504819Y-54480476D01*
X225457200Y-54242381D02*
X226171485Y-54004286D01*
X226171485Y-54004286D02*
X226171485Y-54623333D01*
X226184819Y-57338095D02*
X225184819Y-57338095D01*
X226184819Y-57909523D02*
X225613390Y-57480952D01*
X225184819Y-57909523D02*
X225756247Y-57338095D01*
X83524819Y-71635714D02*
X82524819Y-71635714D01*
X82524819Y-71635714D02*
X82524819Y-71873809D01*
X82524819Y-71873809D02*
X82572438Y-72016666D01*
X82572438Y-72016666D02*
X82667676Y-72111904D01*
X82667676Y-72111904D02*
X82762914Y-72159523D01*
X82762914Y-72159523D02*
X82953390Y-72207142D01*
X82953390Y-72207142D02*
X83096247Y-72207142D01*
X83096247Y-72207142D02*
X83286723Y-72159523D01*
X83286723Y-72159523D02*
X83381961Y-72111904D01*
X83381961Y-72111904D02*
X83477200Y-72016666D01*
X83477200Y-72016666D02*
X83524819Y-71873809D01*
X83524819Y-71873809D02*
X83524819Y-71635714D01*
X82620057Y-72588095D02*
X82572438Y-72635714D01*
X82572438Y-72635714D02*
X82524819Y-72730952D01*
X82524819Y-72730952D02*
X82524819Y-72969047D01*
X82524819Y-72969047D02*
X82572438Y-73064285D01*
X82572438Y-73064285D02*
X82620057Y-73111904D01*
X82620057Y-73111904D02*
X82715295Y-73159523D01*
X82715295Y-73159523D02*
X82810533Y-73159523D01*
X82810533Y-73159523D02*
X82953390Y-73111904D01*
X82953390Y-73111904D02*
X83524819Y-72540476D01*
X83524819Y-72540476D02*
X83524819Y-73159523D01*
X82524819Y-74064285D02*
X82524819Y-73588095D01*
X82524819Y-73588095D02*
X83001009Y-73540476D01*
X83001009Y-73540476D02*
X82953390Y-73588095D01*
X82953390Y-73588095D02*
X82905771Y-73683333D01*
X82905771Y-73683333D02*
X82905771Y-73921428D01*
X82905771Y-73921428D02*
X82953390Y-74016666D01*
X82953390Y-74016666D02*
X83001009Y-74064285D01*
X83001009Y-74064285D02*
X83096247Y-74111904D01*
X83096247Y-74111904D02*
X83334342Y-74111904D01*
X83334342Y-74111904D02*
X83429580Y-74064285D01*
X83429580Y-74064285D02*
X83477200Y-74016666D01*
X83477200Y-74016666D02*
X83524819Y-73921428D01*
X83524819Y-73921428D02*
X83524819Y-73683333D01*
X83524819Y-73683333D02*
X83477200Y-73588095D01*
X83477200Y-73588095D02*
X83429580Y-73540476D01*
X83204819Y-76398095D02*
X82204819Y-76398095D01*
X83204819Y-76969523D02*
X82633390Y-76540952D01*
X82204819Y-76969523D02*
X82776247Y-76398095D01*
X79234819Y-109715714D02*
X78234819Y-109715714D01*
X78234819Y-109715714D02*
X78234819Y-109953809D01*
X78234819Y-109953809D02*
X78282438Y-110096666D01*
X78282438Y-110096666D02*
X78377676Y-110191904D01*
X78377676Y-110191904D02*
X78472914Y-110239523D01*
X78472914Y-110239523D02*
X78663390Y-110287142D01*
X78663390Y-110287142D02*
X78806247Y-110287142D01*
X78806247Y-110287142D02*
X78996723Y-110239523D01*
X78996723Y-110239523D02*
X79091961Y-110191904D01*
X79091961Y-110191904D02*
X79187200Y-110096666D01*
X79187200Y-110096666D02*
X79234819Y-109953809D01*
X79234819Y-109953809D02*
X79234819Y-109715714D01*
X78568152Y-111144285D02*
X79234819Y-111144285D01*
X78187200Y-110906190D02*
X78901485Y-110668095D01*
X78901485Y-110668095D02*
X78901485Y-111287142D01*
X78568152Y-112096666D02*
X79234819Y-112096666D01*
X78187200Y-111858571D02*
X78901485Y-111620476D01*
X78901485Y-111620476D02*
X78901485Y-112239523D01*
X78914819Y-114478095D02*
X77914819Y-114478095D01*
X78914819Y-115049523D02*
X78343390Y-114620952D01*
X77914819Y-115049523D02*
X78486247Y-114478095D01*
X216814819Y-71635714D02*
X215814819Y-71635714D01*
X215814819Y-71635714D02*
X215814819Y-71873809D01*
X215814819Y-71873809D02*
X215862438Y-72016666D01*
X215862438Y-72016666D02*
X215957676Y-72111904D01*
X215957676Y-72111904D02*
X216052914Y-72159523D01*
X216052914Y-72159523D02*
X216243390Y-72207142D01*
X216243390Y-72207142D02*
X216386247Y-72207142D01*
X216386247Y-72207142D02*
X216576723Y-72159523D01*
X216576723Y-72159523D02*
X216671961Y-72111904D01*
X216671961Y-72111904D02*
X216767200Y-72016666D01*
X216767200Y-72016666D02*
X216814819Y-71873809D01*
X216814819Y-71873809D02*
X216814819Y-71635714D01*
X216814819Y-73159523D02*
X216814819Y-72588095D01*
X216814819Y-72873809D02*
X215814819Y-72873809D01*
X215814819Y-72873809D02*
X215957676Y-72778571D01*
X215957676Y-72778571D02*
X216052914Y-72683333D01*
X216052914Y-72683333D02*
X216100533Y-72588095D01*
X216243390Y-73730952D02*
X216195771Y-73635714D01*
X216195771Y-73635714D02*
X216148152Y-73588095D01*
X216148152Y-73588095D02*
X216052914Y-73540476D01*
X216052914Y-73540476D02*
X216005295Y-73540476D01*
X216005295Y-73540476D02*
X215910057Y-73588095D01*
X215910057Y-73588095D02*
X215862438Y-73635714D01*
X215862438Y-73635714D02*
X215814819Y-73730952D01*
X215814819Y-73730952D02*
X215814819Y-73921428D01*
X215814819Y-73921428D02*
X215862438Y-74016666D01*
X215862438Y-74016666D02*
X215910057Y-74064285D01*
X215910057Y-74064285D02*
X216005295Y-74111904D01*
X216005295Y-74111904D02*
X216052914Y-74111904D01*
X216052914Y-74111904D02*
X216148152Y-74064285D01*
X216148152Y-74064285D02*
X216195771Y-74016666D01*
X216195771Y-74016666D02*
X216243390Y-73921428D01*
X216243390Y-73921428D02*
X216243390Y-73730952D01*
X216243390Y-73730952D02*
X216291009Y-73635714D01*
X216291009Y-73635714D02*
X216338628Y-73588095D01*
X216338628Y-73588095D02*
X216433866Y-73540476D01*
X216433866Y-73540476D02*
X216624342Y-73540476D01*
X216624342Y-73540476D02*
X216719580Y-73588095D01*
X216719580Y-73588095D02*
X216767200Y-73635714D01*
X216767200Y-73635714D02*
X216814819Y-73730952D01*
X216814819Y-73730952D02*
X216814819Y-73921428D01*
X216814819Y-73921428D02*
X216767200Y-74016666D01*
X216767200Y-74016666D02*
X216719580Y-74064285D01*
X216719580Y-74064285D02*
X216624342Y-74111904D01*
X216624342Y-74111904D02*
X216433866Y-74111904D01*
X216433866Y-74111904D02*
X216338628Y-74064285D01*
X216338628Y-74064285D02*
X216291009Y-74016666D01*
X216291009Y-74016666D02*
X216243390Y-73921428D01*
X216494819Y-76398095D02*
X215494819Y-76398095D01*
X216494819Y-76969523D02*
X215923390Y-76540952D01*
X215494819Y-76969523D02*
X216066247Y-76398095D01*
X126194819Y-90645714D02*
X125194819Y-90645714D01*
X125194819Y-90645714D02*
X125194819Y-90883809D01*
X125194819Y-90883809D02*
X125242438Y-91026666D01*
X125242438Y-91026666D02*
X125337676Y-91121904D01*
X125337676Y-91121904D02*
X125432914Y-91169523D01*
X125432914Y-91169523D02*
X125623390Y-91217142D01*
X125623390Y-91217142D02*
X125766247Y-91217142D01*
X125766247Y-91217142D02*
X125956723Y-91169523D01*
X125956723Y-91169523D02*
X126051961Y-91121904D01*
X126051961Y-91121904D02*
X126147200Y-91026666D01*
X126147200Y-91026666D02*
X126194819Y-90883809D01*
X126194819Y-90883809D02*
X126194819Y-90645714D01*
X125194819Y-91550476D02*
X125194819Y-92169523D01*
X125194819Y-92169523D02*
X125575771Y-91836190D01*
X125575771Y-91836190D02*
X125575771Y-91979047D01*
X125575771Y-91979047D02*
X125623390Y-92074285D01*
X125623390Y-92074285D02*
X125671009Y-92121904D01*
X125671009Y-92121904D02*
X125766247Y-92169523D01*
X125766247Y-92169523D02*
X126004342Y-92169523D01*
X126004342Y-92169523D02*
X126099580Y-92121904D01*
X126099580Y-92121904D02*
X126147200Y-92074285D01*
X126147200Y-92074285D02*
X126194819Y-91979047D01*
X126194819Y-91979047D02*
X126194819Y-91693333D01*
X126194819Y-91693333D02*
X126147200Y-91598095D01*
X126147200Y-91598095D02*
X126099580Y-91550476D01*
X125528152Y-93026666D02*
X126194819Y-93026666D01*
X125147200Y-92788571D02*
X125861485Y-92550476D01*
X125861485Y-92550476D02*
X125861485Y-93169523D01*
X125874819Y-95408095D02*
X124874819Y-95408095D01*
X125874819Y-95979523D02*
X125303390Y-95550952D01*
X124874819Y-95979523D02*
X125446247Y-95408095D01*
X17014819Y-90645714D02*
X16014819Y-90645714D01*
X16014819Y-90645714D02*
X16014819Y-90883809D01*
X16014819Y-90883809D02*
X16062438Y-91026666D01*
X16062438Y-91026666D02*
X16157676Y-91121904D01*
X16157676Y-91121904D02*
X16252914Y-91169523D01*
X16252914Y-91169523D02*
X16443390Y-91217142D01*
X16443390Y-91217142D02*
X16586247Y-91217142D01*
X16586247Y-91217142D02*
X16776723Y-91169523D01*
X16776723Y-91169523D02*
X16871961Y-91121904D01*
X16871961Y-91121904D02*
X16967200Y-91026666D01*
X16967200Y-91026666D02*
X17014819Y-90883809D01*
X17014819Y-90883809D02*
X17014819Y-90645714D01*
X16110057Y-91598095D02*
X16062438Y-91645714D01*
X16062438Y-91645714D02*
X16014819Y-91740952D01*
X16014819Y-91740952D02*
X16014819Y-91979047D01*
X16014819Y-91979047D02*
X16062438Y-92074285D01*
X16062438Y-92074285D02*
X16110057Y-92121904D01*
X16110057Y-92121904D02*
X16205295Y-92169523D01*
X16205295Y-92169523D02*
X16300533Y-92169523D01*
X16300533Y-92169523D02*
X16443390Y-92121904D01*
X16443390Y-92121904D02*
X17014819Y-91550476D01*
X17014819Y-91550476D02*
X17014819Y-92169523D01*
X17014819Y-92645714D02*
X17014819Y-92836190D01*
X17014819Y-92836190D02*
X16967200Y-92931428D01*
X16967200Y-92931428D02*
X16919580Y-92979047D01*
X16919580Y-92979047D02*
X16776723Y-93074285D01*
X16776723Y-93074285D02*
X16586247Y-93121904D01*
X16586247Y-93121904D02*
X16205295Y-93121904D01*
X16205295Y-93121904D02*
X16110057Y-93074285D01*
X16110057Y-93074285D02*
X16062438Y-93026666D01*
X16062438Y-93026666D02*
X16014819Y-92931428D01*
X16014819Y-92931428D02*
X16014819Y-92740952D01*
X16014819Y-92740952D02*
X16062438Y-92645714D01*
X16062438Y-92645714D02*
X16110057Y-92598095D01*
X16110057Y-92598095D02*
X16205295Y-92550476D01*
X16205295Y-92550476D02*
X16443390Y-92550476D01*
X16443390Y-92550476D02*
X16538628Y-92598095D01*
X16538628Y-92598095D02*
X16586247Y-92645714D01*
X16586247Y-92645714D02*
X16633866Y-92740952D01*
X16633866Y-92740952D02*
X16633866Y-92931428D01*
X16633866Y-92931428D02*
X16586247Y-93026666D01*
X16586247Y-93026666D02*
X16538628Y-93074285D01*
X16538628Y-93074285D02*
X16443390Y-93121904D01*
X16694819Y-95408095D02*
X15694819Y-95408095D01*
X16694819Y-95979523D02*
X16123390Y-95550952D01*
X15694819Y-95979523D02*
X16266247Y-95408095D01*
X255124819Y-71475714D02*
X254124819Y-71475714D01*
X254124819Y-71475714D02*
X254124819Y-71713809D01*
X254124819Y-71713809D02*
X254172438Y-71856666D01*
X254172438Y-71856666D02*
X254267676Y-71951904D01*
X254267676Y-71951904D02*
X254362914Y-71999523D01*
X254362914Y-71999523D02*
X254553390Y-72047142D01*
X254553390Y-72047142D02*
X254696247Y-72047142D01*
X254696247Y-72047142D02*
X254886723Y-71999523D01*
X254886723Y-71999523D02*
X254981961Y-71951904D01*
X254981961Y-71951904D02*
X255077200Y-71856666D01*
X255077200Y-71856666D02*
X255124819Y-71713809D01*
X255124819Y-71713809D02*
X255124819Y-71475714D01*
X255124819Y-72999523D02*
X255124819Y-72428095D01*
X255124819Y-72713809D02*
X254124819Y-72713809D01*
X254124819Y-72713809D02*
X254267676Y-72618571D01*
X254267676Y-72618571D02*
X254362914Y-72523333D01*
X254362914Y-72523333D02*
X254410533Y-72428095D01*
X254124819Y-73856666D02*
X254124819Y-73666190D01*
X254124819Y-73666190D02*
X254172438Y-73570952D01*
X254172438Y-73570952D02*
X254220057Y-73523333D01*
X254220057Y-73523333D02*
X254362914Y-73428095D01*
X254362914Y-73428095D02*
X254553390Y-73380476D01*
X254553390Y-73380476D02*
X254934342Y-73380476D01*
X254934342Y-73380476D02*
X255029580Y-73428095D01*
X255029580Y-73428095D02*
X255077200Y-73475714D01*
X255077200Y-73475714D02*
X255124819Y-73570952D01*
X255124819Y-73570952D02*
X255124819Y-73761428D01*
X255124819Y-73761428D02*
X255077200Y-73856666D01*
X255077200Y-73856666D02*
X255029580Y-73904285D01*
X255029580Y-73904285D02*
X254934342Y-73951904D01*
X254934342Y-73951904D02*
X254696247Y-73951904D01*
X254696247Y-73951904D02*
X254601009Y-73904285D01*
X254601009Y-73904285D02*
X254553390Y-73856666D01*
X254553390Y-73856666D02*
X254505771Y-73761428D01*
X254505771Y-73761428D02*
X254505771Y-73570952D01*
X254505771Y-73570952D02*
X254553390Y-73475714D01*
X254553390Y-73475714D02*
X254601009Y-73428095D01*
X254601009Y-73428095D02*
X254696247Y-73380476D01*
X254804819Y-76238095D02*
X253804819Y-76238095D01*
X254804819Y-76809523D02*
X254233390Y-76380952D01*
X253804819Y-76809523D02*
X254376247Y-76238095D01*
X64334819Y-71635714D02*
X63334819Y-71635714D01*
X63334819Y-71635714D02*
X63334819Y-71873809D01*
X63334819Y-71873809D02*
X63382438Y-72016666D01*
X63382438Y-72016666D02*
X63477676Y-72111904D01*
X63477676Y-72111904D02*
X63572914Y-72159523D01*
X63572914Y-72159523D02*
X63763390Y-72207142D01*
X63763390Y-72207142D02*
X63906247Y-72207142D01*
X63906247Y-72207142D02*
X64096723Y-72159523D01*
X64096723Y-72159523D02*
X64191961Y-72111904D01*
X64191961Y-72111904D02*
X64287200Y-72016666D01*
X64287200Y-72016666D02*
X64334819Y-71873809D01*
X64334819Y-71873809D02*
X64334819Y-71635714D01*
X63430057Y-72588095D02*
X63382438Y-72635714D01*
X63382438Y-72635714D02*
X63334819Y-72730952D01*
X63334819Y-72730952D02*
X63334819Y-72969047D01*
X63334819Y-72969047D02*
X63382438Y-73064285D01*
X63382438Y-73064285D02*
X63430057Y-73111904D01*
X63430057Y-73111904D02*
X63525295Y-73159523D01*
X63525295Y-73159523D02*
X63620533Y-73159523D01*
X63620533Y-73159523D02*
X63763390Y-73111904D01*
X63763390Y-73111904D02*
X64334819Y-72540476D01*
X64334819Y-72540476D02*
X64334819Y-73159523D01*
X63334819Y-74016666D02*
X63334819Y-73826190D01*
X63334819Y-73826190D02*
X63382438Y-73730952D01*
X63382438Y-73730952D02*
X63430057Y-73683333D01*
X63430057Y-73683333D02*
X63572914Y-73588095D01*
X63572914Y-73588095D02*
X63763390Y-73540476D01*
X63763390Y-73540476D02*
X64144342Y-73540476D01*
X64144342Y-73540476D02*
X64239580Y-73588095D01*
X64239580Y-73588095D02*
X64287200Y-73635714D01*
X64287200Y-73635714D02*
X64334819Y-73730952D01*
X64334819Y-73730952D02*
X64334819Y-73921428D01*
X64334819Y-73921428D02*
X64287200Y-74016666D01*
X64287200Y-74016666D02*
X64239580Y-74064285D01*
X64239580Y-74064285D02*
X64144342Y-74111904D01*
X64144342Y-74111904D02*
X63906247Y-74111904D01*
X63906247Y-74111904D02*
X63811009Y-74064285D01*
X63811009Y-74064285D02*
X63763390Y-74016666D01*
X63763390Y-74016666D02*
X63715771Y-73921428D01*
X63715771Y-73921428D02*
X63715771Y-73730952D01*
X63715771Y-73730952D02*
X63763390Y-73635714D01*
X63763390Y-73635714D02*
X63811009Y-73588095D01*
X63811009Y-73588095D02*
X63906247Y-73540476D01*
X64014819Y-76398095D02*
X63014819Y-76398095D01*
X64014819Y-76969523D02*
X63443390Y-76540952D01*
X63014819Y-76969523D02*
X63586247Y-76398095D01*
X117314819Y-109715714D02*
X116314819Y-109715714D01*
X116314819Y-109715714D02*
X116314819Y-109953809D01*
X116314819Y-109953809D02*
X116362438Y-110096666D01*
X116362438Y-110096666D02*
X116457676Y-110191904D01*
X116457676Y-110191904D02*
X116552914Y-110239523D01*
X116552914Y-110239523D02*
X116743390Y-110287142D01*
X116743390Y-110287142D02*
X116886247Y-110287142D01*
X116886247Y-110287142D02*
X117076723Y-110239523D01*
X117076723Y-110239523D02*
X117171961Y-110191904D01*
X117171961Y-110191904D02*
X117267200Y-110096666D01*
X117267200Y-110096666D02*
X117314819Y-109953809D01*
X117314819Y-109953809D02*
X117314819Y-109715714D01*
X116648152Y-111144285D02*
X117314819Y-111144285D01*
X116267200Y-110906190D02*
X116981485Y-110668095D01*
X116981485Y-110668095D02*
X116981485Y-111287142D01*
X116314819Y-112096666D02*
X116314819Y-111906190D01*
X116314819Y-111906190D02*
X116362438Y-111810952D01*
X116362438Y-111810952D02*
X116410057Y-111763333D01*
X116410057Y-111763333D02*
X116552914Y-111668095D01*
X116552914Y-111668095D02*
X116743390Y-111620476D01*
X116743390Y-111620476D02*
X117124342Y-111620476D01*
X117124342Y-111620476D02*
X117219580Y-111668095D01*
X117219580Y-111668095D02*
X117267200Y-111715714D01*
X117267200Y-111715714D02*
X117314819Y-111810952D01*
X117314819Y-111810952D02*
X117314819Y-112001428D01*
X117314819Y-112001428D02*
X117267200Y-112096666D01*
X117267200Y-112096666D02*
X117219580Y-112144285D01*
X117219580Y-112144285D02*
X117124342Y-112191904D01*
X117124342Y-112191904D02*
X116886247Y-112191904D01*
X116886247Y-112191904D02*
X116791009Y-112144285D01*
X116791009Y-112144285D02*
X116743390Y-112096666D01*
X116743390Y-112096666D02*
X116695771Y-112001428D01*
X116695771Y-112001428D02*
X116695771Y-111810952D01*
X116695771Y-111810952D02*
X116743390Y-111715714D01*
X116743390Y-111715714D02*
X116791009Y-111668095D01*
X116791009Y-111668095D02*
X116886247Y-111620476D01*
X116994819Y-114478095D02*
X115994819Y-114478095D01*
X116994819Y-115049523D02*
X116423390Y-114620952D01*
X115994819Y-115049523D02*
X116566247Y-114478095D01*
X255504819Y-128785714D02*
X254504819Y-128785714D01*
X254504819Y-128785714D02*
X254504819Y-129023809D01*
X254504819Y-129023809D02*
X254552438Y-129166666D01*
X254552438Y-129166666D02*
X254647676Y-129261904D01*
X254647676Y-129261904D02*
X254742914Y-129309523D01*
X254742914Y-129309523D02*
X254933390Y-129357142D01*
X254933390Y-129357142D02*
X255076247Y-129357142D01*
X255076247Y-129357142D02*
X255266723Y-129309523D01*
X255266723Y-129309523D02*
X255361961Y-129261904D01*
X255361961Y-129261904D02*
X255457200Y-129166666D01*
X255457200Y-129166666D02*
X255504819Y-129023809D01*
X255504819Y-129023809D02*
X255504819Y-128785714D01*
X254504819Y-130214285D02*
X254504819Y-130023809D01*
X254504819Y-130023809D02*
X254552438Y-129928571D01*
X254552438Y-129928571D02*
X254600057Y-129880952D01*
X254600057Y-129880952D02*
X254742914Y-129785714D01*
X254742914Y-129785714D02*
X254933390Y-129738095D01*
X254933390Y-129738095D02*
X255314342Y-129738095D01*
X255314342Y-129738095D02*
X255409580Y-129785714D01*
X255409580Y-129785714D02*
X255457200Y-129833333D01*
X255457200Y-129833333D02*
X255504819Y-129928571D01*
X255504819Y-129928571D02*
X255504819Y-130119047D01*
X255504819Y-130119047D02*
X255457200Y-130214285D01*
X255457200Y-130214285D02*
X255409580Y-130261904D01*
X255409580Y-130261904D02*
X255314342Y-130309523D01*
X255314342Y-130309523D02*
X255076247Y-130309523D01*
X255076247Y-130309523D02*
X254981009Y-130261904D01*
X254981009Y-130261904D02*
X254933390Y-130214285D01*
X254933390Y-130214285D02*
X254885771Y-130119047D01*
X254885771Y-130119047D02*
X254885771Y-129928571D01*
X254885771Y-129928571D02*
X254933390Y-129833333D01*
X254933390Y-129833333D02*
X254981009Y-129785714D01*
X254981009Y-129785714D02*
X255076247Y-129738095D01*
X254504819Y-130928571D02*
X254504819Y-131023809D01*
X254504819Y-131023809D02*
X254552438Y-131119047D01*
X254552438Y-131119047D02*
X254600057Y-131166666D01*
X254600057Y-131166666D02*
X254695295Y-131214285D01*
X254695295Y-131214285D02*
X254885771Y-131261904D01*
X254885771Y-131261904D02*
X255123866Y-131261904D01*
X255123866Y-131261904D02*
X255314342Y-131214285D01*
X255314342Y-131214285D02*
X255409580Y-131166666D01*
X255409580Y-131166666D02*
X255457200Y-131119047D01*
X255457200Y-131119047D02*
X255504819Y-131023809D01*
X255504819Y-131023809D02*
X255504819Y-130928571D01*
X255504819Y-130928571D02*
X255457200Y-130833333D01*
X255457200Y-130833333D02*
X255409580Y-130785714D01*
X255409580Y-130785714D02*
X255314342Y-130738095D01*
X255314342Y-130738095D02*
X255123866Y-130690476D01*
X255123866Y-130690476D02*
X254885771Y-130690476D01*
X254885771Y-130690476D02*
X254695295Y-130738095D01*
X254695295Y-130738095D02*
X254600057Y-130785714D01*
X254600057Y-130785714D02*
X254552438Y-130833333D01*
X254552438Y-130833333D02*
X254504819Y-130928571D01*
X255184819Y-133548095D02*
X254184819Y-133548095D01*
X255184819Y-134119523D02*
X254613390Y-133690952D01*
X254184819Y-134119523D02*
X254756247Y-133548095D01*
X50064819Y-90645714D02*
X49064819Y-90645714D01*
X49064819Y-90645714D02*
X49064819Y-90883809D01*
X49064819Y-90883809D02*
X49112438Y-91026666D01*
X49112438Y-91026666D02*
X49207676Y-91121904D01*
X49207676Y-91121904D02*
X49302914Y-91169523D01*
X49302914Y-91169523D02*
X49493390Y-91217142D01*
X49493390Y-91217142D02*
X49636247Y-91217142D01*
X49636247Y-91217142D02*
X49826723Y-91169523D01*
X49826723Y-91169523D02*
X49921961Y-91121904D01*
X49921961Y-91121904D02*
X50017200Y-91026666D01*
X50017200Y-91026666D02*
X50064819Y-90883809D01*
X50064819Y-90883809D02*
X50064819Y-90645714D01*
X49064819Y-91550476D02*
X49064819Y-92169523D01*
X49064819Y-92169523D02*
X49445771Y-91836190D01*
X49445771Y-91836190D02*
X49445771Y-91979047D01*
X49445771Y-91979047D02*
X49493390Y-92074285D01*
X49493390Y-92074285D02*
X49541009Y-92121904D01*
X49541009Y-92121904D02*
X49636247Y-92169523D01*
X49636247Y-92169523D02*
X49874342Y-92169523D01*
X49874342Y-92169523D02*
X49969580Y-92121904D01*
X49969580Y-92121904D02*
X50017200Y-92074285D01*
X50017200Y-92074285D02*
X50064819Y-91979047D01*
X50064819Y-91979047D02*
X50064819Y-91693333D01*
X50064819Y-91693333D02*
X50017200Y-91598095D01*
X50017200Y-91598095D02*
X49969580Y-91550476D01*
X49064819Y-92788571D02*
X49064819Y-92883809D01*
X49064819Y-92883809D02*
X49112438Y-92979047D01*
X49112438Y-92979047D02*
X49160057Y-93026666D01*
X49160057Y-93026666D02*
X49255295Y-93074285D01*
X49255295Y-93074285D02*
X49445771Y-93121904D01*
X49445771Y-93121904D02*
X49683866Y-93121904D01*
X49683866Y-93121904D02*
X49874342Y-93074285D01*
X49874342Y-93074285D02*
X49969580Y-93026666D01*
X49969580Y-93026666D02*
X50017200Y-92979047D01*
X50017200Y-92979047D02*
X50064819Y-92883809D01*
X50064819Y-92883809D02*
X50064819Y-92788571D01*
X50064819Y-92788571D02*
X50017200Y-92693333D01*
X50017200Y-92693333D02*
X49969580Y-92645714D01*
X49969580Y-92645714D02*
X49874342Y-92598095D01*
X49874342Y-92598095D02*
X49683866Y-92550476D01*
X49683866Y-92550476D02*
X49445771Y-92550476D01*
X49445771Y-92550476D02*
X49255295Y-92598095D01*
X49255295Y-92598095D02*
X49160057Y-92645714D01*
X49160057Y-92645714D02*
X49112438Y-92693333D01*
X49112438Y-92693333D02*
X49064819Y-92788571D01*
X49744819Y-95408095D02*
X48744819Y-95408095D01*
X49744819Y-95979523D02*
X49173390Y-95550952D01*
X48744819Y-95979523D02*
X49316247Y-95408095D01*
X88544819Y-128785714D02*
X87544819Y-128785714D01*
X87544819Y-128785714D02*
X87544819Y-129023809D01*
X87544819Y-129023809D02*
X87592438Y-129166666D01*
X87592438Y-129166666D02*
X87687676Y-129261904D01*
X87687676Y-129261904D02*
X87782914Y-129309523D01*
X87782914Y-129309523D02*
X87973390Y-129357142D01*
X87973390Y-129357142D02*
X88116247Y-129357142D01*
X88116247Y-129357142D02*
X88306723Y-129309523D01*
X88306723Y-129309523D02*
X88401961Y-129261904D01*
X88401961Y-129261904D02*
X88497200Y-129166666D01*
X88497200Y-129166666D02*
X88544819Y-129023809D01*
X88544819Y-129023809D02*
X88544819Y-128785714D01*
X87544819Y-130261904D02*
X87544819Y-129785714D01*
X87544819Y-129785714D02*
X88021009Y-129738095D01*
X88021009Y-129738095D02*
X87973390Y-129785714D01*
X87973390Y-129785714D02*
X87925771Y-129880952D01*
X87925771Y-129880952D02*
X87925771Y-130119047D01*
X87925771Y-130119047D02*
X87973390Y-130214285D01*
X87973390Y-130214285D02*
X88021009Y-130261904D01*
X88021009Y-130261904D02*
X88116247Y-130309523D01*
X88116247Y-130309523D02*
X88354342Y-130309523D01*
X88354342Y-130309523D02*
X88449580Y-130261904D01*
X88449580Y-130261904D02*
X88497200Y-130214285D01*
X88497200Y-130214285D02*
X88544819Y-130119047D01*
X88544819Y-130119047D02*
X88544819Y-129880952D01*
X88544819Y-129880952D02*
X88497200Y-129785714D01*
X88497200Y-129785714D02*
X88449580Y-129738095D01*
X87544819Y-130642857D02*
X87544819Y-131309523D01*
X87544819Y-131309523D02*
X88544819Y-130880952D01*
X88224819Y-133548095D02*
X87224819Y-133548095D01*
X88224819Y-134119523D02*
X87653390Y-133690952D01*
X87224819Y-134119523D02*
X87796247Y-133548095D01*
X60124819Y-109715714D02*
X59124819Y-109715714D01*
X59124819Y-109715714D02*
X59124819Y-109953809D01*
X59124819Y-109953809D02*
X59172438Y-110096666D01*
X59172438Y-110096666D02*
X59267676Y-110191904D01*
X59267676Y-110191904D02*
X59362914Y-110239523D01*
X59362914Y-110239523D02*
X59553390Y-110287142D01*
X59553390Y-110287142D02*
X59696247Y-110287142D01*
X59696247Y-110287142D02*
X59886723Y-110239523D01*
X59886723Y-110239523D02*
X59981961Y-110191904D01*
X59981961Y-110191904D02*
X60077200Y-110096666D01*
X60077200Y-110096666D02*
X60124819Y-109953809D01*
X60124819Y-109953809D02*
X60124819Y-109715714D01*
X59458152Y-111144285D02*
X60124819Y-111144285D01*
X59077200Y-110906190D02*
X59791485Y-110668095D01*
X59791485Y-110668095D02*
X59791485Y-111287142D01*
X59124819Y-111572857D02*
X59124819Y-112191904D01*
X59124819Y-112191904D02*
X59505771Y-111858571D01*
X59505771Y-111858571D02*
X59505771Y-112001428D01*
X59505771Y-112001428D02*
X59553390Y-112096666D01*
X59553390Y-112096666D02*
X59601009Y-112144285D01*
X59601009Y-112144285D02*
X59696247Y-112191904D01*
X59696247Y-112191904D02*
X59934342Y-112191904D01*
X59934342Y-112191904D02*
X60029580Y-112144285D01*
X60029580Y-112144285D02*
X60077200Y-112096666D01*
X60077200Y-112096666D02*
X60124819Y-112001428D01*
X60124819Y-112001428D02*
X60124819Y-111715714D01*
X60124819Y-111715714D02*
X60077200Y-111620476D01*
X60077200Y-111620476D02*
X60029580Y-111572857D01*
X59804819Y-114478095D02*
X58804819Y-114478095D01*
X59804819Y-115049523D02*
X59233390Y-114620952D01*
X58804819Y-115049523D02*
X59376247Y-114478095D01*
X98354819Y-109715714D02*
X97354819Y-109715714D01*
X97354819Y-109715714D02*
X97354819Y-109953809D01*
X97354819Y-109953809D02*
X97402438Y-110096666D01*
X97402438Y-110096666D02*
X97497676Y-110191904D01*
X97497676Y-110191904D02*
X97592914Y-110239523D01*
X97592914Y-110239523D02*
X97783390Y-110287142D01*
X97783390Y-110287142D02*
X97926247Y-110287142D01*
X97926247Y-110287142D02*
X98116723Y-110239523D01*
X98116723Y-110239523D02*
X98211961Y-110191904D01*
X98211961Y-110191904D02*
X98307200Y-110096666D01*
X98307200Y-110096666D02*
X98354819Y-109953809D01*
X98354819Y-109953809D02*
X98354819Y-109715714D01*
X97688152Y-111144285D02*
X98354819Y-111144285D01*
X97307200Y-110906190D02*
X98021485Y-110668095D01*
X98021485Y-110668095D02*
X98021485Y-111287142D01*
X97354819Y-112144285D02*
X97354819Y-111668095D01*
X97354819Y-111668095D02*
X97831009Y-111620476D01*
X97831009Y-111620476D02*
X97783390Y-111668095D01*
X97783390Y-111668095D02*
X97735771Y-111763333D01*
X97735771Y-111763333D02*
X97735771Y-112001428D01*
X97735771Y-112001428D02*
X97783390Y-112096666D01*
X97783390Y-112096666D02*
X97831009Y-112144285D01*
X97831009Y-112144285D02*
X97926247Y-112191904D01*
X97926247Y-112191904D02*
X98164342Y-112191904D01*
X98164342Y-112191904D02*
X98259580Y-112144285D01*
X98259580Y-112144285D02*
X98307200Y-112096666D01*
X98307200Y-112096666D02*
X98354819Y-112001428D01*
X98354819Y-112001428D02*
X98354819Y-111763333D01*
X98354819Y-111763333D02*
X98307200Y-111668095D01*
X98307200Y-111668095D02*
X98259580Y-111620476D01*
X98034819Y-114478095D02*
X97034819Y-114478095D01*
X98034819Y-115049523D02*
X97463390Y-114620952D01*
X97034819Y-115049523D02*
X97606247Y-114478095D01*
X250824819Y-109715714D02*
X249824819Y-109715714D01*
X249824819Y-109715714D02*
X249824819Y-109953809D01*
X249824819Y-109953809D02*
X249872438Y-110096666D01*
X249872438Y-110096666D02*
X249967676Y-110191904D01*
X249967676Y-110191904D02*
X250062914Y-110239523D01*
X250062914Y-110239523D02*
X250253390Y-110287142D01*
X250253390Y-110287142D02*
X250396247Y-110287142D01*
X250396247Y-110287142D02*
X250586723Y-110239523D01*
X250586723Y-110239523D02*
X250681961Y-110191904D01*
X250681961Y-110191904D02*
X250777200Y-110096666D01*
X250777200Y-110096666D02*
X250824819Y-109953809D01*
X250824819Y-109953809D02*
X250824819Y-109715714D01*
X249824819Y-111191904D02*
X249824819Y-110715714D01*
X249824819Y-110715714D02*
X250301009Y-110668095D01*
X250301009Y-110668095D02*
X250253390Y-110715714D01*
X250253390Y-110715714D02*
X250205771Y-110810952D01*
X250205771Y-110810952D02*
X250205771Y-111049047D01*
X250205771Y-111049047D02*
X250253390Y-111144285D01*
X250253390Y-111144285D02*
X250301009Y-111191904D01*
X250301009Y-111191904D02*
X250396247Y-111239523D01*
X250396247Y-111239523D02*
X250634342Y-111239523D01*
X250634342Y-111239523D02*
X250729580Y-111191904D01*
X250729580Y-111191904D02*
X250777200Y-111144285D01*
X250777200Y-111144285D02*
X250824819Y-111049047D01*
X250824819Y-111049047D02*
X250824819Y-110810952D01*
X250824819Y-110810952D02*
X250777200Y-110715714D01*
X250777200Y-110715714D02*
X250729580Y-110668095D01*
X249824819Y-111572857D02*
X249824819Y-112191904D01*
X249824819Y-112191904D02*
X250205771Y-111858571D01*
X250205771Y-111858571D02*
X250205771Y-112001428D01*
X250205771Y-112001428D02*
X250253390Y-112096666D01*
X250253390Y-112096666D02*
X250301009Y-112144285D01*
X250301009Y-112144285D02*
X250396247Y-112191904D01*
X250396247Y-112191904D02*
X250634342Y-112191904D01*
X250634342Y-112191904D02*
X250729580Y-112144285D01*
X250729580Y-112144285D02*
X250777200Y-112096666D01*
X250777200Y-112096666D02*
X250824819Y-112001428D01*
X250824819Y-112001428D02*
X250824819Y-111715714D01*
X250824819Y-111715714D02*
X250777200Y-111620476D01*
X250777200Y-111620476D02*
X250729580Y-111572857D01*
X250504819Y-114478095D02*
X249504819Y-114478095D01*
X250504819Y-115049523D02*
X249933390Y-114620952D01*
X249504819Y-115049523D02*
X250076247Y-114478095D01*
D11*
%TO.C,D54*%
X13330000Y-127880000D02*
X15570000Y-127880000D01*
X13330000Y-132120000D02*
X13330000Y-127880000D01*
X14450000Y-127230000D02*
X14450000Y-127880000D01*
X14450000Y-132770000D02*
X14450000Y-132120000D01*
X15570000Y-127880000D02*
X15570000Y-132120000D01*
X15570000Y-131280000D02*
X13330000Y-131280000D01*
X15570000Y-131400000D02*
X13330000Y-131400000D01*
X15570000Y-131520000D02*
X13330000Y-131520000D01*
X15570000Y-132120000D02*
X13330000Y-132120000D01*
%TO.C,D20*%
X174990000Y-70730000D02*
X177230000Y-70730000D01*
X174990000Y-74970000D02*
X174990000Y-70730000D01*
X176110000Y-70080000D02*
X176110000Y-70730000D01*
X176110000Y-75620000D02*
X176110000Y-74970000D01*
X177230000Y-70730000D02*
X177230000Y-74970000D01*
X177230000Y-74130000D02*
X174990000Y-74130000D01*
X177230000Y-74250000D02*
X174990000Y-74250000D01*
X177230000Y-74370000D02*
X174990000Y-74370000D01*
X177230000Y-74970000D02*
X174990000Y-74970000D01*
%TO.C,D11*%
X89480000Y-51670000D02*
X91720000Y-51670000D01*
X89480000Y-55910000D02*
X89480000Y-51670000D01*
X90600000Y-51020000D02*
X90600000Y-51670000D01*
X90600000Y-56560000D02*
X90600000Y-55910000D01*
X91720000Y-51670000D02*
X91720000Y-55910000D01*
X91720000Y-55070000D02*
X89480000Y-55070000D01*
X91720000Y-55190000D02*
X89480000Y-55190000D01*
X91720000Y-55310000D02*
X89480000Y-55310000D01*
X91720000Y-55910000D02*
X89480000Y-55910000D01*
%TO.C,D12*%
X70600000Y-51670000D02*
X72840000Y-51670000D01*
X70600000Y-55910000D02*
X70600000Y-51670000D01*
X71720000Y-51020000D02*
X71720000Y-51670000D01*
X71720000Y-56560000D02*
X71720000Y-55910000D01*
X72840000Y-51670000D02*
X72840000Y-55910000D01*
X72840000Y-55070000D02*
X70600000Y-55070000D01*
X72840000Y-55190000D02*
X70600000Y-55190000D01*
X72840000Y-55310000D02*
X70600000Y-55310000D01*
X72840000Y-55910000D02*
X70600000Y-55910000D01*
%TO.C,D35*%
X142040000Y-89740000D02*
X144280000Y-89740000D01*
X142040000Y-93980000D02*
X142040000Y-89740000D01*
X143160000Y-89090000D02*
X143160000Y-89740000D01*
X143160000Y-94630000D02*
X143160000Y-93980000D01*
X144280000Y-89740000D02*
X144280000Y-93980000D01*
X144280000Y-93140000D02*
X142040000Y-93140000D01*
X144280000Y-93260000D02*
X142040000Y-93260000D01*
X144280000Y-93380000D02*
X142040000Y-93380000D01*
X144280000Y-93980000D02*
X142040000Y-93980000D01*
%TO.C,D13*%
X51270000Y-51670000D02*
X53510000Y-51670000D01*
X51270000Y-55910000D02*
X51270000Y-51670000D01*
X52390000Y-51020000D02*
X52390000Y-51670000D01*
X52390000Y-56560000D02*
X52390000Y-55910000D01*
X53510000Y-51670000D02*
X53510000Y-55910000D01*
X53510000Y-55070000D02*
X51270000Y-55070000D01*
X53510000Y-55190000D02*
X51270000Y-55190000D01*
X53510000Y-55310000D02*
X51270000Y-55310000D01*
X53510000Y-55910000D02*
X51270000Y-55910000D01*
%TO.C,D40*%
X237150000Y-89740000D02*
X239390000Y-89740000D01*
X237150000Y-93980000D02*
X237150000Y-89740000D01*
X238270000Y-89090000D02*
X238270000Y-89740000D01*
X238270000Y-94630000D02*
X238270000Y-93980000D01*
X239390000Y-89740000D02*
X239390000Y-93980000D01*
X239390000Y-93140000D02*
X237150000Y-93140000D01*
X239390000Y-93260000D02*
X237150000Y-93260000D01*
X239390000Y-93380000D02*
X237150000Y-93380000D01*
X239390000Y-93980000D02*
X237150000Y-93980000D01*
%TO.C,D56*%
X60800000Y-127880000D02*
X63040000Y-127880000D01*
X60800000Y-132120000D02*
X60800000Y-127880000D01*
X61920000Y-127230000D02*
X61920000Y-127880000D01*
X61920000Y-132770000D02*
X61920000Y-132120000D01*
X63040000Y-127880000D02*
X63040000Y-132120000D01*
X63040000Y-131280000D02*
X60800000Y-131280000D01*
X63040000Y-131400000D02*
X60800000Y-131400000D01*
X63040000Y-131520000D02*
X60800000Y-131520000D01*
X63040000Y-132120000D02*
X60800000Y-132120000D01*
%TO.C,D47*%
X132890000Y-108810000D02*
X135130000Y-108810000D01*
X132890000Y-113050000D02*
X132890000Y-108810000D01*
X134010000Y-108160000D02*
X134010000Y-108810000D01*
X134010000Y-113700000D02*
X134010000Y-113050000D01*
X135130000Y-108810000D02*
X135130000Y-113050000D01*
X135130000Y-112210000D02*
X132890000Y-112210000D01*
X135130000Y-112330000D02*
X132890000Y-112330000D01*
X135130000Y-112450000D02*
X132890000Y-112450000D01*
X135130000Y-113050000D02*
X132890000Y-113050000D01*
%TO.C,D55*%
X36740000Y-127880000D02*
X38980000Y-127880000D01*
X36740000Y-132120000D02*
X36740000Y-127880000D01*
X37860000Y-127230000D02*
X37860000Y-127880000D01*
X37860000Y-132770000D02*
X37860000Y-132120000D01*
X38980000Y-127880000D02*
X38980000Y-132120000D01*
X38980000Y-131280000D02*
X36740000Y-131280000D01*
X38980000Y-131400000D02*
X36740000Y-131400000D01*
X38980000Y-131520000D02*
X36740000Y-131520000D01*
X38980000Y-132120000D02*
X36740000Y-132120000D01*
%TO.C,D33*%
X103640000Y-89740000D02*
X105880000Y-89740000D01*
X103640000Y-93980000D02*
X103640000Y-89740000D01*
X104760000Y-89090000D02*
X104760000Y-89740000D01*
X104760000Y-94630000D02*
X104760000Y-93980000D01*
X105880000Y-89740000D02*
X105880000Y-93980000D01*
X105880000Y-93140000D02*
X103640000Y-93140000D01*
X105880000Y-93260000D02*
X103640000Y-93260000D01*
X105880000Y-93380000D02*
X103640000Y-93380000D01*
X105880000Y-93980000D02*
X103640000Y-93980000D01*
%TO.C,D17*%
X232380000Y-70730000D02*
X234620000Y-70730000D01*
X232380000Y-74970000D02*
X232380000Y-70730000D01*
X233500000Y-70080000D02*
X233500000Y-70730000D01*
X233500000Y-75620000D02*
X233500000Y-74970000D01*
X234620000Y-70730000D02*
X234620000Y-74970000D01*
X234620000Y-74130000D02*
X232380000Y-74130000D01*
X234620000Y-74250000D02*
X232380000Y-74250000D01*
X234620000Y-74370000D02*
X232380000Y-74370000D01*
X234620000Y-74970000D02*
X232380000Y-74970000D01*
%TO.C,D49*%
X171080000Y-108810000D02*
X173320000Y-108810000D01*
X171080000Y-113050000D02*
X171080000Y-108810000D01*
X172200000Y-108160000D02*
X172200000Y-108810000D01*
X172200000Y-113700000D02*
X172200000Y-113050000D01*
X173320000Y-108810000D02*
X173320000Y-113050000D01*
X173320000Y-112210000D02*
X171080000Y-112210000D01*
X173320000Y-112330000D02*
X171080000Y-112330000D01*
X173320000Y-112450000D02*
X171080000Y-112450000D01*
X173320000Y-113050000D02*
X171080000Y-113050000D01*
%TO.C,D32*%
X84630000Y-89740000D02*
X86870000Y-89740000D01*
X84630000Y-93980000D02*
X84630000Y-89740000D01*
X85750000Y-89090000D02*
X85750000Y-89740000D01*
X85750000Y-94630000D02*
X85750000Y-93980000D01*
X86870000Y-89740000D02*
X86870000Y-93980000D01*
X86870000Y-93140000D02*
X84630000Y-93140000D01*
X86870000Y-93260000D02*
X84630000Y-93260000D01*
X86870000Y-93380000D02*
X84630000Y-93380000D01*
X86870000Y-93980000D02*
X84630000Y-93980000D01*
%TO.C,D42*%
X13580000Y-108810000D02*
X15820000Y-108810000D01*
X13580000Y-113050000D02*
X13580000Y-108810000D01*
X14700000Y-108160000D02*
X14700000Y-108810000D01*
X14700000Y-113700000D02*
X14700000Y-113050000D01*
X15820000Y-108810000D02*
X15820000Y-113050000D01*
X15820000Y-112210000D02*
X13580000Y-112210000D01*
X15820000Y-112330000D02*
X13580000Y-112330000D01*
X15820000Y-112450000D02*
X13580000Y-112450000D01*
X15820000Y-113050000D02*
X13580000Y-113050000D01*
%TO.C,D51*%
X209010000Y-108810000D02*
X211250000Y-108810000D01*
X209010000Y-113050000D02*
X209010000Y-108810000D01*
X210130000Y-108160000D02*
X210130000Y-108810000D01*
X210130000Y-113700000D02*
X210130000Y-113050000D01*
X211250000Y-108810000D02*
X211250000Y-113050000D01*
X211250000Y-112210000D02*
X209010000Y-112210000D01*
X211250000Y-112330000D02*
X209010000Y-112330000D01*
X211250000Y-112450000D02*
X209010000Y-112450000D01*
X211250000Y-113050000D02*
X209010000Y-113050000D01*
%TO.C,D24*%
X98790000Y-70730000D02*
X101030000Y-70730000D01*
X98790000Y-74970000D02*
X98790000Y-70730000D01*
X99910000Y-70080000D02*
X99910000Y-70730000D01*
X99910000Y-75620000D02*
X99910000Y-74970000D01*
X101030000Y-70730000D02*
X101030000Y-74970000D01*
X101030000Y-74130000D02*
X98790000Y-74130000D01*
X101030000Y-74250000D02*
X98790000Y-74250000D01*
X101030000Y-74370000D02*
X98790000Y-74370000D01*
X101030000Y-74970000D02*
X98790000Y-74970000D01*
%TO.C,D62*%
X279510000Y-33480000D02*
X281750000Y-33480000D01*
X279510000Y-37720000D02*
X279510000Y-33480000D01*
X280630000Y-32830000D02*
X280630000Y-33480000D01*
X280630000Y-38370000D02*
X280630000Y-37720000D01*
X281750000Y-33480000D02*
X281750000Y-37720000D01*
X281750000Y-36880000D02*
X279510000Y-36880000D01*
X281750000Y-37000000D02*
X279510000Y-37000000D01*
X281750000Y-37120000D02*
X279510000Y-37120000D01*
X281750000Y-37720000D02*
X279510000Y-37720000D01*
%TO.C,D8*%
X146830000Y-51670000D02*
X149070000Y-51670000D01*
X146830000Y-55910000D02*
X146830000Y-51670000D01*
X147950000Y-51020000D02*
X147950000Y-51670000D01*
X147950000Y-56560000D02*
X147950000Y-55910000D01*
X149070000Y-51670000D02*
X149070000Y-55910000D01*
X149070000Y-55070000D02*
X146830000Y-55070000D01*
X149070000Y-55190000D02*
X146830000Y-55190000D01*
X149070000Y-55310000D02*
X146830000Y-55310000D01*
X149070000Y-55910000D02*
X146830000Y-55910000D01*
%TO.C,D6*%
X184580000Y-51670000D02*
X186820000Y-51670000D01*
X184580000Y-55910000D02*
X184580000Y-51670000D01*
X185700000Y-51020000D02*
X185700000Y-51670000D01*
X185700000Y-56560000D02*
X185700000Y-55910000D01*
X186820000Y-51670000D02*
X186820000Y-55910000D01*
X186820000Y-55070000D02*
X184580000Y-55070000D01*
X186820000Y-55190000D02*
X184580000Y-55190000D01*
X186820000Y-55310000D02*
X184580000Y-55310000D01*
X186820000Y-55910000D02*
X184580000Y-55910000D01*
%TO.C,D61*%
X275860000Y-127880000D02*
X278100000Y-127880000D01*
X275860000Y-132120000D02*
X275860000Y-127880000D01*
X276980000Y-127230000D02*
X276980000Y-127880000D01*
X276980000Y-132770000D02*
X276980000Y-132120000D01*
X278100000Y-127880000D02*
X278100000Y-132120000D01*
X278100000Y-131280000D02*
X275860000Y-131280000D01*
X278100000Y-131400000D02*
X275860000Y-131400000D01*
X278100000Y-131520000D02*
X275860000Y-131520000D01*
X278100000Y-132120000D02*
X275860000Y-132120000D01*
%TO.C,D3*%
X241990000Y-51670000D02*
X244230000Y-51670000D01*
X241990000Y-55910000D02*
X241990000Y-51670000D01*
X243110000Y-51020000D02*
X243110000Y-51670000D01*
X243110000Y-56560000D02*
X243110000Y-55910000D01*
X244230000Y-51670000D02*
X244230000Y-55910000D01*
X244230000Y-55070000D02*
X241990000Y-55070000D01*
X244230000Y-55190000D02*
X241990000Y-55190000D01*
X244230000Y-55310000D02*
X241990000Y-55310000D01*
X244230000Y-55910000D02*
X241990000Y-55910000D01*
%TO.C,D41*%
X256240000Y-89740000D02*
X258480000Y-89740000D01*
X256240000Y-93980000D02*
X256240000Y-89740000D01*
X257360000Y-89090000D02*
X257360000Y-89740000D01*
X257360000Y-94630000D02*
X257360000Y-93980000D01*
X258480000Y-89740000D02*
X258480000Y-93980000D01*
X258480000Y-93140000D02*
X256240000Y-93140000D01*
X258480000Y-93260000D02*
X256240000Y-93260000D01*
X258480000Y-93380000D02*
X256240000Y-93380000D01*
X258480000Y-93980000D02*
X256240000Y-93980000D01*
%TO.C,D31*%
X65540000Y-89740000D02*
X67780000Y-89740000D01*
X65540000Y-93980000D02*
X65540000Y-89740000D01*
X66660000Y-89090000D02*
X66660000Y-89740000D01*
X66660000Y-94630000D02*
X66660000Y-93980000D01*
X67780000Y-89740000D02*
X67780000Y-93980000D01*
X67780000Y-93140000D02*
X65540000Y-93140000D01*
X67780000Y-93260000D02*
X65540000Y-93260000D01*
X67780000Y-93380000D02*
X65540000Y-93380000D01*
X67780000Y-93980000D02*
X65540000Y-93980000D01*
%TO.C,D9*%
X127860000Y-51670000D02*
X130100000Y-51670000D01*
X127860000Y-55910000D02*
X127860000Y-51670000D01*
X128980000Y-51020000D02*
X128980000Y-51670000D01*
X128980000Y-56560000D02*
X128980000Y-55910000D01*
X130100000Y-51670000D02*
X130100000Y-55910000D01*
X130100000Y-55070000D02*
X127860000Y-55070000D01*
X130100000Y-55190000D02*
X127860000Y-55190000D01*
X130100000Y-55310000D02*
X127860000Y-55310000D01*
X130100000Y-55910000D02*
X127860000Y-55910000D01*
%TO.C,D22*%
X137070000Y-70730000D02*
X139310000Y-70730000D01*
X137070000Y-74970000D02*
X137070000Y-70730000D01*
X138190000Y-70080000D02*
X138190000Y-70730000D01*
X138190000Y-75620000D02*
X138190000Y-74970000D01*
X139310000Y-70730000D02*
X139310000Y-74970000D01*
X139310000Y-74130000D02*
X137070000Y-74130000D01*
X139310000Y-74250000D02*
X137070000Y-74250000D01*
X139310000Y-74370000D02*
X137070000Y-74370000D01*
X139310000Y-74970000D02*
X137070000Y-74970000D01*
%TO.C,D27*%
X41670000Y-70730000D02*
X43910000Y-70730000D01*
X41670000Y-74970000D02*
X41670000Y-70730000D01*
X42790000Y-70080000D02*
X42790000Y-70730000D01*
X42790000Y-75620000D02*
X42790000Y-74970000D01*
X43910000Y-70730000D02*
X43910000Y-74970000D01*
X43910000Y-74130000D02*
X41670000Y-74130000D01*
X43910000Y-74250000D02*
X41670000Y-74250000D01*
X43910000Y-74370000D02*
X41670000Y-74370000D01*
X43910000Y-74970000D02*
X41670000Y-74970000D01*
%TO.C,D23*%
X117910000Y-70730000D02*
X120150000Y-70730000D01*
X117910000Y-74970000D02*
X117910000Y-70730000D01*
X119030000Y-70080000D02*
X119030000Y-70730000D01*
X119030000Y-75620000D02*
X119030000Y-74970000D01*
X120150000Y-70730000D02*
X120150000Y-74970000D01*
X120150000Y-74130000D02*
X117910000Y-74130000D01*
X120150000Y-74250000D02*
X117910000Y-74250000D01*
X120150000Y-74370000D02*
X117910000Y-74370000D01*
X120150000Y-74970000D02*
X117910000Y-74970000D01*
%TO.C,D36*%
X160630000Y-89740000D02*
X162870000Y-89740000D01*
X160630000Y-93980000D02*
X160630000Y-89740000D01*
X161750000Y-89090000D02*
X161750000Y-89740000D01*
X161750000Y-94630000D02*
X161750000Y-93980000D01*
X162870000Y-89740000D02*
X162870000Y-93980000D01*
X162870000Y-93140000D02*
X160630000Y-93140000D01*
X162870000Y-93260000D02*
X160630000Y-93260000D01*
X162870000Y-93380000D02*
X160630000Y-93380000D01*
X162870000Y-93980000D02*
X160630000Y-93980000D01*
%TO.C,D52*%
X227910000Y-108810000D02*
X230150000Y-108810000D01*
X227910000Y-113050000D02*
X227910000Y-108810000D01*
X229030000Y-108160000D02*
X229030000Y-108810000D01*
X229030000Y-113700000D02*
X229030000Y-113050000D01*
X230150000Y-108810000D02*
X230150000Y-113050000D01*
X230150000Y-112210000D02*
X227910000Y-112210000D01*
X230150000Y-112330000D02*
X227910000Y-112330000D01*
X230150000Y-112450000D02*
X227910000Y-112450000D01*
X230150000Y-113050000D02*
X227910000Y-113050000D01*
%TO.C,D58*%
X204010000Y-127880000D02*
X206250000Y-127880000D01*
X204010000Y-132120000D02*
X204010000Y-127880000D01*
X205130000Y-127230000D02*
X205130000Y-127880000D01*
X205130000Y-132770000D02*
X205130000Y-132120000D01*
X206250000Y-127880000D02*
X206250000Y-132120000D01*
X206250000Y-131280000D02*
X204010000Y-131280000D01*
X206250000Y-131400000D02*
X204010000Y-131400000D01*
X206250000Y-131520000D02*
X204010000Y-131520000D01*
X206250000Y-132120000D02*
X204010000Y-132120000D01*
%TO.C,D28*%
X13550000Y-70830000D02*
X15790000Y-70830000D01*
X13550000Y-75070000D02*
X13550000Y-70830000D01*
X14670000Y-70180000D02*
X14670000Y-70830000D01*
X14670000Y-75720000D02*
X14670000Y-75070000D01*
X15790000Y-70830000D02*
X15790000Y-75070000D01*
X15790000Y-74230000D02*
X13550000Y-74230000D01*
X15790000Y-74350000D02*
X13550000Y-74350000D01*
X15790000Y-74470000D02*
X13550000Y-74470000D01*
X15790000Y-75070000D02*
X13550000Y-75070000D01*
%TO.C,D7*%
X165860000Y-51670000D02*
X168100000Y-51670000D01*
X165860000Y-55910000D02*
X165860000Y-51670000D01*
X166980000Y-51020000D02*
X166980000Y-51670000D01*
X166980000Y-56560000D02*
X166980000Y-55910000D01*
X168100000Y-51670000D02*
X168100000Y-55910000D01*
X168100000Y-55070000D02*
X165860000Y-55070000D01*
X168100000Y-55190000D02*
X165860000Y-55190000D01*
X168100000Y-55310000D02*
X165860000Y-55310000D01*
X168100000Y-55910000D02*
X165860000Y-55910000D01*
%TO.C,D63*%
X255610000Y-33310000D02*
X257850000Y-33310000D01*
X255610000Y-37550000D02*
X255610000Y-33310000D01*
X256730000Y-32660000D02*
X256730000Y-33310000D01*
X256730000Y-38200000D02*
X256730000Y-37550000D01*
X257850000Y-33310000D02*
X257850000Y-37550000D01*
X257850000Y-36710000D02*
X255610000Y-36710000D01*
X257850000Y-36830000D02*
X255610000Y-36830000D01*
X257850000Y-36950000D02*
X255610000Y-36950000D01*
X257850000Y-37550000D02*
X255610000Y-37550000D01*
%TO.C,D1*%
X13510000Y-51650000D02*
X15750000Y-51650000D01*
X13510000Y-55890000D02*
X13510000Y-51650000D01*
X14630000Y-51000000D02*
X14630000Y-51650000D01*
X14630000Y-56540000D02*
X14630000Y-55890000D01*
X15750000Y-51650000D02*
X15750000Y-55890000D01*
X15750000Y-55050000D02*
X13510000Y-55050000D01*
X15750000Y-55170000D02*
X13510000Y-55170000D01*
X15750000Y-55290000D02*
X13510000Y-55290000D01*
X15750000Y-55890000D02*
X13510000Y-55890000D01*
%TO.C,D37*%
X179900000Y-89740000D02*
X182140000Y-89740000D01*
X179900000Y-93980000D02*
X179900000Y-89740000D01*
X181020000Y-89090000D02*
X181020000Y-89740000D01*
X181020000Y-94630000D02*
X181020000Y-93980000D01*
X182140000Y-89740000D02*
X182140000Y-93980000D01*
X182140000Y-93140000D02*
X179900000Y-93140000D01*
X182140000Y-93260000D02*
X179900000Y-93260000D01*
X182140000Y-93380000D02*
X179900000Y-93380000D01*
X182140000Y-93980000D02*
X179900000Y-93980000D01*
%TO.C,D21*%
X155550000Y-70730000D02*
X157790000Y-70730000D01*
X155550000Y-74970000D02*
X155550000Y-70730000D01*
X156670000Y-70080000D02*
X156670000Y-70730000D01*
X156670000Y-75620000D02*
X156670000Y-74970000D01*
X157790000Y-70730000D02*
X157790000Y-74970000D01*
X157790000Y-74130000D02*
X155550000Y-74130000D01*
X157790000Y-74250000D02*
X155550000Y-74250000D01*
X157790000Y-74370000D02*
X155550000Y-74370000D01*
X157790000Y-74970000D02*
X155550000Y-74970000D01*
%TO.C,D5*%
X203910000Y-51670000D02*
X206150000Y-51670000D01*
X203910000Y-55910000D02*
X203910000Y-51670000D01*
X205030000Y-51020000D02*
X205030000Y-51670000D01*
X205030000Y-56560000D02*
X205030000Y-55910000D01*
X206150000Y-51670000D02*
X206150000Y-55910000D01*
X206150000Y-55070000D02*
X203910000Y-55070000D01*
X206150000Y-55190000D02*
X203910000Y-55190000D01*
X206150000Y-55310000D02*
X203910000Y-55310000D01*
X206150000Y-55910000D02*
X203910000Y-55910000D01*
%TO.C,D14*%
X32140000Y-51670000D02*
X34380000Y-51670000D01*
X32140000Y-55910000D02*
X32140000Y-51670000D01*
X33260000Y-51020000D02*
X33260000Y-51670000D01*
X33260000Y-56560000D02*
X33260000Y-55910000D01*
X34380000Y-51670000D02*
X34380000Y-55910000D01*
X34380000Y-55070000D02*
X32140000Y-55070000D01*
X34380000Y-55190000D02*
X32140000Y-55190000D01*
X34380000Y-55310000D02*
X32140000Y-55310000D01*
X34380000Y-55910000D02*
X32140000Y-55910000D01*
%TO.C,D2*%
X260820000Y-51670000D02*
X263060000Y-51670000D01*
X260820000Y-55910000D02*
X260820000Y-51670000D01*
X261940000Y-51020000D02*
X261940000Y-51670000D01*
X261940000Y-56560000D02*
X261940000Y-55910000D01*
X263060000Y-51670000D02*
X263060000Y-55910000D01*
X263060000Y-55070000D02*
X260820000Y-55070000D01*
X263060000Y-55190000D02*
X260820000Y-55190000D01*
X263060000Y-55310000D02*
X260820000Y-55310000D01*
X263060000Y-55910000D02*
X260820000Y-55910000D01*
%TO.C,D59*%
X227910000Y-127880000D02*
X230150000Y-127880000D01*
X227910000Y-132120000D02*
X227910000Y-127880000D01*
X229030000Y-127230000D02*
X229030000Y-127880000D01*
X229030000Y-132770000D02*
X229030000Y-132120000D01*
X230150000Y-127880000D02*
X230150000Y-132120000D01*
X230150000Y-131280000D02*
X227910000Y-131280000D01*
X230150000Y-131400000D02*
X227910000Y-131400000D01*
X230150000Y-131520000D02*
X227910000Y-131520000D01*
X230150000Y-132120000D02*
X227910000Y-132120000D01*
%TO.C,D38*%
X199020000Y-89740000D02*
X201260000Y-89740000D01*
X199020000Y-93980000D02*
X199020000Y-89740000D01*
X200140000Y-89090000D02*
X200140000Y-89740000D01*
X200140000Y-94630000D02*
X200140000Y-93980000D01*
X201260000Y-89740000D02*
X201260000Y-93980000D01*
X201260000Y-93140000D02*
X199020000Y-93140000D01*
X201260000Y-93260000D02*
X199020000Y-93260000D01*
X201260000Y-93380000D02*
X199020000Y-93380000D01*
X201260000Y-93980000D02*
X199020000Y-93980000D01*
%TO.C,D39*%
X217820000Y-89740000D02*
X220060000Y-89740000D01*
X217820000Y-93980000D02*
X217820000Y-89740000D01*
X218940000Y-89090000D02*
X218940000Y-89740000D01*
X218940000Y-94630000D02*
X218940000Y-93980000D01*
X220060000Y-89740000D02*
X220060000Y-93980000D01*
X220060000Y-93140000D02*
X217820000Y-93140000D01*
X220060000Y-93260000D02*
X217820000Y-93260000D01*
X220060000Y-93380000D02*
X217820000Y-93380000D01*
X220060000Y-93980000D02*
X217820000Y-93980000D01*
%TO.C,D10*%
X108370000Y-51670000D02*
X110610000Y-51670000D01*
X108370000Y-55910000D02*
X108370000Y-51670000D01*
X109490000Y-51020000D02*
X109490000Y-51670000D01*
X109490000Y-56560000D02*
X109490000Y-55910000D01*
X110610000Y-51670000D02*
X110610000Y-55910000D01*
X110610000Y-55070000D02*
X108370000Y-55070000D01*
X110610000Y-55190000D02*
X108370000Y-55190000D01*
X110610000Y-55310000D02*
X108370000Y-55310000D01*
X110610000Y-55910000D02*
X108370000Y-55910000D01*
%TO.C,D19*%
X193680000Y-70730000D02*
X195920000Y-70730000D01*
X193680000Y-74970000D02*
X193680000Y-70730000D01*
X194800000Y-70080000D02*
X194800000Y-70730000D01*
X194800000Y-75620000D02*
X194800000Y-74970000D01*
X195920000Y-70730000D02*
X195920000Y-74970000D01*
X195920000Y-74130000D02*
X193680000Y-74130000D01*
X195920000Y-74250000D02*
X193680000Y-74250000D01*
X195920000Y-74370000D02*
X193680000Y-74370000D01*
X195920000Y-74970000D02*
X193680000Y-74970000D01*
%TO.C,D48*%
X151530000Y-108810000D02*
X153770000Y-108810000D01*
X151530000Y-113050000D02*
X151530000Y-108810000D01*
X152650000Y-108160000D02*
X152650000Y-108810000D01*
X152650000Y-113700000D02*
X152650000Y-113050000D01*
X153770000Y-108810000D02*
X153770000Y-113050000D01*
X153770000Y-112210000D02*
X151530000Y-112210000D01*
X153770000Y-112330000D02*
X151530000Y-112330000D01*
X153770000Y-112450000D02*
X151530000Y-112450000D01*
X153770000Y-113050000D02*
X151530000Y-113050000D01*
%TO.C,D15*%
X270360000Y-70670000D02*
X272600000Y-70670000D01*
X270360000Y-74910000D02*
X270360000Y-70670000D01*
X271480000Y-70020000D02*
X271480000Y-70670000D01*
X271480000Y-75560000D02*
X271480000Y-74910000D01*
X272600000Y-70670000D02*
X272600000Y-74910000D01*
X272600000Y-74070000D02*
X270360000Y-74070000D01*
X272600000Y-74190000D02*
X270360000Y-74190000D01*
X272600000Y-74310000D02*
X270360000Y-74310000D01*
X272600000Y-74910000D02*
X270360000Y-74910000D01*
%TO.C,D4*%
X222810000Y-51670000D02*
X225050000Y-51670000D01*
X222810000Y-55910000D02*
X222810000Y-51670000D01*
X223930000Y-51020000D02*
X223930000Y-51670000D01*
X223930000Y-56560000D02*
X223930000Y-55910000D01*
X225050000Y-51670000D02*
X225050000Y-55910000D01*
X225050000Y-55070000D02*
X222810000Y-55070000D01*
X225050000Y-55190000D02*
X222810000Y-55190000D01*
X225050000Y-55310000D02*
X222810000Y-55310000D01*
X225050000Y-55910000D02*
X222810000Y-55910000D01*
%TO.C,D25*%
X79830000Y-70730000D02*
X82070000Y-70730000D01*
X79830000Y-74970000D02*
X79830000Y-70730000D01*
X80950000Y-70080000D02*
X80950000Y-70730000D01*
X80950000Y-75620000D02*
X80950000Y-74970000D01*
X82070000Y-70730000D02*
X82070000Y-74970000D01*
X82070000Y-74130000D02*
X79830000Y-74130000D01*
X82070000Y-74250000D02*
X79830000Y-74250000D01*
X82070000Y-74370000D02*
X79830000Y-74370000D01*
X82070000Y-74970000D02*
X79830000Y-74970000D01*
%TO.C,D44*%
X75540000Y-108810000D02*
X77780000Y-108810000D01*
X75540000Y-113050000D02*
X75540000Y-108810000D01*
X76660000Y-108160000D02*
X76660000Y-108810000D01*
X76660000Y-113700000D02*
X76660000Y-113050000D01*
X77780000Y-108810000D02*
X77780000Y-113050000D01*
X77780000Y-112210000D02*
X75540000Y-112210000D01*
X77780000Y-112330000D02*
X75540000Y-112330000D01*
X77780000Y-112450000D02*
X75540000Y-112450000D01*
X77780000Y-113050000D02*
X75540000Y-113050000D01*
%TO.C,D18*%
X213120000Y-70730000D02*
X215360000Y-70730000D01*
X213120000Y-74970000D02*
X213120000Y-70730000D01*
X214240000Y-70080000D02*
X214240000Y-70730000D01*
X214240000Y-75620000D02*
X214240000Y-74970000D01*
X215360000Y-70730000D02*
X215360000Y-74970000D01*
X215360000Y-74130000D02*
X213120000Y-74130000D01*
X215360000Y-74250000D02*
X213120000Y-74250000D01*
X215360000Y-74370000D02*
X213120000Y-74370000D01*
X215360000Y-74970000D02*
X213120000Y-74970000D01*
%TO.C,D34*%
X122500000Y-89740000D02*
X124740000Y-89740000D01*
X122500000Y-93980000D02*
X122500000Y-89740000D01*
X123620000Y-89090000D02*
X123620000Y-89740000D01*
X123620000Y-94630000D02*
X123620000Y-93980000D01*
X124740000Y-89740000D02*
X124740000Y-93980000D01*
X124740000Y-93140000D02*
X122500000Y-93140000D01*
X124740000Y-93260000D02*
X122500000Y-93260000D01*
X124740000Y-93380000D02*
X122500000Y-93380000D01*
X124740000Y-93980000D02*
X122500000Y-93980000D01*
%TO.C,D29*%
X13320000Y-89740000D02*
X15560000Y-89740000D01*
X13320000Y-93980000D02*
X13320000Y-89740000D01*
X14440000Y-89090000D02*
X14440000Y-89740000D01*
X14440000Y-94630000D02*
X14440000Y-93980000D01*
X15560000Y-89740000D02*
X15560000Y-93980000D01*
X15560000Y-93140000D02*
X13320000Y-93140000D01*
X15560000Y-93260000D02*
X13320000Y-93260000D01*
X15560000Y-93380000D02*
X13320000Y-93380000D01*
X15560000Y-93980000D02*
X13320000Y-93980000D01*
%TO.C,D16*%
X251430000Y-70570000D02*
X253670000Y-70570000D01*
X251430000Y-74810000D02*
X251430000Y-70570000D01*
X252550000Y-69920000D02*
X252550000Y-70570000D01*
X252550000Y-75460000D02*
X252550000Y-74810000D01*
X253670000Y-70570000D02*
X253670000Y-74810000D01*
X253670000Y-73970000D02*
X251430000Y-73970000D01*
X253670000Y-74090000D02*
X251430000Y-74090000D01*
X253670000Y-74210000D02*
X251430000Y-74210000D01*
X253670000Y-74810000D02*
X251430000Y-74810000D01*
%TO.C,D26*%
X60640000Y-70730000D02*
X62880000Y-70730000D01*
X60640000Y-74970000D02*
X60640000Y-70730000D01*
X61760000Y-70080000D02*
X61760000Y-70730000D01*
X61760000Y-75620000D02*
X61760000Y-74970000D01*
X62880000Y-70730000D02*
X62880000Y-74970000D01*
X62880000Y-74130000D02*
X60640000Y-74130000D01*
X62880000Y-74250000D02*
X60640000Y-74250000D01*
X62880000Y-74370000D02*
X60640000Y-74370000D01*
X62880000Y-74970000D02*
X60640000Y-74970000D01*
%TO.C,D46*%
X113620000Y-108810000D02*
X115860000Y-108810000D01*
X113620000Y-113050000D02*
X113620000Y-108810000D01*
X114740000Y-108160000D02*
X114740000Y-108810000D01*
X114740000Y-113700000D02*
X114740000Y-113050000D01*
X115860000Y-108810000D02*
X115860000Y-113050000D01*
X115860000Y-112210000D02*
X113620000Y-112210000D01*
X115860000Y-112330000D02*
X113620000Y-112330000D01*
X115860000Y-112450000D02*
X113620000Y-112450000D01*
X115860000Y-113050000D02*
X113620000Y-113050000D01*
%TO.C,D60*%
X251810000Y-127880000D02*
X254050000Y-127880000D01*
X251810000Y-132120000D02*
X251810000Y-127880000D01*
X252930000Y-127230000D02*
X252930000Y-127880000D01*
X252930000Y-132770000D02*
X252930000Y-132120000D01*
X254050000Y-127880000D02*
X254050000Y-132120000D01*
X254050000Y-131280000D02*
X251810000Y-131280000D01*
X254050000Y-131400000D02*
X251810000Y-131400000D01*
X254050000Y-131520000D02*
X251810000Y-131520000D01*
X254050000Y-132120000D02*
X251810000Y-132120000D01*
%TO.C,D30*%
X46370000Y-89740000D02*
X48610000Y-89740000D01*
X46370000Y-93980000D02*
X46370000Y-89740000D01*
X47490000Y-89090000D02*
X47490000Y-89740000D01*
X47490000Y-94630000D02*
X47490000Y-93980000D01*
X48610000Y-89740000D02*
X48610000Y-93980000D01*
X48610000Y-93140000D02*
X46370000Y-93140000D01*
X48610000Y-93260000D02*
X46370000Y-93260000D01*
X48610000Y-93380000D02*
X46370000Y-93380000D01*
X48610000Y-93980000D02*
X46370000Y-93980000D01*
%TO.C,D57*%
X84850000Y-127880000D02*
X87090000Y-127880000D01*
X84850000Y-132120000D02*
X84850000Y-127880000D01*
X85970000Y-127230000D02*
X85970000Y-127880000D01*
X85970000Y-132770000D02*
X85970000Y-132120000D01*
X87090000Y-127880000D02*
X87090000Y-132120000D01*
X87090000Y-131280000D02*
X84850000Y-131280000D01*
X87090000Y-131400000D02*
X84850000Y-131400000D01*
X87090000Y-131520000D02*
X84850000Y-131520000D01*
X87090000Y-132120000D02*
X84850000Y-132120000D01*
%TO.C,D43*%
X56430000Y-108810000D02*
X58670000Y-108810000D01*
X56430000Y-113050000D02*
X56430000Y-108810000D01*
X57550000Y-108160000D02*
X57550000Y-108810000D01*
X57550000Y-113700000D02*
X57550000Y-113050000D01*
X58670000Y-108810000D02*
X58670000Y-113050000D01*
X58670000Y-112210000D02*
X56430000Y-112210000D01*
X58670000Y-112330000D02*
X56430000Y-112330000D01*
X58670000Y-112450000D02*
X56430000Y-112450000D01*
X58670000Y-113050000D02*
X56430000Y-113050000D01*
%TO.C,D45*%
X94660000Y-108810000D02*
X96900000Y-108810000D01*
X94660000Y-113050000D02*
X94660000Y-108810000D01*
X95780000Y-108160000D02*
X95780000Y-108810000D01*
X95780000Y-113700000D02*
X95780000Y-113050000D01*
X96900000Y-108810000D02*
X96900000Y-113050000D01*
X96900000Y-112210000D02*
X94660000Y-112210000D01*
X96900000Y-112330000D02*
X94660000Y-112330000D01*
X96900000Y-112450000D02*
X94660000Y-112450000D01*
X96900000Y-113050000D02*
X94660000Y-113050000D01*
%TO.C,D53*%
X247130000Y-108810000D02*
X249370000Y-108810000D01*
X247130000Y-113050000D02*
X247130000Y-108810000D01*
X248250000Y-108160000D02*
X248250000Y-108810000D01*
X248250000Y-113700000D02*
X248250000Y-113050000D01*
X249370000Y-108810000D02*
X249370000Y-113050000D01*
X249370000Y-112210000D02*
X247130000Y-112210000D01*
X249370000Y-112330000D02*
X247130000Y-112330000D01*
X249370000Y-112450000D02*
X247130000Y-112450000D01*
X249370000Y-113050000D02*
X247130000Y-113050000D01*
%TD*%
M02*
