M48
; DRILL file {KiCad 9.0.0} date 2025-06-14T23:29:44+0530
; FORMAT={-:-/ absolute / metric / decimal}
; #@! TF.CreationDate,2025-06-14T23:29:44+05:30
; #@! TF.GenerationSoftware,Kicad,Pcbnew,9.0.0
; #@! TF.FileFunction,Plated,1,2,PTH
FMAT,2
METRIC
; #@! TA.AperFunction,Plated,PTH,ViaDrill
T1C0.300
; #@! TA.AperFunction,Plated,PTH,ComponentDrill
T2C0.800
; #@! TA.AperFunction,Plated,PTH,ComponentDrill
T3C1.000
; #@! TA.AperFunction,Plated,PTH,ComponentDrill
T4C1.500
; #@! TA.AperFunction,Plated,PTH,ComponentDrill
T5C2.600
%
G90
G05
T1
X54.0Y-25.5
X56.477Y-26.299
X56.5Y-27.5
X61.5Y-26.4
X61.5Y-28.9
X63.0Y-26.4
X63.0Y-27.6
X65.5Y-56.0
X71.5Y-27.5
X268.5Y-53.0
T2
X14.44Y-88.05
X14.44Y-95.67
X14.45Y-126.19
X14.45Y-133.81
X14.63Y-49.96
X14.63Y-57.58
X14.7Y-107.12
X14.7Y-114.74
X15.09Y-31.6
X15.09Y-39.22
X23.95Y-69.04
X23.95Y-76.66
X33.26Y-49.98
X33.26Y-57.6
X37.86Y-126.19
X37.86Y-133.81
X38.5Y-31.57
X38.5Y-39.19
X42.79Y-69.04
X42.79Y-76.66
X47.49Y-88.05
X47.49Y-95.67
X52.39Y-49.98
X52.39Y-57.6
X57.55Y-107.12
X57.55Y-114.74
X61.76Y-69.04
X61.76Y-76.66
X61.92Y-126.19
X61.92Y-133.81
X66.66Y-88.05
X66.66Y-95.67
X71.72Y-49.98
X71.72Y-57.6
X76.66Y-107.12
X76.66Y-114.74
X80.95Y-69.04
X80.95Y-76.66
X85.75Y-88.05
X85.75Y-95.67
X85.97Y-126.19
X85.97Y-133.81
X90.6Y-49.98
X90.6Y-57.6
X95.78Y-107.12
X95.78Y-114.74
X99.91Y-69.04
X99.91Y-76.66
X104.76Y-88.05
X104.76Y-95.67
X109.49Y-49.98
X109.49Y-57.6
X114.74Y-107.12
X114.74Y-114.74
X119.03Y-69.04
X119.03Y-76.66
X123.62Y-88.05
X123.62Y-95.67
X128.98Y-49.98
X128.98Y-57.6
X134.01Y-107.12
X134.01Y-114.74
X138.19Y-69.04
X138.19Y-76.66
X143.16Y-88.05
X143.16Y-95.67
X147.95Y-49.98
X147.95Y-57.6
X152.65Y-107.12
X152.65Y-114.74
X156.67Y-69.04
X156.67Y-76.66
X161.75Y-88.05
X161.75Y-95.67
X166.98Y-49.98
X166.98Y-57.6
X172.2Y-107.12
X172.2Y-114.74
X176.11Y-69.04
X176.11Y-76.66
X181.02Y-88.05
X181.02Y-95.67
X185.7Y-49.98
X185.7Y-57.6
X191.12Y-107.12
X191.12Y-114.74
X194.8Y-69.04
X194.8Y-76.66
X200.14Y-88.05
X200.14Y-95.67
X205.03Y-49.98
X205.03Y-57.6
X205.13Y-126.19
X205.13Y-133.81
X210.13Y-107.12
X210.13Y-114.74
X214.24Y-69.04
X214.24Y-76.66
X218.94Y-88.05
X218.94Y-95.67
X223.93Y-49.98
X223.93Y-57.6
X229.03Y-107.12
X229.03Y-114.74
X229.03Y-126.19
X229.03Y-133.81
X233.5Y-69.04
X233.5Y-76.66
X238.27Y-88.05
X238.27Y-95.67
X243.11Y-49.98
X243.11Y-57.6
X248.25Y-107.12
X248.25Y-114.74
X252.26Y-69.04
X252.26Y-76.66
X252.93Y-126.19
X252.93Y-133.81
X257.36Y-88.05
X257.36Y-95.67
X261.94Y-49.98
X261.94Y-57.6
X271.48Y-68.98
X271.48Y-76.6
X276.98Y-126.19
X276.98Y-133.81
T3
X15.97Y-23.18
X15.97Y-40.96
X18.51Y-23.18
X18.51Y-40.96
X21.05Y-23.18
X21.05Y-40.96
X23.59Y-23.18
X23.59Y-40.96
X26.13Y-23.18
X26.13Y-40.96
X28.67Y-23.18
X28.67Y-40.96
X31.21Y-23.18
X31.21Y-40.96
X33.75Y-23.18
X33.75Y-40.96
X36.29Y-23.18
X36.29Y-40.96
X38.83Y-23.18
X38.83Y-40.96
X41.37Y-23.18
X41.37Y-40.96
X43.91Y-23.18
X43.91Y-40.96
X46.45Y-23.18
X46.45Y-40.96
X48.99Y-23.18
X48.99Y-40.96
X51.53Y-23.18
X51.53Y-40.96
X54.07Y-23.18
X54.07Y-40.96
X56.61Y-23.18
X56.61Y-40.96
X59.15Y-23.18
X59.15Y-40.96
X61.69Y-23.18
X61.69Y-40.96
X64.23Y-23.18
X64.23Y-40.96
X261.46Y-27.76
X261.46Y-30.26
X261.46Y-32.76
X275.96Y-27.76
X275.96Y-32.76
X284.13Y-28.0
X284.13Y-30.5
X284.13Y-33.0
X298.63Y-28.0
X298.63Y-33.0
T4
X20.11Y-51.25
X22.4Y-127.46
X24.82Y-70.31
X26.46Y-48.71
X27.21Y-89.32
X28.75Y-124.92
X31.17Y-67.77
X31.94Y-108.352
X33.56Y-86.78
X38.29Y-105.812
X39.14Y-51.25
X45.49Y-48.71
X46.19Y-127.46
X48.63Y-70.31
X52.54Y-124.92
X53.41Y-89.32
X54.98Y-67.77
X58.16Y-51.25
X59.76Y-86.78
X62.92Y-108.4
X64.51Y-48.71
X67.66Y-70.31
X69.27Y-105.86
X70.19Y-127.46
X72.44Y-89.32
X74.01Y-67.77
X76.54Y-124.92
X77.22Y-51.25
X78.79Y-86.78
X82.0Y-108.42
X83.57Y-48.71
X86.76Y-70.31
X88.35Y-105.88
X91.5Y-89.32
X93.11Y-67.77
X96.25Y-51.25
X97.85Y-86.78
X101.07Y-108.41
X102.6Y-48.71
X105.8Y-70.31
X107.42Y-105.87
X110.53Y-89.32
X112.15Y-67.77
X115.3Y-51.25
X116.88Y-86.78
X120.11Y-108.4
X121.65Y-48.71
X124.88Y-70.31
X126.46Y-105.86
X129.58Y-89.32
X131.23Y-67.77
X134.36Y-51.25
X135.93Y-86.78
X139.16Y-108.4
X140.71Y-48.71
X141.61Y-127.46
X143.93Y-70.31
X145.51Y-105.86
X147.96Y-124.92
X148.64Y-89.32
X150.28Y-67.77
X153.44Y-51.25
X154.99Y-86.78
X158.2Y-108.4
X159.79Y-48.71
X162.98Y-70.31
X164.55Y-105.86
X167.67Y-89.32
X169.33Y-67.77
X172.48Y-51.25
X174.02Y-86.78
X177.24Y-108.39
X178.83Y-48.71
X182.04Y-70.31
X183.59Y-105.85
X186.77Y-89.32
X188.39Y-67.77
X191.52Y-51.25
X193.12Y-86.78
X196.29Y-108.39
X197.87Y-48.71
X201.09Y-70.31
X202.64Y-105.85
X205.82Y-89.32
X207.44Y-67.77
X210.55Y-51.25
X212.17Y-86.78
X213.0Y-127.46
X215.32Y-108.39
X216.9Y-48.71
X219.35Y-124.92
X220.12Y-70.31
X221.67Y-105.85
X224.86Y-89.32
X226.47Y-67.77
X229.62Y-51.25
X231.21Y-86.78
X234.39Y-108.39
X235.97Y-48.71
X236.82Y-127.43
X239.17Y-70.31
X240.74Y-105.85
X243.17Y-124.89
X243.92Y-89.32
X245.52Y-67.77
X248.67Y-51.25
X250.27Y-86.78
X255.02Y-48.71
X258.22Y-70.31
X260.75Y-127.46
X264.57Y-67.77
X267.1Y-124.92
X270.13Y-108.39
X274.88Y-89.33
X276.48Y-105.85
X277.24Y-51.25
X281.23Y-86.79
X282.0Y-70.31
X283.59Y-48.71
X284.58Y-127.46
X288.35Y-67.77
X290.93Y-124.92
T5
X268.96Y-24.66
X268.96Y-35.86
X291.63Y-24.9
X291.63Y-36.1
M30
